{"glyphs":{"0":{"ha":577,"x_min":105,"x_max":509,"o":"m 230 65 l 231 69 l 309 69 l 386 69 l 387 65 q 392 6 393 52 q 386 -45 391 -39 q 308 -46 385 -46 l 231 -45 l 229 -40 q 225 15 224 -22 q 230 65 225 53 m 384 644 l 386 648 l 425 648 q 464 646 462 648 q 469 607 468 640 q 468 555 471 574 q 464 534 465 535 q 482 532 463 532 q 503 531 501 532 q 508 491 506 525 q 507 441 509 458 q 505 434 506 439 q 505 427 505 429 q 504 408 503 414 q 508 359 508 390 q 504 310 507 328 q 504 292 503 301 q 508 233 509 272 q 503 186 507 194 q 482 185 501 185 l 463 185 l 465 179 q 469 119 470 161 q 463 71 469 77 q 423 70 462 70 l 385 71 l 384 76 q 379 130 379 94 q 384 180 379 166 q 384 191 385 185 q 379 245 379 210 q 384 296 379 281 q 384 307 385 301 q 379 361 379 326 q 384 411 379 397 q 384 423 385 416 q 379 477 379 441 q 384 527 379 513 q 384 538 385 532 q 379 594 379 557 q 384 644 379 631 m 153 644 l 155 648 l 193 648 l 231 648 l 233 644 q 238 596 238 633 q 234 541 238 560 q 233 532 233 534 q 234 524 233 530 q 237 474 237 506 q 234 425 237 442 q 234 408 233 416 q 237 359 237 391 q 234 310 237 327 q 234 292 233 301 q 238 234 238 273 q 233 187 237 195 q 232 184 232 186 q 233 179 233 182 q 238 119 239 162 q 232 71 237 77 q 192 70 231 70 l 153 71 l 152 76 q 148 130 147 94 q 153 180 148 166 l 154 185 l 134 186 l 115 186 l 113 191 q 109 245 109 209 q 114 296 109 282 q 114 307 115 301 q 109 361 109 326 q 114 411 109 397 q 114 423 115 416 q 111 506 105 455 q 115 529 113 526 q 135 532 118 532 l 154 532 l 153 538 q 148 594 148 557 q 153 644 148 631 m 230 760 l 231 764 l 309 764 q 387 762 385 764 q 392 723 390 756 q 391 672 393 689 q 389 665 390 670 q 389 659 389 660 q 386 650 387 651 q 308 648 385 648 l 231 649 l 229 654 q 225 710 224 672 q 230 760 225 747 z "},"1":{"ha":577,"x_min":147,"x_max":509,"o":"m 269 760 l 270 764 l 328 764 q 387 762 385 764 q 389 754 387 762 q 389 657 397 705 q 389 640 387 648 q 392 590 392 622 q 389 541 392 559 q 389 524 387 532 q 392 474 392 506 q 389 425 392 442 q 389 408 387 416 q 392 350 393 389 q 387 303 391 311 q 388 295 385 302 q 392 237 393 279 q 387 187 391 195 q 388 179 385 186 q 392 121 393 162 q 387 71 391 79 l 389 71 q 397 70 392 71 q 410 70 403 70 q 426 69 416 69 q 444 69 435 69 q 503 68 501 69 q 508 28 507 61 q 507 -24 509 -5 q 502 -45 503 -43 q 327 -46 500 -46 l 153 -45 l 152 -40 q 148 15 147 -22 q 153 65 148 53 l 155 69 l 212 69 l 270 69 l 268 76 q 263 130 263 94 q 268 180 263 165 q 268 191 269 185 q 263 245 263 210 q 268 296 263 281 q 268 307 269 301 q 263 361 263 326 q 268 411 263 397 q 268 423 269 416 q 263 477 263 441 q 268 527 263 513 l 270 532 l 231 533 l 192 533 l 191 538 q 186 594 186 556 q 191 644 186 631 l 193 648 l 231 648 l 270 648 l 268 654 q 263 710 263 673 q 269 760 264 747 z "},"2":{"ha":577,"x_min":105,"x_max":513,"o":"m 153 760 l 155 764 l 290 764 q 425 762 424 764 q 431 722 429 755 q 429 670 432 689 q 425 650 426 651 l 430 650 q 444 649 435 649 q 463 648 452 648 q 503 646 500 648 q 505 638 503 646 q 504 541 513 591 q 504 524 503 532 q 508 465 509 503 q 503 418 507 426 q 482 416 500 416 q 464 415 463 416 q 469 359 469 406 q 464 302 469 312 q 424 301 463 301 q 415 301 420 301 q 407 301 411 301 q 400 300 404 300 q 394 300 397 300 q 390 300 392 300 q 387 300 388 300 l 387 299 q 393 244 393 288 q 387 186 393 197 q 347 185 385 185 q 335 185 341 185 q 325 185 330 185 q 316 184 320 184 q 311 184 313 184 l 309 184 q 315 128 315 173 q 309 71 315 82 q 321 70 309 71 q 357 70 334 70 q 405 69 380 69 q 503 68 501 69 q 508 28 506 62 q 507 -22 509 -5 q 505 -30 506 -24 q 505 -36 505 -35 q 502 -45 503 -43 q 308 -46 500 -46 l 115 -45 l 113 -40 q 109 15 109 -22 q 114 65 109 53 l 116 69 l 154 69 l 193 69 l 191 76 q 186 131 186 94 q 191 181 186 168 l 193 185 l 231 185 l 270 185 l 268 191 q 263 247 263 210 q 269 296 264 283 l 270 301 l 309 301 l 347 301 l 345 307 q 342 391 336 339 q 347 414 344 411 q 366 416 349 416 l 385 416 l 384 423 q 379 477 379 441 q 384 527 379 513 q 384 538 385 532 q 379 593 379 557 q 384 643 379 629 l 386 648 l 289 648 q 241 648 264 648 q 206 647 218 648 q 194 646 193 647 q 199 588 199 637 q 193 534 199 539 q 153 533 193 533 l 115 533 l 113 538 q 111 622 105 568 q 115 645 113 642 q 135 648 118 648 l 154 648 l 153 654 q 148 710 148 673 q 153 760 148 747 z "},"3":{"ha":577,"x_min":109,"x_max":552,"o":"m 191 760 l 193 764 l 328 764 q 464 762 463 764 q 469 722 468 755 q 468 670 471 689 q 464 650 465 651 l 469 650 q 482 649 473 649 q 501 648 491 648 q 541 646 539 648 q 543 638 542 646 q 543 541 552 591 q 543 524 541 532 q 547 465 547 503 q 541 418 546 426 q 501 416 539 416 q 482 416 491 416 q 469 415 473 416 l 464 415 q 469 359 469 406 q 464 302 469 312 l 469 302 q 482 301 473 302 q 501 301 491 301 q 541 299 539 301 q 543 291 542 298 q 543 194 552 244 q 543 176 541 184 q 547 117 547 156 q 541 71 546 79 q 501 69 539 69 q 482 69 491 69 q 469 68 473 68 l 464 68 q 469 9 469 58 q 463 -45 469 -39 q 327 -46 462 -46 l 192 -45 l 191 -40 q 186 14 186 -22 q 191 64 186 51 l 193 69 l 154 70 l 115 71 l 113 76 q 109 131 109 94 q 114 181 109 169 l 116 185 l 174 185 q 232 184 231 185 q 237 144 236 177 q 236 92 239 111 q 232 71 233 73 q 244 70 231 71 q 280 70 256 70 q 328 69 303 69 l 424 69 l 422 76 q 418 130 418 94 q 422 180 418 165 q 422 191 424 185 q 418 245 418 210 q 422 296 418 281 l 424 301 l 347 301 l 269 302 l 268 307 q 263 362 263 325 q 269 412 264 400 l 270 416 l 347 416 l 424 416 l 422 423 q 418 477 418 441 q 422 527 418 513 q 422 538 424 532 q 418 593 418 557 q 422 643 418 629 l 424 648 l 328 648 q 280 648 303 648 q 244 647 256 648 q 232 646 231 647 q 237 588 237 637 q 232 534 237 539 q 173 533 231 533 l 115 533 l 113 538 q 109 594 109 556 q 114 644 109 631 l 116 648 l 154 648 l 193 648 l 191 654 q 186 710 186 673 q 191 760 186 747 z "},"4":{"ha":577,"x_min":66,"x_max":548,"o":"m 269 760 l 270 764 l 366 764 q 464 762 463 764 q 466 754 465 762 q 465 657 475 707 q 466 640 464 650 q 469 590 469 622 q 466 541 469 559 q 466 524 465 532 q 469 474 469 506 q 466 425 469 442 q 466 408 465 416 q 470 349 471 388 q 464 302 469 310 l 469 302 q 482 301 473 302 q 501 301 491 301 q 541 299 539 301 q 547 259 545 292 q 545 208 548 227 q 543 196 543 201 q 542 189 542 191 q 541 186 541 187 q 502 185 540 185 l 463 185 l 465 179 q 469 121 470 163 q 464 71 469 79 q 465 64 463 70 q 469 3 470 46 q 463 -45 469 -39 q 404 -46 462 -46 l 347 -45 l 345 -40 q 340 14 340 -23 q 345 64 340 50 q 345 76 347 69 q 340 130 340 94 q 345 180 340 165 l 347 185 l 212 186 l 77 186 l 75 191 q 72 275 66 222 q 77 298 74 295 q 96 301 79 301 l 115 301 l 114 307 q 111 391 105 339 q 115 414 113 411 q 135 416 118 416 l 154 416 l 153 423 q 149 506 144 455 q 154 529 151 526 q 174 532 157 532 l 193 532 l 191 538 q 186 594 186 557 q 191 644 186 631 l 193 648 l 231 648 l 270 648 l 272 644 q 276 586 277 630 q 271 534 276 542 q 250 532 269 532 q 232 531 231 532 q 238 475 238 520 q 232 418 238 429 q 212 416 230 416 q 194 415 193 416 q 199 359 199 406 q 194 302 199 312 l 203 302 q 231 301 214 302 q 270 301 249 301 l 347 301 l 345 307 q 340 361 340 326 q 345 411 340 397 q 345 423 347 416 q 340 477 340 441 q 345 527 340 513 q 345 538 347 532 q 340 593 340 557 q 345 643 340 629 l 347 648 l 308 648 l 269 649 l 268 654 q 263 710 263 672 q 269 760 264 747 z "},"5":{"ha":577,"x_min":109,"x_max":548,"o":"m 114 181 l 116 185 l 154 185 q 194 184 193 185 q 199 144 198 177 q 198 92 201 111 q 193 71 195 73 q 153 70 192 70 l 115 71 l 113 76 q 109 131 109 94 q 114 181 109 169 m 269 528 l 270 532 l 347 532 q 425 531 424 532 q 431 491 429 524 q 429 439 432 458 q 425 418 426 420 l 427 418 q 432 417 429 418 q 440 417 435 417 q 451 416 445 416 q 463 416 456 416 q 503 415 501 416 q 508 375 507 408 q 507 323 509 342 q 503 302 503 304 q 521 301 501 301 q 541 299 539 301 q 547 259 545 292 q 545 208 548 227 q 543 196 543 201 q 542 189 542 191 q 541 186 541 187 q 521 185 540 185 q 503 184 501 185 q 508 128 508 174 q 503 71 508 81 q 463 69 500 69 q 444 69 452 69 q 430 68 435 68 l 425 68 q 430 9 431 58 q 425 -45 430 -39 q 308 -46 423 -46 l 192 -45 l 191 -40 q 186 15 186 -22 q 191 65 186 53 l 193 69 l 289 69 l 385 69 l 384 76 q 380 159 375 108 q 385 182 382 179 q 405 185 388 185 l 424 185 l 422 191 q 418 245 418 210 q 422 296 418 281 l 424 300 l 405 301 l 385 302 l 384 307 q 379 361 379 324 q 384 412 379 397 l 386 416 l 328 417 l 269 418 l 268 423 q 263 478 263 441 q 269 528 264 516 m 114 760 l 116 764 l 309 764 q 503 762 501 764 q 508 723 506 756 q 507 672 509 689 q 505 666 506 671 q 505 659 505 661 q 503 650 503 650 q 366 648 501 648 q 299 648 332 648 q 249 647 267 648 q 232 646 231 647 q 237 600 237 639 q 234 541 238 561 q 234 524 233 532 q 238 465 239 503 q 232 418 237 426 l 249 416 l 251 416 q 271 414 268 416 q 275 389 273 411 q 276 337 277 368 q 271 302 274 306 q 192 301 269 301 l 115 302 l 113 307 q 109 361 109 325 q 114 411 109 397 q 114 423 115 416 q 109 477 109 441 q 114 527 109 513 q 114 538 115 532 q 109 593 109 557 q 114 643 109 629 q 114 654 115 648 q 109 710 109 673 q 114 760 109 747 z "},"6":{"ha":577,"x_min":105,"x_max":552,"o":"m 269 412 l 270 416 l 366 416 q 464 415 463 416 q 469 375 468 408 q 468 323 471 342 q 464 302 465 304 l 469 302 q 482 301 473 302 q 501 301 491 301 q 541 299 539 301 q 543 291 542 298 q 543 194 552 244 q 543 176 541 184 q 547 117 547 156 q 541 71 546 79 q 501 69 539 69 q 482 69 491 69 q 469 68 473 68 l 464 68 q 469 9 469 58 q 463 -45 469 -39 q 366 -46 462 -46 l 269 -45 l 268 -40 q 263 15 263 -22 q 269 65 264 53 l 270 69 l 347 69 l 424 69 l 422 76 q 418 130 418 94 q 422 180 418 165 q 422 191 424 185 q 418 245 418 210 q 422 296 418 281 l 424 301 l 347 301 l 269 302 l 268 307 q 263 362 263 325 q 269 412 264 400 m 153 644 l 155 648 l 212 648 l 270 648 l 272 644 q 276 586 277 630 q 271 534 276 542 q 250 532 269 532 q 232 531 231 532 q 237 484 237 524 q 234 425 238 445 q 234 408 233 416 q 238 349 239 388 q 232 302 237 310 q 251 301 231 301 q 271 298 268 301 q 275 273 273 295 q 273 194 280 233 q 273 176 271 184 q 276 116 277 155 q 271 71 275 76 q 211 70 269 70 l 153 71 l 152 76 q 148 130 147 94 q 153 180 148 166 l 154 185 l 134 186 l 115 186 l 113 191 q 109 245 109 209 q 114 296 109 282 q 114 307 115 301 q 109 361 109 326 q 114 411 109 397 q 114 423 115 416 q 111 506 105 455 q 115 529 113 526 q 135 532 118 532 l 154 532 l 153 538 q 148 594 148 557 q 153 644 148 631 m 269 760 l 270 764 l 366 764 q 464 762 463 764 q 469 723 467 756 q 468 672 471 689 q 467 665 467 670 q 466 659 466 660 q 463 650 465 651 q 366 648 462 648 l 269 649 l 268 654 q 263 710 263 672 q 269 760 264 747 z "},"7":{"ha":577,"x_min":109,"x_max":513,"o":"m 114 760 l 116 764 l 309 764 q 503 762 501 764 q 505 754 503 762 q 504 657 513 707 q 504 640 503 648 q 508 580 509 619 q 503 534 507 541 q 482 532 501 532 q 464 531 463 532 q 469 475 469 522 q 464 418 469 428 q 444 416 462 416 q 425 415 424 416 q 431 359 431 406 q 425 302 431 312 q 405 301 424 301 q 387 299 387 301 q 393 244 393 288 q 387 186 393 197 q 366 185 385 185 q 348 184 347 185 q 354 128 354 173 q 348 71 354 82 q 328 69 346 69 q 309 68 308 69 q 315 9 315 58 q 309 -45 315 -39 q 250 -46 308 -46 l 192 -45 l 191 -40 q 188 43 182 -11 q 193 66 190 64 q 212 69 195 69 l 231 69 l 229 76 q 226 159 220 108 q 231 182 228 179 q 250 185 233 185 l 270 185 l 268 191 q 264 275 259 223 q 269 298 267 295 q 289 301 272 301 l 309 301 l 307 307 q 303 391 298 339 q 308 414 305 411 q 328 416 311 416 l 347 416 l 345 423 q 342 506 336 455 q 347 529 344 526 q 366 532 349 532 l 385 532 l 384 538 q 379 593 379 557 q 384 643 379 629 l 386 648 l 250 648 l 115 649 l 113 654 q 109 710 109 672 q 114 760 109 747 z "},"8":{"ha":577,"x_min":105,"x_max":513,"o":"m 191 760 l 193 764 l 309 764 q 425 762 424 764 q 431 722 429 755 q 429 670 432 689 q 425 650 426 651 l 430 650 q 444 649 435 649 q 463 648 452 648 q 503 646 500 648 q 505 638 503 646 q 504 541 513 591 q 504 524 503 532 q 508 465 509 503 q 503 418 507 426 q 482 416 500 416 q 464 415 463 416 q 469 359 469 406 q 464 302 469 312 q 482 301 463 301 q 503 299 500 301 q 505 291 503 298 q 504 194 513 244 q 504 176 503 184 q 508 117 509 156 q 503 71 507 79 q 463 69 500 69 q 444 69 452 69 q 430 68 435 68 l 425 68 q 430 9 431 58 q 425 -45 430 -39 q 308 -46 423 -46 l 192 -45 l 191 -40 q 186 14 186 -22 q 191 64 186 51 l 193 69 l 154 70 l 115 71 l 113 76 q 109 130 109 94 q 114 180 109 166 q 114 191 115 185 q 111 275 105 223 q 115 298 113 295 q 135 301 118 301 l 154 301 l 153 307 q 148 361 148 326 q 153 411 148 397 l 154 416 l 134 417 l 115 418 l 113 423 q 109 477 109 441 q 114 527 109 513 q 114 538 115 532 q 109 594 109 557 q 114 644 109 631 l 116 648 l 154 648 l 193 648 l 191 654 q 186 710 186 673 q 191 760 186 747 m 384 643 l 386 648 l 309 648 q 270 648 289 648 q 241 647 252 648 q 232 646 231 647 q 237 600 237 639 q 234 541 238 561 q 234 524 233 532 q 238 465 239 503 q 232 418 237 426 q 241 417 231 418 q 270 417 252 417 q 309 416 289 416 l 385 416 l 384 423 q 379 477 379 441 q 384 527 379 513 q 384 538 385 532 q 379 593 379 557 q 384 643 379 629 m 384 296 l 386 301 l 309 301 l 232 301 l 233 295 q 238 246 237 280 q 234 194 238 212 q 234 176 233 185 q 238 117 239 156 q 232 71 237 79 q 241 70 231 71 q 270 70 252 70 q 309 69 289 69 l 385 69 l 384 76 q 379 130 379 94 q 384 180 379 165 q 384 191 385 185 q 379 245 379 210 q 384 296 379 281 z "},"9":{"ha":577,"x_min":109,"x_max":552,"o":"m 191 760 l 193 764 l 309 764 q 425 762 424 764 q 431 722 429 755 q 429 670 432 689 q 425 650 426 651 l 430 650 q 444 649 435 649 q 463 648 452 648 q 503 646 500 648 q 508 607 507 640 q 507 555 509 574 q 503 534 503 535 q 521 532 501 532 q 541 531 540 532 q 543 523 542 530 q 543 425 552 476 q 543 408 541 416 q 546 359 546 391 q 543 310 546 327 q 543 292 541 301 q 546 233 547 273 q 541 186 546 194 q 521 185 540 185 l 502 185 l 503 179 q 508 121 508 162 q 503 71 507 79 q 463 69 500 69 q 444 69 452 69 q 430 68 435 68 l 425 68 q 430 9 431 58 q 425 -45 430 -39 q 308 -46 423 -46 l 192 -45 l 191 -40 q 186 15 186 -22 q 191 65 186 53 l 193 69 l 289 69 l 385 69 l 384 76 q 380 159 375 108 q 385 182 382 179 q 405 185 388 185 l 424 185 l 422 191 q 418 245 418 210 q 422 296 418 281 q 422 307 424 301 q 418 361 418 326 q 422 411 418 397 l 424 416 l 405 417 l 385 418 l 384 423 q 379 477 379 441 q 384 527 379 513 q 384 538 385 532 q 379 593 379 557 q 384 643 379 629 l 386 648 l 309 648 q 270 648 289 648 q 241 647 252 648 q 232 646 231 647 q 237 600 237 639 q 234 541 238 561 q 234 524 233 532 q 238 465 239 503 q 232 418 237 426 q 241 417 231 418 q 270 417 252 417 q 309 416 289 416 l 386 416 l 387 412 q 392 353 393 399 q 386 302 391 308 q 288 301 385 301 l 192 302 l 191 307 q 186 361 186 325 q 191 412 186 398 l 193 416 l 154 417 l 115 418 l 113 423 q 109 477 109 441 q 114 527 109 513 q 114 538 115 532 q 109 594 109 557 q 114 644 109 631 l 116 648 l 154 648 l 193 648 l 191 654 q 186 710 186 673 q 191 760 186 747 z "}," ":{"ha":577,"x_min":0,"x_max":0,"o":""},"!":{"ha":577,"x_min":263,"x_max":397,"o":"m 269 65 l 270 69 l 328 69 q 387 68 385 69 q 392 28 390 62 q 391 -22 393 -5 q 389 -30 390 -24 q 389 -36 389 -35 q 386 -45 387 -43 q 327 -46 385 -46 l 269 -45 l 268 -40 q 263 15 263 -22 q 269 65 264 53 m 269 760 l 270 764 l 328 764 q 387 762 385 764 q 389 754 387 762 q 389 657 397 705 q 389 640 387 648 q 392 590 392 622 q 389 541 392 559 q 389 524 387 532 q 392 474 392 506 q 389 425 392 442 q 389 408 387 416 q 392 350 393 389 q 387 303 391 311 q 388 295 385 302 q 392 235 393 277 q 386 186 391 192 q 327 186 385 186 l 269 186 l 268 191 q 263 245 263 209 q 268 296 263 282 q 268 307 269 301 q 263 361 263 326 q 268 411 263 397 q 268 423 269 416 q 263 477 263 441 q 268 527 263 513 q 268 538 269 532 q 263 593 263 557 q 268 643 263 629 q 268 654 269 648 q 263 710 263 673 q 269 760 264 747 z "},"\"":{"ha":577,"x_min":147,"x_max":509,"o":"m 384 876 l 386 880 l 444 880 q 503 878 501 880 q 508 839 506 872 q 507 788 509 805 q 505 781 506 786 q 505 774 505 776 q 504 755 503 762 q 508 694 509 734 q 502 650 507 654 q 443 648 500 648 l 385 649 l 384 654 q 379 708 379 671 q 384 758 379 745 q 384 770 385 764 q 379 826 379 789 q 384 876 379 863 m 153 876 l 155 880 l 212 880 q 271 878 269 880 q 276 839 274 872 q 275 788 278 805 q 275 784 275 787 q 273 779 274 781 q 273 774 273 777 q 273 755 271 764 q 276 694 277 734 q 271 650 275 654 q 211 648 269 648 l 153 649 l 152 654 q 148 708 147 672 q 153 758 148 745 q 153 770 154 764 q 148 826 148 789 q 153 876 148 863 z "},"#":{"ha":577,"x_min":71,"x_max":548,"o":"m 153 644 l 155 648 l 212 648 q 271 646 269 648 q 276 607 275 640 q 275 555 277 574 q 271 534 271 535 l 275 533 q 289 533 280 533 q 309 532 298 532 l 347 532 l 345 538 q 340 594 340 557 q 345 644 340 631 l 347 648 l 405 648 q 464 646 462 648 q 469 607 468 640 q 468 555 471 574 q 464 534 465 535 l 469 533 q 482 533 473 533 q 501 532 491 532 q 541 531 540 532 q 547 491 545 524 q 545 439 548 458 q 544 433 544 435 q 543 428 543 430 q 542 425 543 427 q 542 422 542 423 q 542 420 542 421 q 541 419 542 420 l 541 418 q 501 416 539 416 q 482 416 491 416 q 469 415 473 416 l 464 415 q 469 369 469 408 q 466 310 470 330 q 466 292 465 301 q 470 233 471 272 q 464 186 469 194 l 469 186 q 482 185 473 186 q 501 185 491 185 q 541 184 540 185 q 547 144 545 177 q 545 92 548 111 q 544 85 544 88 q 543 81 543 83 q 542 78 543 79 q 542 75 542 76 q 542 73 542 74 q 541 72 542 73 l 541 71 q 502 69 539 69 l 463 69 l 465 63 q 469 3 470 45 q 463 -45 469 -39 q 404 -46 462 -46 l 347 -45 l 345 -40 q 340 14 340 -23 q 345 64 340 50 l 347 69 l 309 69 l 271 69 l 272 63 q 276 3 277 45 q 271 -45 276 -39 q 211 -46 269 -46 l 153 -45 l 152 -40 q 148 14 147 -22 q 153 64 148 51 l 154 69 l 115 70 l 77 71 l 75 76 q 71 131 71 94 q 75 181 71 169 l 77 185 l 115 185 l 154 185 l 153 191 q 148 245 148 210 q 153 296 148 281 q 153 307 154 301 q 148 361 148 326 q 153 412 148 397 l 154 416 l 115 417 l 77 418 l 75 423 q 71 478 71 441 q 75 528 71 516 l 77 532 l 115 532 l 154 532 l 153 538 q 148 594 148 557 q 153 644 148 631 m 345 411 l 347 416 l 309 416 q 297 416 302 416 q 286 416 291 416 q 278 416 281 416 q 273 415 274 416 l 271 415 q 276 369 275 408 q 273 310 277 330 q 273 292 271 301 q 277 233 277 272 q 271 186 276 194 l 275 186 q 289 185 280 186 q 309 185 298 185 l 347 185 l 345 191 q 340 245 340 210 q 345 296 340 281 q 345 307 347 301 q 340 361 340 326 q 345 411 340 397 z "},"$":{"ha":577,"x_min":71,"x_max":548,"o":"m 269 760 l 270 764 l 309 764 q 348 762 347 764 q 353 722 352 755 q 352 670 355 689 q 348 650 349 651 l 355 650 q 376 649 363 649 q 405 648 389 648 q 464 646 462 648 q 469 607 468 640 q 468 555 471 574 q 464 534 465 535 q 405 532 463 532 q 376 532 389 532 q 355 532 363 532 l 348 531 q 354 475 354 520 q 348 418 354 429 l 351 418 q 359 417 353 418 q 371 417 364 417 q 387 416 378 416 q 405 416 396 416 q 464 415 463 416 q 469 375 468 408 q 468 323 471 342 q 464 302 465 304 l 469 302 q 482 301 473 302 q 501 301 491 301 q 541 299 539 301 q 547 259 545 292 q 545 208 548 227 q 543 196 543 201 q 542 189 542 191 q 541 186 541 187 q 501 185 540 185 q 482 185 491 185 q 469 184 473 184 l 464 184 q 469 128 469 174 q 464 71 469 81 q 405 69 462 69 q 376 69 389 69 q 355 68 363 68 l 348 68 q 353 9 353 58 q 348 -45 353 -39 q 308 -46 347 -46 l 269 -45 l 268 -40 q 263 14 263 -23 q 268 64 263 51 l 270 69 l 212 70 l 153 71 l 152 76 q 148 131 147 94 q 153 181 148 169 l 155 185 l 212 185 l 270 185 l 268 191 q 263 245 263 210 q 268 296 263 281 l 270 301 l 212 301 l 153 302 l 152 307 q 148 361 147 325 q 153 412 148 398 l 154 416 l 115 417 l 77 418 l 75 423 q 71 478 71 441 q 75 528 71 516 l 77 532 l 115 532 l 154 532 l 153 538 q 148 594 148 557 q 153 644 148 631 l 155 648 l 212 648 l 270 648 l 268 654 q 263 710 263 673 q 269 760 264 747 m 268 527 l 270 532 l 231 532 q 212 532 221 532 q 199 532 203 532 l 194 531 q 199 475 199 522 q 194 418 199 428 l 195 418 q 201 417 197 418 q 209 417 204 417 q 219 416 214 416 q 231 416 225 416 l 270 416 l 268 423 q 263 477 263 441 q 268 527 263 513 m 422 296 l 424 301 l 386 301 q 374 301 380 301 q 363 301 368 301 q 355 300 359 300 q 350 300 351 300 l 348 299 q 354 244 354 288 q 348 186 354 197 l 353 186 q 366 185 357 186 q 385 185 375 185 l 424 185 l 422 191 q 418 245 418 210 q 422 296 418 281 z "},"%":{"ha":577,"x_min":66,"x_max":548,"o":"m 384 296 l 386 301 l 444 301 q 503 299 500 301 q 508 259 506 293 q 507 209 509 226 q 505 202 506 208 q 505 196 505 197 q 503 187 503 188 l 519 185 l 521 185 q 541 184 540 185 q 546 144 545 178 q 545 94 548 111 q 544 87 545 92 q 543 80 543 81 q 541 71 542 72 q 521 69 539 69 q 503 68 501 69 q 508 9 508 58 q 502 -45 507 -39 q 443 -46 500 -46 l 385 -45 l 384 -40 q 379 14 379 -23 q 384 64 379 50 l 386 69 l 366 70 l 347 71 l 345 76 q 342 159 336 107 q 347 182 344 179 q 366 185 349 185 l 385 185 l 384 191 q 379 247 379 210 q 384 296 379 283 m 461 180 l 463 185 l 444 185 q 425 184 424 185 q 431 128 431 174 q 425 71 431 81 l 441 69 l 444 69 l 463 69 l 461 76 q 456 130 456 94 q 461 180 456 165 m 384 760 l 386 764 l 425 764 q 464 762 463 764 q 469 722 468 755 q 468 670 471 689 q 464 650 465 651 q 444 648 463 648 q 425 646 425 648 q 431 591 431 637 q 425 534 431 543 q 405 532 424 532 q 387 531 385 532 q 393 475 393 520 q 387 418 393 429 q 366 416 385 416 q 348 415 347 416 q 354 359 354 404 q 348 302 354 313 q 328 301 347 301 q 309 299 309 301 q 315 244 315 288 q 309 186 315 197 q 289 185 308 185 q 271 184 269 185 q 277 128 277 173 q 271 71 277 82 q 250 69 269 69 q 232 68 231 69 q 237 9 237 58 q 232 -45 237 -39 q 192 -46 231 -46 l 153 -45 l 152 -40 q 149 43 144 -11 q 154 66 151 64 q 174 69 157 69 l 193 69 l 191 76 q 188 159 182 106 q 193 182 190 179 q 212 185 195 185 l 231 185 l 229 191 q 226 275 220 223 q 231 298 228 295 q 250 301 233 301 l 270 301 l 268 307 q 264 391 259 339 q 269 414 267 411 q 289 416 272 416 l 309 416 l 307 423 q 303 506 298 455 q 308 529 305 526 q 328 532 311 532 l 347 532 l 345 538 q 342 622 336 570 q 347 645 344 642 q 366 648 349 648 l 385 648 l 384 654 q 379 710 379 673 q 384 760 379 747 m 114 760 l 116 764 l 174 764 q 232 762 231 764 q 237 723 235 756 q 237 672 239 689 q 235 666 236 671 q 235 659 235 661 q 233 650 233 650 q 250 648 231 648 q 271 646 269 648 q 276 607 274 640 q 275 556 278 573 q 274 549 275 555 q 273 543 273 544 q 271 534 272 535 q 250 532 269 532 q 232 531 231 532 q 237 473 237 522 q 232 418 237 424 q 173 417 231 417 l 115 418 l 113 423 q 109 477 109 441 q 114 527 109 513 l 115 532 l 96 533 l 77 533 l 75 538 q 72 622 66 570 q 77 645 74 642 q 96 648 79 648 l 115 648 l 114 654 q 109 710 109 673 q 114 760 109 747 m 191 643 l 193 648 l 174 648 q 155 646 155 648 q 161 591 161 637 q 155 534 161 543 q 174 532 154 532 l 193 532 l 191 538 q 186 593 186 557 q 191 643 186 629 z "},"&":{"ha":577,"x_min":66,"x_max":548,"o":"m 461 528 l 463 532 l 501 532 q 541 531 540 532 q 546 491 545 525 q 545 441 548 458 q 545 437 545 440 q 543 432 544 434 q 543 427 543 429 q 543 408 541 416 q 546 347 547 387 q 541 302 545 307 q 500 301 539 301 l 463 302 l 460 307 q 456 361 456 325 q 461 411 456 397 q 461 423 463 416 q 456 479 456 442 q 461 528 456 515 m 191 760 l 193 764 l 290 764 q 387 762 385 764 q 392 722 391 755 q 391 670 393 689 q 387 650 387 651 q 405 648 385 648 q 425 646 423 648 q 431 607 429 640 q 429 555 432 574 q 425 534 426 535 q 385 533 424 533 l 347 533 l 345 538 q 340 593 340 556 q 345 643 340 629 l 347 648 l 289 648 q 271 648 280 648 q 255 648 262 648 q 243 647 248 648 q 235 647 237 647 l 232 646 q 238 591 238 635 q 232 534 238 545 l 239 533 q 260 533 247 533 q 290 532 274 532 l 347 532 l 349 528 q 353 471 353 515 q 348 418 353 427 l 364 416 l 366 416 q 387 415 385 416 q 392 375 391 408 q 391 323 393 342 q 387 302 387 304 l 391 302 q 405 301 396 302 q 425 301 414 301 l 463 301 l 465 296 q 469 239 469 283 q 464 186 469 195 q 482 185 463 185 q 503 184 501 185 q 508 144 507 177 q 507 92 509 111 q 503 71 503 73 l 519 69 l 521 69 q 541 68 540 69 q 546 28 545 62 q 545 -22 548 -5 q 544 -30 545 -24 q 543 -36 543 -35 q 541 -45 542 -43 q 481 -46 539 -46 l 424 -45 l 422 -40 q 418 14 418 -23 q 422 64 418 50 q 422 76 424 69 q 418 130 418 94 q 422 180 418 165 l 424 185 l 405 185 q 387 184 385 185 q 393 128 393 173 q 387 71 393 82 q 366 69 385 69 q 348 68 347 69 q 353 9 353 58 q 348 -45 353 -39 q 250 -46 347 -46 l 153 -45 l 152 -40 q 148 14 147 -22 q 153 64 148 51 l 154 69 l 115 70 l 77 71 l 75 76 q 71 130 71 94 q 75 180 71 166 q 75 191 77 185 q 72 275 66 223 q 77 298 74 295 q 96 301 79 301 l 115 301 l 114 307 q 109 363 109 326 q 114 412 109 399 l 116 416 l 154 416 l 193 416 l 191 423 q 186 477 186 441 q 191 527 186 513 l 193 532 l 173 533 l 153 533 l 152 538 q 149 622 144 568 q 154 645 151 642 q 174 648 157 648 l 193 648 l 191 654 q 186 710 186 673 q 191 760 186 747 m 307 412 l 309 416 l 270 416 q 258 416 264 416 q 248 416 252 416 q 239 416 243 416 q 233 415 235 416 l 232 415 q 238 359 238 404 q 232 302 238 313 q 212 301 231 301 q 194 299 194 301 q 199 253 199 292 q 195 194 199 214 q 195 176 194 185 q 199 117 200 156 q 194 71 199 79 l 197 71 q 204 70 199 71 q 216 70 210 70 q 232 69 223 69 q 250 69 241 69 l 309 69 l 307 76 q 303 159 298 108 q 308 182 305 179 q 328 185 311 185 l 347 185 l 345 191 q 340 245 340 210 q 345 296 340 281 l 347 300 l 328 301 l 308 302 l 307 307 q 302 361 302 324 q 307 412 302 397 z "},"'":{"ha":577,"x_min":186,"x_max":393,"o":"m 269 876 l 270 880 l 328 880 q 387 878 385 880 q 392 839 390 872 q 391 788 393 805 q 389 781 390 787 q 389 774 389 776 q 387 766 387 766 q 347 764 385 764 q 335 764 341 764 q 325 763 330 764 q 316 763 320 763 q 311 762 313 763 l 309 762 q 315 704 315 753 q 309 650 315 655 q 250 648 308 648 l 192 649 l 191 654 q 186 710 186 672 q 191 760 186 747 l 193 764 l 231 764 l 270 764 l 268 770 q 263 826 263 789 q 269 876 264 863 z "},"(":{"ha":577,"x_min":182,"x_max":432,"o":"m 345 -51 l 347 -46 l 386 -46 q 425 -48 423 -46 q 431 -88 429 -55 q 429 -140 432 -121 q 425 -161 426 -159 q 385 -161 424 -161 l 347 -161 l 345 -156 q 340 -101 340 -138 q 345 -51 340 -63 m 269 760 l 270 764 l 309 764 l 347 764 l 349 760 q 353 702 353 746 q 348 650 353 658 q 328 648 347 648 q 309 646 309 648 q 315 600 314 639 q 311 541 315 561 q 311 524 310 532 q 315 474 315 506 q 311 425 315 442 q 311 408 310 416 q 315 359 315 391 q 311 310 315 327 q 311 292 310 301 q 315 234 315 273 q 310 187 315 195 q 310 184 309 186 q 311 179 310 182 q 315 121 315 162 q 309 71 314 79 l 326 69 l 328 69 q 348 68 347 69 q 353 42 351 64 q 354 4 355 21 q 348 -45 353 -40 q 308 -46 347 -46 l 269 -45 l 268 -40 q 263 14 263 -23 q 268 64 263 50 l 270 69 l 250 70 l 231 71 l 229 76 q 224 130 224 94 q 229 180 224 166 l 231 185 l 212 186 l 192 186 l 191 191 q 186 245 186 209 q 191 296 186 282 q 191 307 193 301 q 186 361 186 326 q 191 411 186 397 q 191 423 193 416 q 188 506 182 455 q 193 529 190 526 q 212 532 195 532 l 231 532 l 229 538 q 226 622 220 570 q 231 645 228 642 q 250 648 233 648 l 270 648 l 268 654 q 263 710 263 673 q 269 760 264 747 m 345 876 l 347 880 l 386 880 q 425 878 424 880 q 431 838 429 871 q 429 786 432 805 q 425 766 426 767 q 385 764 423 764 l 347 765 l 345 770 q 340 826 340 788 q 345 876 340 863 z "},")":{"ha":577,"x_min":186,"x_max":436,"o":"m 191 -51 l 193 -46 l 231 -46 l 270 -46 l 272 -51 q 277 -110 277 -64 q 271 -161 276 -155 q 231 -161 270 -161 l 192 -161 l 191 -156 q 186 -101 186 -138 q 191 -51 186 -63 m 269 760 l 270 764 l 309 764 q 348 762 347 764 q 353 722 352 755 q 352 670 355 689 q 348 650 349 651 q 366 648 347 648 q 387 646 385 648 q 392 607 391 640 q 391 555 393 574 q 387 534 387 535 q 405 532 385 532 q 425 531 424 532 q 427 523 426 530 q 427 425 436 476 q 427 408 425 418 q 431 359 431 391 q 427 310 431 327 q 427 292 426 301 q 431 233 432 272 q 425 186 431 194 q 405 185 424 185 l 386 185 l 388 179 q 392 121 393 162 q 387 71 391 79 q 366 69 385 69 q 348 68 347 69 q 353 9 353 58 q 348 -45 353 -39 q 308 -46 347 -46 l 269 -45 l 268 -40 q 264 43 259 -9 q 269 66 267 64 q 289 69 272 69 l 309 69 l 307 76 q 302 130 302 94 q 307 180 302 165 q 307 191 308 185 q 302 245 302 210 q 307 296 302 281 q 307 307 308 301 q 302 361 302 326 q 307 411 302 397 q 307 423 308 416 q 302 477 302 441 q 307 527 302 513 q 307 538 308 532 q 302 593 302 557 q 307 643 302 629 l 309 648 l 289 648 l 269 649 l 268 654 q 263 710 263 672 q 269 760 264 747 m 191 876 l 193 880 l 231 880 q 271 878 269 880 q 276 838 275 871 q 275 786 277 805 q 271 766 271 766 q 231 764 269 764 l 192 765 l 191 770 q 186 826 186 788 q 191 876 186 863 z "},"*":{"ha":577,"x_min":109,"x_max":509,"o":"m 384 296 l 386 301 l 444 301 q 503 299 500 301 q 508 259 506 293 q 507 209 509 226 q 505 202 506 207 q 505 196 505 197 q 502 186 503 188 q 443 186 501 186 l 385 186 l 384 191 q 379 247 379 209 q 384 296 379 284 m 114 296 l 116 301 l 174 301 l 231 301 l 233 296 q 238 237 239 283 q 232 186 237 192 q 173 186 231 186 l 115 186 l 113 191 q 109 247 109 209 q 114 296 109 284 m 384 528 l 386 532 l 444 532 q 503 531 501 532 q 508 491 506 525 q 507 441 509 458 q 505 434 506 439 q 505 427 505 429 q 502 418 503 420 q 443 417 500 417 l 385 418 l 384 423 q 379 478 379 441 q 384 528 379 516 m 114 528 l 116 532 l 174 532 q 232 531 231 532 q 237 491 235 525 q 237 441 239 458 q 235 434 236 439 q 235 427 235 429 q 232 418 233 420 q 173 417 231 417 l 115 418 l 113 423 q 109 478 109 441 q 114 528 109 516 m 269 644 l 270 648 l 309 648 q 348 646 346 648 q 350 638 349 646 q 350 541 359 590 q 350 524 349 532 q 354 465 355 503 q 348 418 353 426 l 364 416 l 366 416 q 372 416 368 416 q 385 416 382 416 q 388 412 387 416 q 392 371 391 404 q 391 324 393 338 q 390 321 391 323 q 389 316 390 319 q 389 312 389 313 q 387 302 387 303 q 366 301 385 301 q 348 299 348 301 q 353 253 353 292 q 350 194 354 214 q 350 176 349 185 q 354 116 355 155 q 348 71 353 76 q 308 70 347 70 l 269 71 l 268 76 q 263 130 263 94 q 268 180 263 166 q 268 191 269 185 q 263 245 263 210 q 268 296 263 281 l 270 300 l 250 301 l 231 302 l 229 307 q 226 391 220 338 q 231 414 228 411 q 250 416 233 416 l 270 416 l 268 423 q 263 477 263 441 q 268 527 263 513 q 268 538 269 532 q 263 594 263 557 q 269 644 264 631 z "},"+":{"ha":577,"x_min":109,"x_max":548,"o":"m 269 644 l 270 648 l 328 648 q 387 646 385 648 q 389 638 387 646 q 389 541 397 590 q 389 524 387 532 q 393 465 393 503 q 387 418 392 426 q 396 417 386 418 q 424 417 406 417 q 463 416 443 416 q 541 415 540 416 q 547 375 545 408 q 545 323 548 342 q 544 317 544 319 q 543 312 543 314 q 542 309 543 311 q 542 306 542 307 q 542 304 542 305 q 541 303 542 304 l 541 302 q 463 301 540 301 l 386 301 l 388 295 q 392 237 393 279 q 387 187 391 195 q 388 179 385 186 q 392 119 393 161 q 386 71 391 77 q 327 70 385 70 l 269 71 l 268 76 q 263 130 263 94 q 268 180 263 166 q 268 191 269 185 q 263 245 263 210 q 268 296 263 281 l 270 301 l 193 301 l 115 302 l 113 307 q 109 362 109 325 q 114 412 109 400 l 116 416 l 193 416 l 270 416 l 268 423 q 263 477 263 441 q 268 527 263 513 q 268 538 269 532 q 263 594 263 557 q 269 644 264 631 z "},",":{"ha":577,"x_min":147,"x_max":471,"o":"m 307 181 l 309 185 l 386 185 q 464 184 463 185 q 469 144 467 178 q 468 94 471 111 q 467 86 467 92 q 466 80 466 81 q 465 61 464 67 q 469 2 470 41 q 464 -45 469 -37 q 424 -46 463 -46 q 415 -46 420 -46 q 407 -46 411 -46 q 400 -47 404 -47 q 394 -47 397 -47 q 390 -47 392 -47 q 387 -47 388 -47 l 387 -48 q 393 -103 393 -59 q 387 -161 393 -150 q 347 -162 385 -162 q 335 -162 341 -162 q 325 -162 330 -162 q 316 -163 320 -163 q 311 -163 313 -163 l 309 -163 q 315 -221 315 -172 q 309 -276 315 -271 q 231 -277 308 -277 l 153 -277 l 152 -271 q 148 -216 147 -254 q 153 -166 148 -178 l 155 -162 l 193 -162 l 231 -162 l 229 -156 q 225 -101 224 -138 q 230 -51 225 -64 l 231 -46 l 270 -46 l 309 -46 l 307 -40 q 302 14 302 -22 q 307 64 302 50 q 307 76 308 69 q 302 131 302 94 q 307 181 302 168 z "},"-":{"ha":577,"x_min":147,"x_max":509,"o":"m 153 412 l 155 416 l 328 416 q 503 415 501 416 q 508 375 506 409 q 507 325 509 342 q 505 318 506 323 q 505 311 505 313 q 502 302 503 304 q 327 301 500 301 l 153 302 l 152 307 q 148 362 147 325 q 153 412 148 400 z "},".":{"ha":577,"x_min":224,"x_max":393,"o":"m 230 181 l 231 185 l 309 185 q 387 184 385 185 q 392 144 390 178 q 391 94 393 111 q 389 86 390 92 q 389 80 389 81 q 389 61 387 69 q 392 0 393 40 q 386 -45 391 -39 q 308 -46 385 -46 l 231 -45 l 229 -40 q 224 14 224 -23 q 229 64 224 50 q 230 76 231 71 q 225 132 225 95 q 230 181 225 168 z "},"/":{"ha":577,"x_min":105,"x_max":548,"o":"m 422 876 l 425 880 l 482 880 q 541 878 540 880 q 547 838 545 871 q 545 786 548 805 q 544 780 544 783 q 543 775 543 777 q 542 772 543 774 q 542 769 542 770 q 542 768 542 768 q 541 766 542 767 l 541 766 q 521 764 539 764 q 503 762 501 764 q 508 707 508 753 q 503 650 508 659 q 482 648 501 648 q 464 646 464 648 q 469 591 469 637 q 464 534 469 543 q 444 532 463 532 q 425 531 424 532 q 431 475 431 522 q 425 418 431 428 q 405 416 423 416 q 387 415 385 416 q 393 359 393 404 q 387 302 393 313 q 366 301 385 301 q 348 299 348 301 q 354 244 354 288 q 348 186 354 197 q 328 185 347 185 q 309 184 308 185 q 315 128 315 173 q 309 71 315 82 q 289 69 307 69 q 271 68 269 69 q 277 12 277 57 q 271 -45 277 -34 q 250 -46 269 -46 q 232 -48 232 -46 q 237 -106 237 -57 q 232 -161 237 -155 q 173 -161 231 -161 l 115 -161 l 113 -156 q 111 -73 105 -127 q 115 -49 113 -52 q 135 -46 118 -46 l 154 -46 l 153 -40 q 149 43 144 -8 q 154 66 151 64 q 174 69 157 69 l 193 69 l 191 76 q 188 159 182 106 q 193 182 190 179 q 212 185 195 185 l 231 185 l 229 191 q 226 275 220 223 q 231 298 228 295 q 250 301 233 301 l 270 301 l 268 307 q 264 391 259 339 q 269 414 267 411 q 289 416 272 416 l 309 416 l 307 423 q 303 506 298 455 q 308 529 305 526 q 328 532 311 532 l 347 532 l 345 538 q 342 622 336 570 q 347 645 344 642 q 366 648 349 648 l 385 648 l 384 654 q 380 738 375 686 q 385 761 382 758 q 405 764 388 764 l 424 764 l 422 770 q 418 826 418 789 q 422 876 418 863 z "},":":{"ha":577,"x_min":224,"x_max":393,"o":"m 230 181 l 231 185 l 309 185 q 387 184 385 185 q 392 144 390 178 q 391 94 393 111 q 389 86 390 92 q 389 80 389 81 q 389 61 387 69 q 392 0 393 40 q 386 -45 391 -39 q 308 -46 385 -46 l 231 -45 l 229 -40 q 224 14 224 -23 q 229 64 224 50 q 230 76 231 71 q 225 132 225 95 q 230 181 225 168 m 230 644 l 231 648 l 309 648 q 387 646 385 648 q 392 607 390 640 q 391 556 393 573 q 389 549 390 554 q 389 543 389 545 q 389 524 387 532 q 392 463 393 503 q 386 418 391 424 q 308 417 385 417 l 231 418 l 229 423 q 224 477 224 441 q 229 527 224 513 q 230 538 231 534 q 225 594 225 557 q 230 644 225 631 z "},";":{"ha":577,"x_min":109,"x_max":432,"o":"m 269 181 l 270 185 l 347 185 q 425 184 424 185 q 430 144 429 178 q 429 94 432 111 q 428 86 429 92 q 427 80 427 81 q 427 61 426 69 q 431 2 432 41 q 425 -45 431 -37 q 386 -46 424 -46 q 374 -46 380 -46 q 363 -46 368 -46 q 355 -47 359 -47 q 350 -47 351 -47 l 348 -48 q 354 -103 354 -59 q 348 -161 354 -150 q 309 -162 347 -162 q 297 -162 302 -162 q 286 -162 291 -162 q 278 -163 281 -163 q 273 -163 274 -163 l 271 -163 q 276 -221 276 -172 q 271 -276 276 -271 q 192 -277 269 -277 l 115 -277 l 113 -271 q 109 -216 109 -254 q 114 -166 109 -178 l 116 -162 l 154 -162 l 193 -162 l 191 -156 q 186 -101 186 -138 q 191 -51 186 -64 l 193 -46 l 231 -46 l 270 -46 l 268 -40 q 263 14 263 -22 q 268 64 263 50 q 268 76 269 69 q 263 131 263 94 q 269 181 264 168 m 269 644 l 270 648 l 347 648 q 425 646 423 648 q 430 607 429 640 q 429 556 432 573 q 428 549 429 554 q 427 543 427 545 q 427 524 426 532 q 431 463 432 503 q 425 418 430 424 q 347 417 423 417 l 269 418 l 268 423 q 263 477 263 441 q 268 527 263 513 q 268 538 269 532 q 263 594 263 557 q 269 644 264 631 z "},"<":{"ha":577,"x_min":147,"x_max":509,"o":"m 384 760 l 386 764 l 444 764 q 503 762 501 764 q 508 722 507 755 q 507 670 509 689 q 503 650 503 651 q 463 648 501 648 q 454 648 458 648 q 446 648 450 648 q 439 648 442 648 q 433 647 435 648 q 429 647 431 647 q 426 647 427 647 l 425 646 q 431 591 431 637 q 425 534 431 543 q 386 532 424 532 q 374 532 380 532 q 363 532 368 532 q 355 532 359 532 q 350 532 351 532 l 348 531 q 354 475 354 520 q 348 418 354 429 q 309 416 346 416 q 297 416 302 416 q 286 416 291 416 q 278 416 281 416 q 273 415 274 416 l 271 415 q 277 359 277 404 q 271 302 277 313 l 275 302 q 289 301 280 302 q 309 301 298 301 q 348 299 346 301 q 353 259 352 292 q 352 208 355 227 q 348 186 349 188 l 353 186 q 367 185 357 186 q 386 185 376 185 q 425 184 424 185 q 431 144 429 177 q 429 92 432 111 q 425 71 426 73 l 427 71 q 432 70 429 71 q 440 70 435 70 q 451 69 445 69 q 463 69 456 69 q 503 68 501 69 q 508 28 507 61 q 507 -24 509 -5 q 502 -45 503 -43 q 443 -46 500 -46 l 385 -45 l 384 -40 q 379 14 379 -23 q 384 64 379 51 l 386 69 l 347 70 l 308 71 l 307 76 q 302 130 302 94 q 307 180 302 166 l 309 185 l 270 186 l 231 186 l 229 191 q 224 245 224 209 q 229 296 224 282 l 231 301 l 193 301 l 153 302 l 152 307 q 148 362 147 325 q 153 412 148 400 l 155 416 l 193 416 l 231 416 l 229 423 q 225 478 224 441 q 230 528 225 515 l 231 532 l 270 532 l 309 532 l 307 538 q 302 594 302 557 q 307 644 302 631 l 309 648 l 347 648 l 385 648 l 384 654 q 379 710 379 673 q 384 760 379 747 z "},"=":{"ha":577,"x_min":147,"x_max":509,"o":"m 153 296 l 155 301 l 328 301 q 503 299 500 301 q 508 259 506 293 q 507 209 509 226 q 505 202 506 207 q 505 196 505 197 q 502 186 503 188 q 327 186 501 186 l 153 186 l 152 191 q 148 247 147 209 q 153 296 148 284 m 153 528 l 155 532 l 328 532 q 503 531 501 532 q 508 491 506 525 q 507 441 509 458 q 505 434 506 439 q 505 427 505 429 q 502 418 503 420 q 327 417 500 417 l 153 418 l 152 423 q 148 478 147 441 q 153 528 148 516 z "},">":{"ha":577,"x_min":109,"x_max":471,"o":"m 114 760 l 116 764 l 174 764 q 232 762 231 764 q 237 722 236 755 q 236 670 239 689 q 232 650 233 651 l 237 650 q 251 649 241 649 q 270 648 260 648 q 309 646 307 648 q 315 607 313 640 q 313 555 316 574 q 309 534 310 535 l 314 533 q 328 533 319 533 q 347 532 337 532 q 387 531 385 532 q 392 491 391 524 q 391 439 393 458 q 387 418 387 420 l 388 418 q 393 417 390 418 q 401 417 397 417 q 412 416 406 416 q 424 416 418 416 q 464 415 463 416 q 469 375 468 408 q 468 323 471 342 q 464 302 465 304 q 424 301 463 301 q 415 301 420 301 q 407 301 411 301 q 400 300 404 300 q 394 300 397 300 q 390 300 392 300 q 387 300 388 300 l 387 299 q 393 244 393 288 q 387 186 393 197 q 347 185 385 185 q 335 185 341 185 q 325 185 330 185 q 316 184 320 184 q 311 184 313 184 l 309 184 q 315 128 315 173 q 309 71 315 82 q 270 69 307 69 q 258 69 264 69 q 248 69 252 69 q 239 68 243 68 q 233 68 235 68 l 232 68 q 237 9 237 58 q 232 -45 237 -39 q 173 -46 231 -46 l 115 -45 l 113 -40 q 109 15 109 -22 q 114 65 109 53 l 116 69 l 154 69 l 193 69 l 191 76 q 186 131 186 94 q 191 181 186 168 l 193 185 l 231 185 l 270 185 l 268 191 q 263 247 263 210 q 269 296 264 283 l 270 301 l 309 301 l 347 301 l 345 307 q 340 361 340 326 q 345 412 340 397 l 347 416 l 308 417 l 269 418 l 268 423 q 263 477 263 441 q 268 527 263 513 l 270 532 l 231 533 l 192 533 l 191 538 q 186 593 186 556 q 191 643 186 629 l 193 648 l 154 648 l 115 649 l 113 654 q 109 710 109 672 q 114 760 109 747 z "},"?":{"ha":577,"x_min":109,"x_max":513,"o":"m 230 65 l 231 69 l 290 69 q 348 68 347 69 q 353 28 351 62 q 352 -22 355 -5 q 351 -30 351 -24 q 350 -36 350 -35 q 347 -45 349 -43 q 288 -46 346 -46 l 231 -45 l 229 -40 q 225 15 224 -22 q 230 65 225 53 m 191 760 l 193 764 l 328 764 q 464 762 463 764 q 469 722 468 755 q 468 670 471 689 q 464 650 465 651 q 482 648 463 648 q 503 646 500 648 q 505 638 503 646 q 504 541 513 591 q 504 524 503 532 q 508 465 509 503 q 503 418 507 426 q 463 416 500 416 q 444 416 452 416 q 430 415 435 416 l 425 415 q 431 359 431 406 q 425 302 431 312 q 386 301 424 301 q 374 301 380 301 q 363 301 368 301 q 355 300 359 300 q 350 300 351 300 l 348 299 q 353 241 353 290 q 348 186 353 192 q 288 186 347 186 l 231 186 l 229 191 q 225 247 224 209 q 230 296 225 284 l 231 301 l 270 301 l 309 301 l 307 307 q 302 362 302 326 q 307 412 302 399 l 309 416 l 347 416 l 385 416 l 384 423 q 379 477 379 441 q 384 527 379 513 q 384 538 385 532 q 379 593 379 557 q 384 643 379 629 l 386 648 l 309 648 q 270 648 289 648 q 241 647 252 648 q 232 646 231 647 q 237 588 237 637 q 232 534 237 539 q 173 533 231 533 l 115 533 l 113 538 q 109 594 109 556 q 114 644 109 631 l 116 648 l 154 648 l 193 648 l 191 654 q 186 710 186 673 q 191 760 186 747 z "},"@":{"ha":577,"x_min":66,"x_max":552,"o":"m 191 876 l 193 880 l 328 880 q 464 878 463 880 q 469 838 468 871 q 468 786 471 805 q 464 766 465 767 l 480 764 l 482 764 q 503 762 501 764 q 508 722 507 755 q 507 670 509 689 q 503 650 503 651 q 521 648 501 648 q 541 646 539 648 q 543 638 542 646 q 543 541 552 591 q 543 524 541 532 q 546 474 546 506 q 543 425 546 442 q 543 408 541 416 q 546 349 547 389 q 541 302 546 310 q 521 301 540 301 l 502 301 l 503 295 q 508 235 508 277 q 502 186 507 192 q 404 186 501 186 l 308 186 l 307 191 q 302 245 302 209 q 307 296 302 282 l 309 300 l 289 301 l 269 302 l 268 307 q 263 361 263 324 q 268 411 263 397 q 268 423 269 416 q 263 477 263 441 q 268 527 263 513 q 268 538 269 532 q 263 594 263 557 q 269 644 264 631 l 270 648 l 328 648 l 385 648 l 384 654 q 379 708 379 673 q 384 758 379 744 l 386 764 l 309 764 q 291 764 300 764 q 275 764 282 764 q 260 763 267 764 q 249 763 254 763 q 239 763 243 763 q 233 762 235 763 l 232 762 q 238 707 238 751 q 232 650 238 661 q 212 648 231 648 q 194 646 194 648 q 199 600 199 639 q 195 541 199 561 q 195 524 194 532 q 199 474 199 506 q 195 425 199 442 q 195 408 194 416 q 199 350 199 389 q 194 303 199 311 q 194 300 193 302 q 195 295 194 298 q 199 236 199 278 q 194 186 199 195 q 212 185 193 185 q 229 184 227 185 q 233 180 232 184 q 238 141 237 172 q 236 92 239 110 q 232 71 233 73 q 249 70 231 71 q 299 70 267 70 q 366 69 332 69 q 503 68 501 69 q 508 28 506 62 q 507 -22 509 -5 q 505 -30 506 -24 q 505 -36 505 -35 q 502 -45 503 -43 q 347 -46 500 -46 l 192 -45 l 191 -40 q 186 14 186 -22 q 191 64 186 51 l 193 69 l 154 70 l 115 71 l 113 76 q 109 130 109 94 q 114 180 109 166 l 115 185 l 96 186 l 77 186 l 75 191 q 71 245 71 209 q 75 296 71 282 q 75 307 77 301 q 71 361 71 326 q 75 411 71 397 q 75 423 77 416 q 71 477 71 441 q 75 527 71 513 q 75 538 77 532 q 72 622 66 570 q 77 645 74 642 q 96 648 79 648 l 115 648 l 114 654 q 109 710 109 673 q 114 760 109 747 l 116 764 l 154 764 l 193 764 l 191 770 q 186 826 186 789 q 191 876 186 863 m 422 527 l 424 532 l 386 532 q 374 532 380 532 q 363 532 368 532 q 355 532 359 532 q 350 532 351 532 l 348 531 q 353 484 353 524 q 350 425 354 445 q 350 408 349 416 q 354 349 355 388 q 348 302 353 310 l 353 302 q 366 301 357 302 q 385 301 375 301 l 424 301 l 422 307 q 418 361 418 326 q 422 411 418 397 q 422 423 424 416 q 418 477 418 441 q 422 527 418 513 z "},"A":{"ha":577,"x_min":66,"x_max":552,"o":"m 230 760 l 231 764 l 309 764 q 387 762 385 764 q 392 722 391 755 q 391 670 393 689 q 387 650 387 651 q 405 648 385 648 q 425 646 423 648 q 431 607 429 640 q 429 555 432 574 q 425 534 426 535 q 444 532 424 532 q 464 531 463 532 q 469 491 468 524 q 468 439 471 458 q 464 418 465 420 l 480 416 l 482 416 q 503 415 501 416 q 505 407 503 414 q 504 310 513 360 q 504 292 503 300 q 508 233 509 272 q 503 186 507 194 q 521 185 501 185 q 541 184 540 185 q 543 176 542 183 q 543 78 552 128 q 543 61 541 69 q 546 0 547 40 q 541 -45 545 -40 q 481 -46 539 -46 l 424 -45 l 422 -40 q 418 14 418 -23 q 422 64 418 50 q 422 76 424 69 q 418 130 418 94 q 422 180 418 165 l 424 185 l 309 185 q 282 185 295 185 q 258 185 269 185 q 237 185 247 185 q 219 184 227 184 q 205 184 211 184 q 197 184 199 184 l 194 184 q 199 137 199 176 q 195 78 199 98 q 195 61 194 69 q 199 0 200 40 q 193 -45 198 -40 q 134 -46 192 -46 l 77 -45 l 75 -40 q 71 14 71 -23 q 75 64 71 50 q 75 76 77 69 q 72 159 66 108 q 77 182 74 179 q 96 185 79 185 l 115 185 l 114 191 q 109 245 109 210 q 114 296 109 281 q 114 307 115 301 q 111 391 105 339 q 115 414 113 411 q 135 416 118 416 l 154 416 l 153 423 q 149 506 144 455 q 154 529 151 526 q 174 532 157 532 l 193 532 l 191 538 q 188 622 182 568 q 193 645 190 642 q 212 648 195 648 l 231 648 l 229 654 q 225 710 224 673 q 230 760 225 747 m 345 527 l 347 532 l 309 532 q 297 532 302 532 q 286 532 291 532 q 278 532 281 532 q 273 532 274 532 l 271 531 q 277 475 277 520 q 271 418 277 429 q 250 416 269 416 q 232 415 231 416 q 238 359 238 404 q 232 302 238 313 l 241 302 q 270 301 252 302 q 309 301 288 301 l 385 301 l 384 307 q 379 361 379 326 q 384 411 379 397 l 386 416 l 366 417 l 347 418 l 345 423 q 340 477 340 441 q 345 527 340 513 z "},"B":{"ha":577,"x_min":71,"x_max":552,"o":"m 75 760 l 77 764 l 290 764 q 503 762 501 764 q 508 722 507 755 q 507 670 509 689 q 503 650 503 651 q 521 648 501 648 q 541 646 539 648 q 543 638 542 646 q 543 541 552 591 q 543 524 541 532 q 547 465 547 503 q 541 418 546 426 q 501 416 539 416 q 482 416 491 416 q 469 415 473 416 l 464 415 q 469 359 469 406 q 464 302 469 312 l 469 302 q 482 301 473 302 q 501 301 491 301 q 541 299 539 301 q 546 259 545 293 q 545 209 548 226 q 544 203 545 208 q 543 196 543 198 q 543 176 541 185 q 547 117 547 156 q 541 71 546 79 q 521 69 539 69 q 503 68 501 69 q 508 9 508 58 q 502 -45 507 -39 q 288 -46 500 -46 l 77 -45 l 75 -40 q 71 14 71 -23 q 75 64 71 50 q 75 76 77 69 q 71 130 71 94 q 75 180 71 165 q 75 191 77 185 q 71 245 71 210 q 75 296 71 281 q 75 307 77 301 q 71 361 71 326 q 75 411 71 397 q 75 423 77 416 q 71 477 71 441 q 75 527 71 513 q 75 538 77 532 q 71 593 71 557 q 75 643 71 629 q 75 654 77 648 q 71 710 71 673 q 75 760 71 747 m 422 643 l 424 648 l 309 648 q 251 648 279 648 q 208 647 223 648 q 194 646 193 647 q 199 600 199 639 q 195 541 199 561 q 195 524 194 532 q 199 465 200 503 q 194 418 199 426 q 208 417 193 418 q 251 417 223 417 q 309 416 279 416 l 424 416 l 422 423 q 418 477 418 441 q 422 527 418 513 q 422 538 424 532 q 418 593 418 557 q 422 643 418 629 m 422 296 l 424 301 l 309 301 l 193 301 l 195 295 q 199 237 199 279 q 194 187 199 195 q 194 184 193 186 q 195 179 194 182 q 199 121 199 162 q 194 71 199 79 q 208 70 193 71 q 251 70 223 70 q 309 69 279 69 l 424 69 l 422 76 q 418 130 418 94 q 422 180 418 165 q 422 191 424 185 q 418 245 418 210 q 422 296 418 281 z "},"C":{"ha":577,"x_min":66,"x_max":548,"o":"m 191 760 l 193 764 l 328 764 q 464 762 463 764 q 469 722 468 755 q 468 670 471 689 q 464 650 465 651 l 469 650 q 482 649 473 649 q 501 648 491 648 q 541 646 539 648 q 547 607 545 640 q 545 555 548 574 q 541 534 542 535 q 481 533 540 533 l 424 533 l 422 538 q 418 593 418 556 q 422 643 418 629 l 424 648 l 328 648 q 280 648 303 648 q 244 647 256 648 q 232 646 231 647 q 238 591 238 635 q 232 534 238 545 q 212 532 231 532 q 194 531 193 532 q 199 484 199 524 q 195 425 199 445 q 195 408 194 416 q 199 359 199 391 q 195 310 199 327 q 195 292 194 301 q 199 233 200 272 q 194 186 199 194 q 212 185 193 185 q 232 184 231 185 q 237 144 236 177 q 236 92 239 111 q 232 71 233 73 q 244 70 231 71 q 280 70 256 70 q 328 69 303 69 l 424 69 l 422 76 q 418 132 418 95 q 422 181 418 168 l 425 185 l 482 185 q 541 184 540 185 q 547 144 545 177 q 545 92 548 111 q 544 85 544 88 q 543 81 543 83 q 542 78 543 79 q 542 75 542 76 q 542 73 542 74 q 541 72 542 73 l 541 71 q 501 69 539 69 q 482 69 491 69 q 469 68 473 68 l 464 68 q 469 9 469 58 q 463 -45 469 -39 q 327 -46 462 -46 l 192 -45 l 191 -40 q 186 14 186 -22 q 191 64 186 51 l 193 69 l 154 70 l 115 71 l 113 76 q 109 130 109 94 q 114 180 109 166 l 115 185 l 96 186 l 77 186 l 75 191 q 71 245 71 209 q 75 296 71 282 q 75 307 77 301 q 71 361 71 326 q 75 411 71 397 q 75 423 77 416 q 72 506 66 455 q 77 529 74 526 q 96 532 79 532 l 115 532 l 114 538 q 109 594 109 557 q 114 644 109 631 l 116 648 l 154 648 l 193 648 l 191 654 q 186 710 186 673 q 191 760 186 747 z "},"D":{"ha":577,"x_min":71,"x_max":552,"o":"m 75 760 l 77 764 l 251 764 q 425 762 424 764 q 431 722 429 755 q 429 670 432 689 q 425 650 426 651 l 430 650 q 444 649 435 649 q 463 648 452 648 q 503 646 500 648 q 508 607 507 640 q 507 555 509 574 q 503 534 503 535 q 521 532 501 532 q 541 531 540 532 q 543 523 542 530 q 543 425 552 476 q 543 408 541 416 q 546 359 546 391 q 543 310 546 327 q 543 292 541 301 q 547 233 547 272 q 541 186 546 194 q 521 185 540 185 l 502 185 l 503 179 q 508 121 508 162 q 503 71 507 79 q 463 69 500 69 q 444 69 452 69 q 430 68 435 68 l 425 68 q 430 9 431 58 q 425 -45 430 -39 q 250 -46 423 -46 l 77 -45 l 75 -40 q 71 14 71 -23 q 75 64 71 50 q 75 76 77 69 q 71 130 71 94 q 75 180 71 165 q 75 191 77 185 q 71 245 71 210 q 75 296 71 281 q 75 307 77 301 q 71 361 71 326 q 75 411 71 397 q 75 423 77 416 q 71 477 71 441 q 75 527 71 513 q 75 538 77 532 q 71 593 71 557 q 75 643 71 629 q 75 654 77 648 q 71 710 71 673 q 75 760 71 747 m 384 643 l 386 648 l 289 648 q 241 648 264 648 q 206 647 218 648 q 194 646 193 647 q 199 600 199 639 q 195 541 199 561 q 195 524 194 532 q 199 465 199 504 q 194 418 199 426 q 195 411 193 417 q 199 353 199 395 q 194 303 199 311 q 194 300 193 302 q 195 295 194 298 q 199 237 199 279 q 194 187 199 195 q 194 184 193 186 q 195 179 194 182 q 199 121 199 162 q 194 71 199 79 q 206 70 193 71 q 241 70 218 70 q 289 69 264 69 l 385 69 l 384 76 q 380 159 375 108 q 385 182 382 179 q 405 185 388 185 l 424 185 l 422 191 q 418 245 418 210 q 422 296 418 281 q 422 307 424 301 q 418 361 418 326 q 422 411 418 397 q 422 423 424 416 q 418 477 418 441 q 422 527 418 513 l 424 532 l 405 533 l 385 533 l 384 538 q 379 592 379 556 q 384 643 379 629 z "},"E":{"ha":577,"x_min":147,"x_max":509,"o":"m 153 760 l 155 764 l 328 764 q 503 762 501 764 q 508 722 507 755 q 507 670 509 689 q 503 650 503 651 q 386 648 501 648 q 328 648 356 648 q 285 647 300 648 q 271 646 270 647 q 276 600 275 639 q 273 541 277 561 q 273 524 271 532 q 277 465 277 503 q 271 418 276 426 q 285 417 270 418 q 328 417 300 417 q 386 416 356 416 q 503 415 501 416 q 508 375 507 408 q 507 323 509 342 q 503 302 503 304 q 386 301 501 301 l 271 301 l 272 295 q 276 237 277 279 q 271 187 276 195 q 271 184 271 186 q 272 179 271 182 q 276 121 277 162 q 271 71 275 79 q 285 70 270 71 q 328 70 300 70 q 386 69 356 69 q 503 68 501 69 q 508 28 506 62 q 507 -22 509 -5 q 505 -30 506 -24 q 505 -36 505 -35 q 502 -45 503 -43 q 327 -46 500 -46 l 153 -45 l 152 -40 q 148 14 147 -22 q 153 64 148 50 q 153 76 154 69 q 148 130 148 94 q 153 180 148 165 q 153 191 154 185 q 148 245 148 210 q 153 296 148 281 q 153 307 154 301 q 148 361 148 326 q 153 411 148 397 q 153 423 154 416 q 148 477 148 441 q 153 527 148 513 q 153 538 154 532 q 148 593 148 557 q 153 643 148 629 q 153 654 154 648 q 148 710 148 673 q 153 760 148 747 z "},"F":{"ha":577,"x_min":147,"x_max":509,"o":"m 153 760 l 155 764 l 328 764 q 503 762 501 764 q 508 722 507 755 q 507 670 509 689 q 503 650 503 651 q 386 648 501 648 q 328 648 356 648 q 285 647 300 648 q 271 646 270 647 q 276 600 275 639 q 273 541 277 561 q 273 524 271 532 q 277 465 277 503 q 271 418 276 426 q 285 417 270 418 q 328 417 300 417 q 386 416 356 416 q 503 415 501 416 q 508 375 507 408 q 507 323 509 342 q 503 302 503 304 q 386 301 501 301 l 271 301 l 272 295 q 276 237 277 279 q 271 187 276 195 q 271 184 271 186 q 272 179 271 182 q 276 121 277 163 q 271 71 276 79 q 272 64 270 70 q 276 3 277 46 q 271 -45 276 -39 q 211 -46 269 -46 l 153 -45 l 152 -40 q 148 14 147 -22 q 153 64 148 50 q 153 76 154 69 q 148 130 148 94 q 153 180 148 165 q 153 191 154 185 q 148 245 148 210 q 153 296 148 281 q 153 307 154 301 q 148 361 148 326 q 153 411 148 397 q 153 423 154 416 q 148 477 148 441 q 153 527 148 513 q 153 538 154 532 q 148 593 148 557 q 153 643 148 629 q 153 654 154 648 q 148 710 148 673 q 153 760 148 747 z "},"G":{"ha":577,"x_min":66,"x_max":552,"o":"m 191 760 l 193 764 l 328 764 q 464 762 463 764 q 469 722 468 755 q 468 670 471 689 q 464 650 465 651 l 469 650 q 482 649 473 649 q 501 648 491 648 q 541 646 539 648 q 547 607 545 640 q 545 555 548 574 q 541 534 542 535 q 481 533 540 533 l 424 533 l 422 538 q 418 593 418 556 q 422 643 418 629 l 424 648 l 328 648 q 280 648 303 648 q 244 647 256 648 q 232 646 231 647 q 238 591 238 635 q 232 534 238 545 q 212 532 231 532 q 194 531 193 532 q 199 484 199 524 q 195 425 199 445 q 195 408 194 416 q 199 359 199 391 q 195 310 199 327 q 195 292 194 301 q 199 233 200 272 q 194 186 199 194 q 212 185 193 185 q 232 184 231 185 q 237 144 236 177 q 236 92 239 111 q 232 71 233 73 q 244 70 231 71 q 280 70 256 70 q 328 69 303 69 l 424 69 l 422 76 q 418 130 418 94 q 422 180 418 165 q 422 191 424 185 q 418 245 418 210 q 422 296 418 281 l 424 301 l 385 301 l 347 302 l 345 307 q 340 362 340 324 q 345 412 340 400 l 347 416 l 444 416 q 541 415 540 416 q 543 407 542 414 q 543 310 552 360 q 543 292 541 300 q 546 243 546 275 q 543 194 546 212 q 543 176 541 185 q 547 117 547 156 q 541 71 546 79 q 501 69 539 69 q 482 69 491 69 q 469 68 473 68 l 464 68 q 469 9 469 58 q 463 -45 469 -39 q 327 -46 462 -46 l 192 -45 l 191 -40 q 186 14 186 -22 q 191 64 186 51 l 193 69 l 154 70 l 115 71 l 113 76 q 109 130 109 94 q 114 180 109 166 l 115 185 l 96 186 l 77 186 l 75 191 q 71 245 71 209 q 75 296 71 282 q 75 307 77 301 q 71 361 71 326 q 75 411 71 397 q 75 423 77 416 q 72 506 66 455 q 77 529 74 526 q 96 532 79 532 l 115 532 l 114 538 q 109 594 109 557 q 114 644 109 631 l 116 648 l 154 648 l 193 648 l 191 654 q 186 710 186 673 q 191 760 186 747 z "},"H":{"ha":577,"x_min":71,"x_max":552,"o":"m 75 760 l 77 764 l 135 764 q 194 762 193 764 q 196 754 195 762 q 195 657 205 707 q 195 640 194 648 q 199 590 199 622 q 195 541 199 559 q 195 524 194 532 q 199 465 200 503 q 194 418 199 426 q 208 417 193 418 q 251 417 223 417 q 309 416 279 416 l 424 416 l 422 423 q 418 477 418 441 q 422 527 418 513 q 422 538 424 532 q 418 593 418 557 q 422 643 418 629 q 422 654 424 648 q 418 710 418 673 q 422 760 418 747 l 425 764 l 482 764 q 541 762 540 764 q 543 754 542 762 q 543 657 552 707 q 543 640 541 648 q 546 590 546 622 q 543 541 546 559 q 543 524 541 532 q 546 474 546 506 q 543 425 546 442 q 543 408 541 416 q 546 350 547 389 q 541 303 546 311 q 541 300 541 302 q 542 295 541 298 q 546 237 547 279 q 541 187 546 195 q 541 184 541 186 q 542 179 541 182 q 546 121 547 163 q 541 71 546 79 q 542 64 540 70 q 546 3 547 46 q 541 -45 546 -39 q 481 -46 539 -46 l 424 -45 l 422 -40 q 418 14 418 -23 q 422 64 418 50 q 422 76 424 69 q 418 130 418 94 q 422 180 418 165 q 422 191 424 185 q 418 245 418 210 q 422 296 418 281 l 424 301 l 309 301 l 193 301 l 195 295 q 199 237 199 279 q 194 187 199 195 q 194 184 193 186 q 195 179 194 182 q 199 121 199 163 q 194 71 199 79 q 195 64 193 70 q 199 3 199 46 q 193 -45 199 -39 q 134 -46 192 -46 l 77 -45 l 75 -40 q 71 14 71 -23 q 75 64 71 50 q 75 76 77 69 q 71 130 71 94 q 75 180 71 165 q 75 191 77 185 q 71 245 71 210 q 75 296 71 281 q 75 307 77 301 q 71 361 71 326 q 75 411 71 397 q 75 423 77 416 q 71 477 71 441 q 75 527 71 513 q 75 538 77 532 q 71 593 71 557 q 75 643 71 629 q 75 654 77 648 q 71 710 71 673 q 75 760 71 747 z "},"I":{"ha":577,"x_min":186,"x_max":471,"o":"m 191 760 l 193 764 l 328 764 q 464 762 463 764 q 469 722 468 755 q 468 670 471 689 q 464 650 465 651 q 424 648 463 648 q 415 648 420 648 q 407 648 411 648 q 400 648 404 648 q 394 647 397 648 q 390 647 392 647 q 387 647 388 647 l 387 646 q 392 600 391 639 q 389 541 393 561 q 389 524 387 532 q 392 465 393 504 q 387 418 391 426 q 388 411 385 417 q 392 353 393 395 q 387 303 391 311 q 388 295 385 302 q 392 237 393 279 q 387 187 391 195 q 388 179 385 186 q 392 121 393 162 q 387 71 391 79 l 388 71 q 393 70 390 71 q 401 70 397 70 q 412 69 406 69 q 424 69 418 69 q 464 68 463 69 q 469 28 468 61 q 468 -24 471 -5 q 463 -45 465 -43 q 327 -46 462 -46 l 192 -45 l 191 -40 q 186 15 186 -22 q 191 65 186 53 l 193 69 l 231 69 l 270 69 l 268 76 q 263 130 263 94 q 268 180 263 165 q 268 191 269 185 q 263 245 263 210 q 268 296 263 281 q 268 307 269 301 q 263 361 263 326 q 268 411 263 397 q 268 423 269 416 q 263 477 263 441 q 268 527 263 513 q 268 538 269 532 q 263 593 263 557 q 268 643 263 629 l 270 648 l 231 648 l 192 649 l 191 654 q 186 710 186 672 q 191 760 186 747 z "},"J":{"ha":577,"x_min":71,"x_max":509,"o":"m 269 760 l 270 764 l 386 764 q 503 762 501 764 q 508 722 507 755 q 507 670 509 689 q 503 650 503 651 q 482 648 501 648 q 464 646 464 648 q 469 600 469 639 q 466 541 470 561 q 466 524 465 532 q 469 465 470 504 q 464 418 469 426 q 465 411 463 417 q 469 353 470 395 q 464 303 469 311 q 465 295 463 302 q 469 237 470 279 q 464 187 469 195 q 465 179 463 186 q 469 121 470 162 q 464 71 469 79 q 444 69 462 69 l 425 69 l 427 63 q 431 3 431 45 q 425 -45 430 -39 q 288 -46 423 -46 l 153 -45 l 152 -40 q 148 14 147 -22 q 153 64 148 51 l 154 69 l 115 70 l 77 71 l 75 76 q 71 131 71 94 q 75 181 71 169 l 77 185 l 135 185 q 194 184 193 185 q 199 144 197 178 q 198 94 201 111 q 197 87 197 92 q 196 80 196 81 q 194 71 195 72 l 197 71 q 208 70 201 71 q 224 70 215 70 q 245 69 233 69 q 270 69 257 69 l 347 69 l 345 76 q 340 130 340 94 q 345 180 340 165 q 345 191 347 185 q 340 245 340 210 q 345 296 340 281 q 345 307 347 301 q 340 361 340 326 q 345 411 340 397 q 345 423 347 416 q 340 477 340 441 q 345 527 340 513 q 345 538 347 532 q 340 593 340 557 q 345 643 340 629 l 347 648 l 308 648 l 269 649 l 268 654 q 263 710 263 672 q 269 760 264 747 z "},"K":{"ha":577,"x_min":109,"x_max":548,"o":"m 114 760 l 116 764 l 174 764 q 232 762 231 764 q 235 754 233 761 q 234 657 243 707 q 234 640 233 648 q 237 590 237 622 q 234 541 237 559 q 234 524 233 532 q 238 465 239 503 q 232 418 237 426 l 233 418 q 239 417 235 418 q 247 417 243 417 q 258 416 252 416 q 270 416 264 416 l 309 416 l 307 423 q 302 478 302 441 q 307 528 302 515 l 309 532 l 347 532 l 385 532 l 384 538 q 380 622 375 570 q 385 645 382 642 q 405 648 388 648 l 424 648 l 422 654 q 418 710 418 673 q 422 760 418 747 l 425 764 l 482 764 q 541 762 540 764 q 547 722 545 755 q 545 670 548 689 q 544 664 544 667 q 543 660 543 661 q 542 656 543 658 q 542 653 542 654 q 542 652 542 652 q 541 650 542 651 l 541 650 q 521 648 540 648 q 503 646 503 648 q 508 591 508 637 q 503 534 508 543 q 463 532 501 532 q 444 532 452 532 q 430 532 435 532 l 425 531 q 431 475 431 522 q 425 418 431 428 q 386 416 423 416 q 374 416 380 416 q 363 416 368 416 q 355 416 359 416 q 350 415 351 416 l 348 415 q 354 359 354 404 q 348 302 354 313 l 353 302 q 367 301 357 302 q 386 301 376 301 q 425 299 423 301 q 431 259 429 292 q 429 208 432 227 q 425 186 426 188 l 430 186 q 444 185 435 186 q 463 185 452 185 q 503 184 501 185 q 508 144 506 178 q 507 94 509 111 q 505 87 506 92 q 505 80 505 81 q 503 71 503 72 l 519 69 l 521 69 q 541 68 540 69 q 546 28 545 62 q 545 -22 548 -5 q 544 -30 545 -24 q 543 -36 543 -35 q 541 -45 542 -43 q 481 -46 539 -46 l 424 -45 l 422 -40 q 418 14 418 -23 q 422 64 418 50 l 424 69 l 405 70 l 385 71 l 384 76 q 379 130 379 94 q 384 180 379 165 l 386 185 l 347 186 l 308 186 l 307 191 q 302 245 302 209 q 307 296 302 282 l 309 301 l 270 301 l 232 301 l 233 295 q 238 237 238 279 q 233 187 237 195 q 232 184 232 186 q 233 179 233 182 q 238 121 238 163 q 233 71 237 79 q 233 64 231 70 q 238 3 238 46 q 232 -45 237 -39 q 173 -46 231 -46 l 115 -45 l 113 -40 q 109 14 109 -22 q 114 64 109 50 q 114 76 115 69 q 109 130 109 94 q 114 180 109 165 q 114 191 115 185 q 109 245 109 210 q 114 296 109 281 q 114 307 115 301 q 109 361 109 326 q 114 411 109 397 q 114 423 115 416 q 109 477 109 441 q 114 527 109 513 q 114 538 115 532 q 109 593 109 557 q 114 643 109 629 q 114 654 115 648 q 109 710 109 673 q 114 760 109 747 z "},"L":{"ha":577,"x_min":109,"x_max":509,"o":"m 114 760 l 116 764 l 174 764 q 232 762 231 764 q 235 754 233 761 q 234 657 243 707 q 234 640 233 648 q 237 590 237 622 q 234 541 237 559 q 234 524 233 532 q 237 474 237 506 q 234 425 237 442 q 234 408 233 416 q 238 350 238 389 q 233 303 237 311 q 232 300 232 302 q 233 295 233 298 q 238 237 238 279 q 233 187 237 195 q 232 184 232 186 q 233 179 233 182 q 237 121 238 162 q 232 71 237 79 q 249 70 231 71 q 299 70 267 70 q 366 69 332 69 q 503 68 501 69 q 508 28 506 62 q 507 -22 509 -5 q 505 -30 506 -24 q 505 -36 505 -35 q 502 -45 503 -43 q 308 -46 500 -46 l 115 -45 l 113 -40 q 109 14 109 -22 q 114 64 109 50 q 114 76 115 69 q 109 130 109 94 q 114 180 109 165 q 114 191 115 185 q 109 245 109 210 q 114 296 109 281 q 114 307 115 301 q 109 361 109 326 q 114 411 109 397 q 114 423 115 416 q 109 477 109 441 q 114 527 109 513 q 114 538 115 532 q 109 593 109 557 q 114 643 109 629 q 114 654 115 648 q 109 710 109 673 q 114 760 109 747 z "},"M":{"ha":577,"x_min":71,"x_max":552,"o":"m 75 760 l 77 764 l 154 764 q 232 762 231 764 q 237 722 236 755 q 236 670 239 689 q 232 650 233 651 q 250 648 231 648 q 271 646 269 648 q 273 638 272 645 q 273 541 282 591 q 273 524 271 532 q 277 465 277 503 q 271 418 276 426 l 273 418 q 278 417 274 418 q 286 417 281 417 q 296 416 290 416 q 309 416 302 416 l 347 416 l 345 423 q 340 477 340 441 q 345 527 340 513 q 345 538 347 532 q 342 622 336 570 q 347 645 344 642 q 366 648 349 648 l 385 648 l 384 654 q 379 710 379 673 q 384 760 379 747 l 386 764 l 463 764 q 541 762 540 764 q 543 754 542 762 q 543 657 552 707 q 543 640 541 648 q 546 590 546 622 q 543 541 546 559 q 543 524 541 532 q 546 465 547 504 q 541 418 546 426 q 542 411 540 417 q 546 353 547 395 q 541 303 546 311 q 541 300 541 302 q 542 295 541 298 q 546 237 547 279 q 541 187 546 195 q 541 184 541 186 q 542 179 541 182 q 546 121 547 163 q 541 71 546 79 q 542 64 540 70 q 546 3 547 46 q 541 -45 546 -39 q 481 -46 539 -46 l 424 -45 l 422 -40 q 418 14 418 -23 q 422 64 418 50 q 422 76 424 69 q 418 130 418 94 q 422 180 418 165 q 422 191 424 185 q 418 245 418 210 q 422 296 418 281 q 422 307 424 301 q 418 361 418 326 q 422 411 418 397 q 422 423 424 416 q 418 477 418 441 q 422 527 418 513 l 424 532 l 405 532 q 387 531 385 532 q 392 484 391 524 q 389 425 393 445 q 389 408 387 416 q 393 349 393 388 q 387 302 392 310 q 366 301 385 301 q 348 299 348 301 q 353 253 353 292 q 350 194 354 214 q 350 176 349 185 q 354 116 355 155 q 348 71 353 76 q 308 70 347 70 l 269 71 l 268 76 q 263 130 263 94 q 268 180 263 166 q 268 191 269 185 q 263 245 263 210 q 268 296 263 281 l 270 300 l 250 301 l 231 302 l 229 307 q 224 361 224 324 q 229 411 224 397 q 230 423 231 418 q 225 477 225 441 q 229 527 224 513 l 231 532 l 212 532 q 194 531 193 532 q 199 475 199 522 q 194 418 199 427 q 195 411 193 417 q 199 353 199 395 q 194 303 199 311 q 194 300 193 302 q 195 295 194 298 q 199 237 199 279 q 194 187 199 195 q 194 184 193 186 q 195 179 194 182 q 199 121 199 163 q 194 71 199 79 q 195 64 193 70 q 199 3 199 46 q 193 -45 199 -39 q 134 -46 192 -46 l 77 -45 l 75 -40 q 71 14 71 -23 q 75 64 71 50 q 75 76 77 69 q 71 130 71 94 q 75 180 71 165 q 75 191 77 185 q 71 245 71 210 q 75 296 71 281 q 75 307 77 301 q 71 361 71 326 q 75 411 71 397 q 75 423 77 416 q 71 477 71 441 q 75 527 71 513 q 75 538 77 532 q 71 593 71 557 q 75 643 71 629 q 75 654 77 648 q 71 710 71 673 q 75 760 71 747 z "},"N":{"ha":577,"x_min":71,"x_max":552,"o":"m 75 760 l 77 764 l 135 764 q 194 762 193 764 q 199 722 198 755 q 197 670 201 689 q 196 664 197 667 q 196 660 196 661 q 195 656 195 658 q 195 653 195 654 q 195 652 195 652 q 194 650 195 651 l 194 650 q 212 648 193 648 q 232 646 230 648 q 237 607 236 640 q 236 555 239 574 q 232 534 233 535 l 237 533 q 251 533 241 533 q 270 532 260 532 q 309 531 308 532 q 315 491 313 524 q 313 439 316 458 q 309 418 310 420 l 326 416 l 328 416 q 348 415 347 416 q 353 375 352 408 q 352 323 355 342 q 348 302 349 304 l 353 302 q 366 301 357 302 q 385 301 375 301 l 424 301 l 422 307 q 418 361 418 326 q 422 411 418 397 q 422 423 424 416 q 418 477 418 441 q 422 527 418 513 q 422 538 424 532 q 418 593 418 557 q 422 643 418 629 q 422 654 424 648 q 418 710 418 673 q 422 760 418 747 l 425 764 l 482 764 q 541 762 540 764 q 543 754 542 762 q 543 657 552 707 q 543 640 541 648 q 546 590 546 622 q 543 541 546 559 q 543 524 541 532 q 546 474 546 506 q 543 425 546 442 q 543 408 541 416 q 546 350 547 389 q 541 303 546 311 q 541 300 541 302 q 542 295 541 298 q 546 237 547 279 q 541 187 546 195 q 541 184 541 186 q 542 179 541 182 q 546 121 547 163 q 541 71 546 79 q 542 64 540 70 q 546 3 547 46 q 541 -45 546 -39 q 481 -46 539 -46 l 424 -45 l 422 -40 q 418 14 418 -23 q 422 64 418 51 l 424 69 l 385 70 l 347 71 l 345 76 q 340 130 340 94 q 345 180 340 166 l 347 185 l 328 186 l 308 186 l 307 191 q 302 245 302 209 q 307 296 302 281 l 309 301 l 270 301 l 231 302 l 229 307 q 224 361 224 324 q 229 411 224 397 l 231 416 l 212 416 l 193 416 l 195 410 q 199 353 199 394 q 194 303 199 311 q 194 300 193 302 q 195 295 194 298 q 199 237 199 279 q 194 187 199 195 q 194 184 193 186 q 195 179 194 182 q 199 121 199 163 q 194 71 199 79 q 195 64 193 70 q 199 3 199 46 q 193 -45 199 -39 q 134 -46 192 -46 l 77 -45 l 75 -40 q 71 14 71 -23 q 75 64 71 50 q 75 76 77 69 q 71 130 71 94 q 75 180 71 165 q 75 191 77 185 q 71 245 71 210 q 75 296 71 281 q 75 307 77 301 q 71 361 71 326 q 75 411 71 397 q 75 423 77 416 q 71 477 71 441 q 75 527 71 513 q 75 538 77 532 q 71 593 71 557 q 75 643 71 629 q 75 654 77 648 q 71 710 71 673 q 75 760 71 747 z "},"O":{"ha":577,"x_min":66,"x_max":552,"o":"m 191 760 l 193 764 l 309 764 q 425 762 424 764 q 431 722 429 755 q 429 670 432 689 q 425 650 426 651 l 430 650 q 444 649 435 649 q 463 648 452 648 q 503 646 500 648 q 508 607 507 640 q 507 555 509 574 q 503 534 503 535 q 521 532 501 532 q 541 531 540 532 q 543 523 542 530 q 543 425 552 476 q 543 408 541 416 q 546 359 546 391 q 543 310 546 327 q 543 292 541 301 q 547 233 547 272 q 541 186 546 194 q 521 185 540 185 l 502 185 l 503 179 q 508 121 508 162 q 503 71 507 79 q 463 69 500 69 q 444 69 452 69 q 430 68 435 68 l 425 68 q 430 9 431 58 q 425 -45 430 -39 q 308 -46 423 -46 l 192 -45 l 191 -40 q 186 14 186 -22 q 191 64 186 51 l 193 69 l 154 70 l 115 71 l 113 76 q 109 130 109 94 q 114 180 109 166 l 115 185 l 96 186 l 77 186 l 75 191 q 71 245 71 209 q 75 296 71 282 q 75 307 77 301 q 71 361 71 326 q 75 411 71 397 q 75 423 77 416 q 72 506 66 455 q 77 529 74 526 q 96 532 79 532 l 115 532 l 114 538 q 109 594 109 557 q 114 644 109 631 l 116 648 l 154 648 l 193 648 l 191 654 q 186 710 186 673 q 191 760 186 747 m 384 643 l 386 648 l 309 648 q 270 648 289 648 q 241 647 252 648 q 232 646 231 647 q 238 591 238 635 q 232 534 238 545 q 212 532 231 532 q 194 531 193 532 q 199 484 199 524 q 195 425 199 445 q 195 408 194 416 q 199 359 199 391 q 195 310 199 327 q 195 292 194 301 q 199 233 200 272 q 194 186 199 194 q 212 185 193 185 q 232 184 231 185 q 237 144 236 177 q 236 92 239 111 q 232 71 233 73 q 241 70 231 71 q 270 70 252 70 q 309 69 289 69 l 385 69 l 384 76 q 380 159 375 108 q 385 182 382 179 q 405 185 388 185 l 424 185 l 422 191 q 418 245 418 210 q 422 296 418 281 q 422 307 424 301 q 418 361 418 326 q 422 411 418 397 q 422 423 424 416 q 418 477 418 441 q 422 527 418 513 l 424 532 l 405 533 l 385 533 l 384 538 q 379 592 379 556 q 384 643 379 629 z "},"P":{"ha":577,"x_min":109,"x_max":552,"o":"m 114 760 l 116 764 l 290 764 q 464 762 463 764 q 469 722 468 755 q 468 670 471 689 q 464 650 465 651 l 469 650 q 482 649 473 649 q 501 648 491 648 q 541 646 539 648 q 543 638 542 646 q 543 541 552 591 q 543 524 541 532 q 547 465 547 503 q 541 418 546 426 q 501 416 539 416 q 482 416 491 416 q 469 415 473 416 l 464 415 q 469 359 469 406 q 464 302 469 312 q 347 301 463 301 l 232 301 l 233 295 q 238 237 238 279 q 233 187 237 195 q 232 184 232 186 q 233 179 233 182 q 238 121 238 163 q 233 71 237 79 q 233 64 231 70 q 238 3 238 46 q 232 -45 237 -39 q 173 -46 231 -46 l 115 -45 l 113 -40 q 109 14 109 -22 q 114 64 109 50 q 114 76 115 69 q 109 130 109 94 q 114 180 109 165 q 114 191 115 185 q 109 245 109 210 q 114 296 109 281 q 114 307 115 301 q 109 361 109 326 q 114 411 109 397 q 114 423 115 416 q 109 477 109 441 q 114 527 109 513 q 114 538 115 532 q 109 593 109 557 q 114 643 109 629 q 114 654 115 648 q 109 710 109 673 q 114 760 109 747 m 422 643 l 424 648 l 328 648 q 280 648 303 648 q 244 647 256 648 q 232 646 231 647 q 237 600 237 639 q 234 541 238 561 q 234 524 233 532 q 238 465 239 503 q 232 418 237 426 q 244 417 231 418 q 280 417 256 417 q 328 416 303 416 l 424 416 l 422 423 q 418 477 418 441 q 422 527 418 513 q 422 538 424 532 q 418 593 418 557 q 422 643 418 629 z "},"Q":{"ha":577,"x_min":66,"x_max":552,"o":"m 191 760 l 193 764 l 309 764 q 425 762 424 764 q 431 722 429 755 q 429 670 432 689 q 425 650 426 651 l 430 650 q 444 649 435 649 q 463 648 452 648 q 503 646 500 648 q 508 607 507 640 q 507 555 509 574 q 503 534 503 535 q 521 532 501 532 q 541 531 540 532 q 543 523 542 530 q 543 425 552 476 q 543 408 541 416 q 546 359 546 391 q 543 310 546 327 q 543 292 541 301 q 547 233 547 272 q 541 186 546 194 q 521 185 540 185 l 502 185 l 503 179 q 508 121 508 162 q 503 71 507 79 q 463 69 500 69 q 444 69 452 69 q 430 68 435 68 l 425 68 q 431 12 431 58 q 425 -45 431 -35 q 444 -46 424 -46 q 464 -48 462 -46 q 469 -87 468 -55 q 468 -140 471 -120 q 464 -161 465 -159 q 482 -162 463 -162 q 503 -163 501 -162 q 508 -204 507 -170 q 507 -254 510 -239 q 505 -261 506 -256 q 505 -267 505 -266 q 502 -276 503 -275 q 462 -277 500 -277 l 424 -277 l 422 -271 q 418 -217 418 -254 q 422 -168 418 -181 l 424 -162 l 405 -161 l 385 -161 l 384 -156 q 379 -102 379 -138 q 384 -52 379 -66 l 386 -46 l 289 -46 l 192 -45 l 191 -40 q 186 14 186 -22 q 191 64 186 51 l 193 69 l 154 70 l 115 71 l 113 76 q 109 130 109 94 q 114 180 109 166 l 115 185 l 96 186 l 77 186 l 75 191 q 71 245 71 209 q 75 296 71 282 q 75 307 77 301 q 71 361 71 326 q 75 411 71 397 q 75 423 77 416 q 72 506 66 455 q 77 529 74 526 q 96 532 79 532 l 115 532 l 114 538 q 109 594 109 557 q 114 644 109 631 l 116 648 l 154 648 l 193 648 l 191 654 q 186 710 186 673 q 191 760 186 747 m 384 643 l 386 648 l 309 648 q 270 648 289 648 q 241 647 252 648 q 232 646 231 647 q 238 591 238 635 q 232 534 238 545 q 212 532 231 532 q 194 531 193 532 q 199 484 199 524 q 195 425 199 445 q 195 408 194 416 q 199 359 199 391 q 195 310 199 327 q 195 292 194 301 q 199 233 200 272 q 194 186 199 194 q 212 185 193 185 q 232 184 231 185 q 237 144 236 177 q 236 92 239 111 q 232 71 233 73 l 233 71 q 239 70 235 71 q 247 70 243 70 q 258 69 252 69 q 270 69 264 69 l 309 69 l 307 76 q 302 130 302 94 q 307 180 302 165 l 309 185 l 289 186 l 269 186 l 268 191 q 263 247 263 209 q 269 296 264 284 l 270 301 l 328 301 q 387 299 385 301 q 392 259 391 292 q 391 208 393 227 q 387 186 387 188 q 405 185 385 185 l 424 185 l 422 191 q 418 245 418 210 q 422 296 418 281 q 422 307 424 301 q 418 361 418 326 q 422 411 418 397 q 422 423 424 416 q 418 477 418 441 q 422 527 418 513 l 424 532 l 405 533 l 385 533 l 384 538 q 379 592 379 556 q 384 643 379 629 z "},"R":{"ha":577,"x_min":71,"x_max":548,"o":"m 75 760 l 77 764 l 270 764 q 464 762 463 764 q 469 722 468 755 q 468 670 471 689 q 464 650 465 651 l 469 650 q 482 649 473 649 q 501 648 491 648 q 541 646 539 648 q 547 607 545 640 q 545 555 548 574 q 543 543 543 548 q 542 536 542 538 q 541 534 541 534 q 521 532 540 532 q 503 531 501 532 q 508 475 508 522 q 503 418 508 428 q 463 416 500 416 q 444 416 452 416 q 430 415 435 416 l 425 415 q 431 359 431 406 q 425 302 431 312 q 444 301 424 301 q 463 298 460 301 q 468 277 466 296 q 469 223 471 254 q 464 186 467 193 q 482 185 463 185 q 503 184 501 185 q 508 144 506 178 q 507 94 509 111 q 505 87 506 92 q 505 80 505 81 q 503 71 503 72 l 519 69 l 521 69 q 541 68 540 69 q 546 28 545 62 q 545 -22 548 -5 q 544 -30 545 -24 q 543 -36 543 -35 q 541 -45 542 -43 q 481 -46 539 -46 l 424 -45 l 422 -40 q 418 14 418 -23 q 422 64 418 50 l 424 69 l 405 70 l 385 71 l 384 76 q 379 130 379 94 q 384 180 379 166 l 386 185 l 366 186 l 347 186 l 345 191 q 340 245 340 209 q 345 296 340 281 l 347 301 l 270 301 l 193 301 l 195 295 q 199 237 199 279 q 194 187 199 195 q 194 184 193 186 q 195 179 194 182 q 199 121 199 163 q 194 71 199 79 q 195 64 193 70 q 199 3 199 46 q 193 -45 199 -39 q 134 -46 192 -46 l 77 -45 l 75 -40 q 71 14 71 -23 q 75 64 71 50 q 75 76 77 69 q 71 130 71 94 q 75 180 71 165 q 75 191 77 185 q 71 245 71 210 q 75 296 71 281 q 75 307 77 301 q 71 361 71 326 q 75 411 71 397 q 75 423 77 416 q 71 477 71 441 q 75 527 71 513 q 75 538 77 532 q 71 593 71 557 q 75 643 71 629 q 75 654 77 648 q 71 710 71 673 q 75 760 71 747 m 384 643 l 386 648 l 289 648 q 241 648 264 648 q 206 647 218 648 q 194 646 193 647 q 199 600 199 639 q 195 541 199 561 q 195 524 194 532 q 199 465 200 503 q 194 418 199 426 q 206 417 193 418 q 241 417 218 417 q 289 416 264 416 l 385 416 l 384 423 q 379 477 379 441 q 384 527 379 513 q 384 538 385 532 q 379 593 379 557 q 384 643 379 629 z "},"S":{"ha":577,"x_min":71,"x_max":548,"o":"m 153 760 l 155 764 l 309 764 q 464 762 463 764 q 469 722 468 755 q 468 670 471 689 q 464 650 465 651 l 469 650 q 482 649 473 649 q 501 648 491 648 q 541 646 539 648 q 547 607 545 640 q 545 555 548 574 q 541 534 542 535 q 481 533 540 533 l 424 533 l 422 538 q 418 593 418 556 q 422 643 418 629 l 424 648 l 309 648 q 251 648 279 648 q 208 647 223 648 q 194 646 193 647 q 199 600 199 639 q 195 541 199 561 q 195 524 194 532 q 199 465 200 503 q 194 418 199 426 q 211 417 193 418 q 260 417 228 417 q 328 416 293 416 q 464 415 463 416 q 469 375 468 408 q 468 323 471 342 q 464 302 465 304 l 469 302 q 482 301 473 302 q 501 301 491 301 q 541 299 539 301 q 546 259 545 293 q 545 209 548 226 q 544 203 545 208 q 543 196 543 198 q 543 176 541 185 q 547 117 547 156 q 541 71 546 79 q 501 69 539 69 q 482 69 491 69 q 469 68 473 68 l 464 68 q 469 9 469 58 q 463 -45 469 -39 q 308 -46 462 -46 l 153 -45 l 152 -40 q 148 14 147 -22 q 153 64 148 51 l 154 69 l 115 70 l 77 71 l 75 76 q 71 131 71 94 q 75 181 71 169 l 77 185 l 135 185 q 194 184 193 185 q 199 144 198 177 q 197 92 201 111 q 196 85 197 88 q 196 81 196 83 q 195 78 195 79 q 195 75 195 76 q 195 73 195 74 q 194 72 195 73 l 194 71 q 208 70 193 71 q 251 70 223 70 q 309 69 279 69 l 424 69 l 422 76 q 418 130 418 94 q 422 180 418 165 q 422 191 424 185 q 418 245 418 210 q 422 296 418 281 l 424 301 l 289 301 l 153 302 l 152 307 q 148 361 147 325 q 153 412 148 398 l 154 416 l 115 417 l 77 418 l 75 423 q 71 477 71 441 q 75 527 71 513 q 75 538 77 532 q 71 594 71 557 q 75 644 71 631 l 77 648 l 115 648 l 154 648 l 153 654 q 148 710 148 673 q 153 760 148 747 z "},"T":{"ha":577,"x_min":109,"x_max":548,"o":"m 114 760 l 116 764 l 328 764 q 541 762 540 764 q 547 722 545 755 q 545 670 548 689 q 544 664 544 667 q 543 660 543 661 q 542 656 543 658 q 542 653 542 654 q 542 652 542 652 q 541 650 542 651 l 541 650 q 463 648 540 648 q 424 648 443 648 q 396 647 406 648 q 387 646 386 647 q 392 600 391 639 q 389 541 393 561 q 389 524 387 532 q 392 465 393 504 q 387 418 391 426 q 388 411 385 417 q 392 353 393 395 q 387 303 391 311 q 388 295 385 302 q 392 237 393 279 q 387 187 391 195 q 388 179 385 186 q 392 121 393 163 q 387 71 391 79 q 388 64 385 70 q 392 3 393 46 q 386 -45 391 -39 q 327 -46 385 -46 l 269 -45 l 268 -40 q 263 14 263 -23 q 268 64 263 50 q 268 76 269 69 q 263 130 263 94 q 268 180 263 165 q 268 191 269 185 q 263 245 263 210 q 268 296 263 281 q 268 307 269 301 q 263 361 263 326 q 268 411 263 397 q 268 423 269 416 q 263 477 263 441 q 268 527 263 513 q 268 538 269 532 q 263 593 263 557 q 268 643 263 629 l 270 648 l 193 648 l 115 649 l 113 654 q 109 710 109 672 q 114 760 109 747 z "},"U":{"ha":577,"x_min":71,"x_max":552,"o":"m 75 760 l 77 764 l 135 764 q 194 762 193 764 q 196 754 195 762 q 195 657 205 707 q 195 640 194 648 q 199 590 199 622 q 195 541 199 559 q 195 524 194 532 q 199 474 199 506 q 195 425 199 442 q 195 408 194 416 q 199 350 199 389 q 194 303 199 311 q 194 300 193 302 q 195 295 194 298 q 199 237 199 279 q 194 187 199 195 q 194 184 193 186 q 195 179 194 182 q 199 121 199 162 q 194 71 199 79 q 208 70 193 71 q 251 70 223 70 q 309 69 279 69 l 424 69 l 422 76 q 418 130 418 94 q 422 180 418 165 q 422 191 424 185 q 418 245 418 210 q 422 296 418 281 q 422 307 424 301 q 418 361 418 326 q 422 411 418 397 q 422 423 424 416 q 418 477 418 441 q 422 527 418 513 q 422 538 424 532 q 418 593 418 557 q 422 643 418 629 q 422 654 424 648 q 418 710 418 673 q 422 760 418 747 l 425 764 l 482 764 q 541 762 540 764 q 543 754 542 762 q 543 657 552 707 q 543 640 541 648 q 546 590 546 622 q 543 541 546 559 q 543 524 541 532 q 546 474 546 506 q 543 425 546 442 q 543 408 541 416 q 546 350 547 389 q 541 303 546 311 q 541 300 541 302 q 542 295 541 298 q 546 237 547 279 q 541 187 546 195 q 541 184 541 186 q 542 179 541 182 q 546 121 547 162 q 541 71 546 79 q 501 69 539 69 q 482 69 491 69 q 469 68 473 68 l 464 68 q 469 9 469 58 q 463 -45 469 -39 q 308 -46 462 -46 l 153 -45 l 152 -40 q 148 14 147 -22 q 153 64 148 51 l 154 69 l 115 70 l 77 71 l 75 76 q 71 130 71 94 q 75 180 71 166 q 75 191 77 185 q 71 245 71 210 q 75 296 71 281 q 75 307 77 301 q 71 361 71 326 q 75 411 71 397 q 75 423 77 416 q 71 477 71 441 q 75 527 71 513 q 75 538 77 532 q 71 593 71 557 q 75 643 71 629 q 75 654 77 648 q 71 710 71 673 q 75 760 71 747 z "},"V":{"ha":577,"x_min":109,"x_max":552,"o":"m 114 760 l 116 764 l 174 764 q 232 762 231 764 q 235 754 233 761 q 234 657 243 707 q 234 640 233 648 q 237 590 237 622 q 234 541 237 559 q 234 524 233 532 q 238 465 239 503 q 232 418 237 426 l 248 416 l 250 416 q 271 415 269 416 q 276 376 275 408 q 275 323 277 343 q 271 302 272 304 q 289 301 269 301 q 309 299 307 301 q 315 258 313 293 q 313 208 317 224 q 312 202 313 207 q 312 196 312 198 q 309 187 311 189 l 326 185 l 328 185 l 347 185 l 345 191 q 342 275 336 223 q 347 298 344 295 q 366 301 349 301 l 385 301 l 384 307 q 380 391 375 339 q 385 414 382 411 q 405 416 388 416 l 424 416 l 422 423 q 418 477 418 441 q 422 527 418 513 q 422 538 424 532 q 418 593 418 557 q 422 643 418 629 q 422 654 424 648 q 418 710 418 673 q 422 760 418 747 l 425 764 l 482 764 q 541 762 540 764 q 543 754 542 762 q 543 657 552 707 q 543 640 541 648 q 546 590 546 622 q 543 541 546 559 q 543 524 541 532 q 547 465 547 503 q 541 418 546 426 q 521 416 539 416 l 502 416 l 503 410 q 508 352 508 393 q 503 302 507 311 q 482 301 501 301 q 464 299 464 301 q 469 244 469 290 q 464 186 469 196 q 444 185 463 185 q 425 184 424 185 q 431 128 431 174 q 425 71 431 81 q 405 69 423 69 q 387 68 385 69 q 392 9 392 58 q 386 -45 391 -39 q 327 -46 385 -46 l 269 -45 l 268 -40 q 263 14 263 -23 q 268 64 263 50 l 270 69 l 250 70 l 231 71 l 229 76 q 224 130 224 94 q 229 180 224 166 l 231 185 l 212 186 l 192 186 l 191 191 q 186 245 186 209 q 191 296 186 282 l 193 300 l 173 301 l 153 302 l 152 307 q 148 361 147 325 q 153 411 148 397 l 154 416 l 134 417 l 115 418 l 113 423 q 109 477 109 441 q 114 527 109 513 q 114 538 115 532 q 109 593 109 557 q 114 643 109 629 q 114 654 115 648 q 109 710 109 673 q 114 760 109 747 z "},"W":{"ha":577,"x_min":71,"x_max":552,"o":"m 75 760 l 77 764 l 135 764 q 194 762 193 764 q 196 754 195 762 q 195 657 205 707 q 195 640 194 648 q 199 590 199 622 q 195 541 199 559 q 195 524 194 532 q 199 474 199 506 q 195 425 199 442 q 195 408 194 416 q 199 350 199 389 q 194 303 199 311 q 194 300 193 302 q 195 295 194 298 q 199 236 199 278 q 194 186 199 195 q 212 185 193 185 l 231 185 l 229 191 q 226 275 220 223 q 231 298 228 295 q 250 301 233 301 l 270 301 l 268 307 q 263 361 263 326 q 268 411 263 397 q 268 423 269 416 q 263 477 263 441 q 268 527 263 513 q 268 538 269 532 q 263 593 263 557 q 268 643 263 629 q 268 654 269 648 q 263 710 263 673 q 269 760 264 747 l 270 764 l 309 764 q 348 762 347 764 q 350 754 349 762 q 350 657 359 705 q 350 640 349 648 q 353 590 353 622 q 350 541 353 559 q 350 524 349 532 q 353 474 353 506 q 350 425 353 442 q 350 408 349 416 q 354 349 355 388 q 348 302 353 310 q 366 301 347 301 q 387 299 385 301 q 392 260 391 292 q 391 208 393 227 q 387 186 388 189 q 405 185 385 185 l 424 185 l 422 191 q 418 245 418 210 q 422 296 418 281 q 422 307 424 301 q 418 361 418 326 q 422 411 418 397 q 422 423 424 416 q 418 477 418 441 q 422 527 418 513 q 422 538 424 532 q 418 593 418 557 q 422 643 418 629 q 422 654 424 648 q 418 710 418 673 q 422 760 418 747 l 425 764 l 482 764 q 541 762 540 764 q 543 754 542 762 q 543 657 552 707 q 543 640 541 648 q 546 590 546 622 q 543 541 546 559 q 543 524 541 532 q 546 474 546 506 q 543 425 546 442 q 543 408 541 416 q 547 349 547 388 q 541 302 546 310 q 521 301 540 301 l 502 301 l 503 295 q 508 246 507 280 q 504 194 508 212 q 504 176 503 185 q 508 117 509 156 q 503 71 507 79 q 482 69 500 69 q 464 68 463 69 q 469 9 469 58 q 463 -45 469 -39 q 423 -46 462 -46 l 385 -45 l 384 -40 q 379 14 379 -23 q 384 64 379 50 l 386 69 l 366 70 l 347 71 l 345 76 q 340 130 340 94 q 345 180 340 165 l 347 185 l 309 185 q 297 185 302 185 q 286 185 291 185 q 278 184 281 184 q 273 184 274 184 l 271 184 q 276 127 276 175 q 271 71 276 80 q 250 69 269 69 q 232 68 231 69 q 237 9 237 58 q 232 -45 237 -39 q 192 -46 231 -46 l 153 -45 l 152 -40 q 148 14 147 -22 q 153 64 148 50 l 154 69 l 134 70 l 115 71 l 113 76 q 109 130 109 94 q 114 180 109 166 q 114 191 115 185 q 109 245 109 210 q 114 296 109 281 l 115 300 l 96 301 l 77 302 l 75 307 q 71 361 71 324 q 75 411 71 397 q 75 423 77 416 q 71 477 71 441 q 75 527 71 513 q 75 538 77 532 q 71 593 71 557 q 75 643 71 629 q 75 654 77 648 q 71 710 71 673 q 75 760 71 747 z "},"X":{"ha":577,"x_min":66,"x_max":548,"o":"m 75 760 l 77 764 l 135 764 q 194 762 193 764 q 199 722 198 755 q 197 670 201 689 q 196 664 197 667 q 196 660 196 661 q 195 656 195 658 q 195 653 195 654 q 195 652 195 652 q 194 650 195 651 l 194 650 q 212 648 193 648 q 232 646 230 648 q 237 607 236 640 q 236 555 239 574 q 232 534 233 535 q 250 532 231 532 q 271 531 269 532 q 276 491 275 524 q 275 439 277 458 q 271 418 271 420 l 273 418 q 278 417 274 418 q 286 417 281 417 q 296 416 290 416 q 309 416 302 416 l 347 416 l 345 423 q 342 506 336 455 q 347 529 344 526 q 366 532 349 532 l 385 532 l 384 538 q 380 622 375 570 q 385 645 382 642 q 405 648 388 648 l 424 648 l 422 654 q 418 710 418 673 q 422 760 418 747 l 425 764 l 482 764 q 541 762 540 764 q 547 722 545 755 q 545 670 548 689 q 544 664 544 667 q 543 660 543 661 q 542 656 543 658 q 542 653 542 654 q 542 652 542 652 q 541 650 542 651 l 541 650 q 521 648 540 648 q 503 646 503 648 q 508 591 508 637 q 503 534 508 543 q 463 532 501 532 q 444 532 452 532 q 430 532 435 532 l 425 531 q 431 475 431 522 q 425 418 431 428 q 405 416 423 416 q 387 415 385 416 q 393 359 393 404 q 387 302 393 313 q 405 301 385 301 q 425 298 422 301 q 429 277 427 296 q 430 223 432 254 q 425 186 429 193 l 430 186 q 444 185 435 186 q 463 185 452 185 q 503 184 501 185 q 508 144 507 177 q 507 92 509 111 q 503 71 503 73 l 519 69 l 521 69 q 541 68 540 69 q 546 28 545 62 q 545 -22 548 -5 q 544 -30 545 -24 q 543 -36 543 -35 q 541 -45 542 -43 q 481 -46 539 -46 l 424 -45 l 422 -40 q 418 14 418 -23 q 422 64 418 50 l 424 69 l 405 70 l 385 71 l 384 76 q 379 130 379 94 q 384 180 379 166 l 386 185 l 366 186 l 347 186 l 345 191 q 340 245 340 209 q 345 296 340 281 l 347 301 l 309 301 q 296 301 302 301 q 286 301 290 301 q 278 300 281 300 q 273 300 274 300 l 271 299 q 277 244 277 288 q 271 186 277 197 q 250 185 269 185 q 232 184 231 185 q 238 128 238 173 q 232 71 238 82 q 212 69 230 69 q 194 68 193 69 q 199 9 199 58 q 193 -45 199 -39 q 134 -46 192 -46 l 77 -45 l 75 -40 q 72 43 66 -9 q 77 66 74 64 q 96 69 79 69 l 115 69 l 114 76 q 109 132 109 95 q 114 181 109 168 l 116 185 l 154 185 l 193 185 l 191 191 q 188 275 182 221 q 193 298 190 295 q 212 301 195 301 l 231 301 l 229 307 q 224 361 224 326 q 229 411 224 397 l 231 416 l 212 417 l 192 418 l 191 423 q 186 477 186 441 q 191 527 186 513 l 193 532 l 154 533 l 115 533 l 113 538 q 109 593 109 556 q 114 643 109 629 l 115 648 l 96 648 l 77 649 l 75 654 q 71 709 71 671 q 75 760 71 747 z "},"Y":{"ha":577,"x_min":109,"x_max":552,"o":"m 114 760 l 116 764 l 174 764 q 232 762 231 764 q 235 754 233 761 q 234 657 243 707 q 234 640 233 648 q 238 580 239 619 q 232 534 237 541 q 250 532 231 532 q 271 531 269 532 q 276 490 275 525 q 275 440 278 456 q 274 434 274 439 q 273 427 273 429 q 271 418 272 419 l 274 418 q 281 417 276 418 q 293 417 286 417 q 309 416 300 416 q 328 416 318 416 l 385 416 l 384 423 q 380 506 375 455 q 385 529 382 526 q 405 532 388 532 l 424 532 l 422 538 q 418 593 418 557 q 422 643 418 629 q 422 654 424 648 q 418 710 418 673 q 422 760 418 747 l 425 764 l 482 764 q 541 762 540 764 q 543 754 542 762 q 543 657 552 707 q 543 640 541 648 q 547 580 547 619 q 541 534 546 541 q 521 532 540 532 q 503 531 501 532 q 508 475 508 522 q 503 418 508 428 q 482 416 500 416 q 464 415 463 416 q 469 359 469 406 q 464 302 469 312 q 424 301 463 301 q 415 301 420 301 q 407 301 411 301 q 400 300 404 300 q 394 300 397 300 q 390 300 392 300 q 387 300 388 300 l 387 299 q 392 253 391 292 q 389 194 393 214 q 389 176 387 185 q 392 118 393 157 q 387 71 391 79 q 388 64 385 70 q 392 3 393 46 q 386 -45 391 -39 q 327 -46 385 -46 l 269 -45 l 268 -40 q 263 14 263 -23 q 268 64 263 50 q 268 76 269 69 q 263 130 263 94 q 268 180 263 165 q 268 191 269 185 q 263 245 263 210 q 268 296 263 281 l 270 301 l 231 301 l 192 302 l 191 307 q 186 361 186 325 q 191 411 186 397 l 193 416 l 173 417 l 153 418 l 152 423 q 148 477 147 441 q 153 527 148 513 l 154 532 l 134 533 l 115 533 l 113 538 q 109 593 109 556 q 114 643 109 629 q 114 654 115 648 q 109 710 109 673 q 114 760 109 747 z "},"Z":{"ha":577,"x_min":109,"x_max":513,"o":"m 114 760 l 116 764 l 309 764 q 503 762 501 764 q 505 754 503 762 q 504 657 513 707 q 504 640 503 648 q 508 580 509 619 q 503 534 507 541 q 482 532 501 532 q 464 531 463 532 q 469 475 469 522 q 464 418 469 428 q 424 416 462 416 q 405 416 414 416 q 391 415 396 416 l 387 415 q 393 359 393 404 q 387 302 393 313 q 347 301 385 301 q 335 301 341 301 q 325 301 329 301 q 316 300 320 300 q 311 300 313 300 l 309 299 q 315 244 315 288 q 309 186 315 197 q 270 185 308 185 q 258 185 264 185 q 248 185 252 185 q 239 184 243 184 q 233 184 235 184 l 232 184 q 238 128 238 173 q 232 71 238 82 q 249 70 231 71 q 299 70 267 70 q 366 69 332 69 q 503 68 501 69 q 508 28 506 62 q 507 -22 509 -5 q 505 -30 506 -24 q 505 -36 505 -35 q 502 -45 503 -43 q 308 -46 500 -46 l 115 -45 l 113 -40 q 109 14 109 -22 q 114 64 109 50 q 114 76 115 69 q 109 132 109 95 q 114 181 109 168 l 116 185 l 154 185 l 193 185 l 191 191 q 186 247 186 210 q 191 296 186 283 l 193 301 l 231 301 l 270 301 l 268 307 q 263 362 263 326 q 269 412 264 399 l 270 416 l 309 416 l 347 416 l 345 423 q 342 506 336 455 q 347 529 344 526 q 366 532 349 532 l 385 532 l 384 538 q 379 593 379 557 q 384 643 379 629 l 386 648 l 250 648 l 115 649 l 113 654 q 109 710 109 672 q 114 760 109 747 z "},"[":{"ha":577,"x_min":224,"x_max":432,"o":"m 230 876 l 231 880 l 328 880 q 425 878 424 880 q 431 838 429 871 q 429 786 432 805 q 425 766 426 767 q 386 764 423 764 q 374 764 380 764 q 363 763 368 764 q 355 763 359 763 q 350 762 351 763 l 348 762 q 353 716 353 755 q 350 657 354 677 q 350 640 349 648 q 354 581 354 620 q 349 534 353 542 q 348 531 348 534 q 349 526 349 529 q 354 468 354 510 q 349 418 353 427 q 349 411 347 417 q 354 353 354 395 q 349 303 353 311 q 348 300 348 302 q 349 295 349 298 q 354 237 354 279 q 349 187 353 195 q 348 184 348 186 q 349 179 349 182 q 354 121 354 163 q 349 71 353 79 q 349 64 347 70 q 353 5 354 47 q 348 -45 353 -37 l 353 -45 q 367 -46 357 -45 q 386 -46 376 -46 q 425 -48 423 -46 q 431 -88 429 -55 q 429 -140 432 -121 q 425 -161 426 -159 q 327 -161 424 -161 l 231 -161 l 229 -156 q 224 -102 224 -138 q 229 -52 224 -65 q 230 -40 231 -45 q 225 14 225 -22 q 229 64 224 50 q 230 76 231 71 q 225 130 225 94 q 229 180 224 165 q 230 191 231 186 q 225 245 225 210 q 229 296 224 281 q 230 307 231 302 q 225 361 225 326 q 229 411 224 397 q 230 423 231 418 q 225 477 225 441 q 229 527 224 513 q 230 538 231 534 q 225 593 225 557 q 229 643 224 629 q 230 654 231 650 q 225 708 225 673 q 229 758 224 744 q 230 770 231 765 q 225 826 225 789 q 230 876 225 863 z "},"\\":{"ha":577,"x_min":71,"x_max":509,"o":"m 75 876 l 77 880 l 135 880 q 194 878 193 880 q 199 838 198 871 q 197 786 201 805 q 196 780 197 783 q 196 775 196 777 q 195 772 195 774 q 195 769 195 770 q 195 768 195 768 q 194 766 195 767 l 194 766 l 210 764 l 212 764 q 232 762 231 764 q 237 722 236 755 q 236 670 239 689 q 232 650 233 651 q 250 648 231 648 q 271 646 269 648 q 276 607 275 640 q 275 555 277 574 q 271 534 271 535 q 289 532 269 532 q 309 531 308 532 q 315 491 313 524 q 313 439 316 458 q 309 418 310 420 l 326 416 l 328 416 q 348 415 347 416 q 353 375 352 408 q 352 323 355 342 q 348 302 349 304 q 366 301 347 301 q 387 299 385 301 q 392 259 391 292 q 391 208 393 227 q 387 186 387 188 q 405 185 385 185 q 425 184 424 185 q 430 144 429 178 q 429 94 432 111 q 428 87 429 92 q 427 80 427 81 q 425 71 426 72 l 441 69 l 444 69 q 464 68 463 69 q 469 28 467 62 q 468 -22 471 -5 q 467 -29 467 -24 q 466 -35 466 -35 q 464 -45 465 -44 q 482 -46 463 -46 q 503 -48 500 -46 q 508 -88 506 -54 q 507 -138 509 -121 q 505 -145 506 -140 q 505 -151 505 -150 q 502 -161 503 -159 q 443 -161 501 -161 l 385 -161 l 384 -156 q 379 -102 379 -138 q 384 -52 379 -65 l 386 -47 l 366 -46 l 347 -45 l 345 -40 q 340 14 340 -23 q 345 64 340 50 l 347 69 l 328 70 l 308 71 l 307 76 q 302 130 302 94 q 307 180 302 166 l 309 185 l 289 186 l 269 186 l 268 191 q 263 245 263 209 q 268 296 263 282 l 270 300 l 250 301 l 231 302 l 229 307 q 224 361 224 324 q 229 411 224 397 l 231 416 l 212 417 l 192 418 l 191 423 q 186 477 186 441 q 191 527 186 513 l 193 532 l 173 533 l 153 533 l 152 538 q 148 593 147 556 q 153 643 148 629 l 154 648 l 134 648 l 115 649 l 113 654 q 109 708 109 672 q 114 758 109 745 l 115 764 l 96 764 l 77 765 l 75 770 q 71 826 71 788 q 75 876 71 863 z "},"]":{"ha":577,"x_min":224,"x_max":436,"o":"m 230 876 l 231 880 l 328 880 q 425 878 424 880 q 427 870 426 878 q 427 772 436 823 q 427 755 425 766 q 431 706 431 738 q 427 657 431 674 q 427 640 426 648 q 431 590 431 622 q 427 541 431 559 q 427 524 426 532 q 431 465 431 504 q 425 418 430 426 q 427 411 424 417 q 431 353 431 395 q 425 303 430 311 q 427 295 424 302 q 431 237 431 279 q 425 187 430 195 q 427 179 424 186 q 431 121 431 163 q 425 71 430 79 q 427 64 424 70 q 431 6 431 47 q 425 -44 430 -36 q 427 -52 424 -45 q 431 -113 431 -70 q 425 -161 430 -155 q 327 -161 424 -161 l 231 -161 l 229 -156 q 225 -101 224 -138 q 230 -51 225 -63 l 231 -46 l 270 -46 l 309 -46 l 307 -40 q 302 14 302 -22 q 307 64 302 50 q 307 76 308 69 q 302 130 302 94 q 307 180 302 165 q 307 191 308 185 q 302 245 302 210 q 307 296 302 281 q 307 307 308 301 q 302 361 302 326 q 307 411 302 397 q 307 423 308 416 q 302 477 302 441 q 307 527 302 513 q 307 538 308 532 q 302 593 302 557 q 307 643 302 629 q 307 654 308 648 q 302 709 302 673 q 307 759 302 745 l 309 764 l 270 764 l 231 765 l 229 770 q 225 826 224 788 q 230 876 225 863 z "},"^":{"ha":577,"x_min":144,"x_max":509,"o":"m 230 760 l 231 764 l 328 764 q 425 762 424 764 q 431 722 429 755 q 429 670 432 689 q 425 650 426 651 q 444 648 424 648 q 464 646 462 648 q 469 607 468 640 q 468 555 471 574 q 464 534 465 535 q 482 532 463 532 q 503 531 501 532 q 508 491 507 524 q 507 439 509 458 q 502 418 503 420 q 443 417 500 417 l 385 418 l 384 423 q 379 477 379 441 q 384 527 379 513 l 386 532 l 366 533 l 347 533 l 345 538 q 340 592 340 556 q 345 643 340 629 l 347 648 l 328 648 q 309 646 309 648 q 315 591 315 635 q 309 534 315 545 q 289 532 308 532 q 271 531 269 532 q 276 473 276 522 q 271 418 276 424 q 211 417 269 417 l 153 418 l 152 423 q 149 506 144 452 q 154 529 151 526 q 174 532 157 532 l 193 532 l 191 538 q 188 622 182 568 q 193 645 190 642 q 212 648 195 648 l 231 648 l 229 654 q 225 710 224 673 q 230 760 225 747 z "},"_":{"ha":577,"x_min":71,"x_max":548,"o":"m 75 65 l 77 69 l 309 69 q 541 68 540 69 q 546 28 545 62 q 545 -22 548 -5 q 544 -30 545 -24 q 543 -36 543 -35 q 541 -45 542 -43 q 308 -46 539 -46 l 77 -45 l 75 -40 q 71 15 71 -23 q 75 65 71 53 z "},"`":{"ha":577,"x_min":186,"x_max":393,"o":"m 191 876 l 193 880 l 251 880 q 309 878 308 880 q 314 839 313 872 q 313 788 316 805 q 312 782 313 787 q 312 774 312 777 q 309 766 311 767 l 311 765 q 316 765 313 765 q 324 764 319 764 q 335 764 329 764 q 347 764 341 764 q 387 762 385 764 q 392 723 390 756 q 391 672 393 689 q 389 665 390 670 q 389 659 389 660 q 386 650 387 651 q 327 648 385 648 l 269 649 l 268 654 q 263 708 263 671 q 268 759 263 745 l 270 764 l 231 764 l 192 765 l 191 770 q 186 826 186 788 q 191 876 186 863 z "},"a":{"ha":577,"x_min":105,"x_max":548,"o":"m 191 528 l 193 532 l 309 532 q 425 531 424 532 q 431 491 429 524 q 429 439 432 458 q 425 418 426 420 l 427 418 q 432 417 429 418 q 440 417 435 417 q 451 416 445 416 q 463 416 456 416 q 503 415 501 416 q 508 375 506 409 q 507 325 509 342 q 505 318 506 323 q 505 311 505 313 q 504 292 503 298 q 508 243 508 274 q 504 194 507 212 q 504 176 503 185 q 508 117 509 156 q 503 71 507 79 l 519 69 l 521 69 q 541 68 540 69 q 547 4 548 57 q 541 -45 545 -40 q 481 -46 539 -46 l 424 -45 l 422 -40 q 418 14 418 -23 q 422 64 418 50 l 424 69 l 405 70 l 385 71 l 384 76 q 379 130 379 94 q 384 180 379 165 l 386 185 l 309 185 q 291 185 300 185 q 275 185 282 185 q 260 185 267 185 q 249 184 254 184 q 239 184 243 184 q 233 184 235 184 l 232 184 q 238 128 238 173 q 232 71 238 82 q 241 70 231 71 q 270 70 252 70 q 309 69 289 69 l 386 69 l 387 65 q 392 6 393 52 q 386 -45 391 -39 q 269 -46 385 -46 l 153 -45 l 152 -40 q 148 14 147 -22 q 153 64 148 50 l 154 69 l 134 70 l 115 71 l 113 76 q 111 159 105 105 q 115 182 113 179 q 135 185 118 185 l 154 185 l 153 191 q 148 247 148 210 q 153 296 148 283 l 155 301 l 270 301 l 385 301 l 384 307 q 379 361 379 326 q 384 412 379 397 l 386 416 l 289 417 l 192 418 l 191 423 q 186 478 186 441 q 191 528 186 516 z "},"b":{"ha":577,"x_min":71,"x_max":548,"o":"m 191 65 l 193 69 l 290 69 l 386 69 l 387 65 q 392 6 393 52 q 386 -45 391 -39 q 288 -46 385 -46 l 192 -45 l 191 -40 q 186 15 186 -22 q 191 65 186 53 m 230 528 l 231 532 l 328 532 q 425 531 424 532 q 431 491 429 524 q 429 439 432 458 q 425 418 426 420 l 427 418 q 432 417 429 418 q 440 417 435 417 q 451 416 445 416 q 463 416 456 416 q 503 415 501 416 q 508 375 506 409 q 507 325 509 342 q 505 318 506 323 q 505 312 505 313 q 503 302 503 303 q 521 301 501 301 q 541 299 539 301 q 546 259 545 293 q 545 209 548 226 q 544 202 545 208 q 543 196 543 197 q 541 187 542 188 q 521 185 539 185 q 503 184 501 185 q 508 125 508 174 q 502 71 507 77 q 443 70 500 70 l 385 71 l 384 76 q 380 159 375 107 q 385 182 382 179 q 405 185 388 185 l 424 185 l 422 191 q 418 245 418 210 q 422 296 418 281 l 424 300 l 405 301 l 385 302 l 384 307 q 379 361 379 324 q 384 412 379 397 l 386 416 l 308 417 l 231 418 l 229 423 q 225 478 224 441 q 230 528 225 516 m 75 760 l 77 764 l 135 764 q 194 762 193 764 q 196 754 195 762 q 195 657 205 707 q 195 640 194 648 q 199 590 199 622 q 195 541 199 559 q 195 524 194 532 q 199 465 200 503 q 194 418 199 426 l 210 416 l 212 416 q 218 416 214 416 q 230 416 228 416 q 233 412 232 416 q 238 373 237 404 q 236 323 239 342 q 232 302 233 304 q 212 301 231 301 l 193 301 l 195 295 q 199 237 199 279 q 194 187 199 195 q 194 184 193 186 q 195 179 194 182 q 199 121 199 162 q 194 71 199 79 q 174 69 192 69 l 155 69 l 156 63 q 160 3 161 45 q 155 -45 160 -39 q 115 -46 153 -46 l 77 -45 l 75 -40 q 71 14 71 -23 q 75 64 71 50 q 75 76 77 69 q 71 130 71 94 q 75 180 71 165 q 75 191 77 185 q 71 245 71 210 q 75 296 71 281 q 75 307 77 301 q 71 361 71 326 q 75 411 71 397 q 75 423 77 416 q 71 477 71 441 q 75 527 71 513 q 75 538 77 532 q 71 593 71 557 q 75 643 71 629 q 75 654 77 648 q 71 710 71 673 q 75 760 71 747 z "},"c":{"ha":577,"x_min":66,"x_max":548,"o":"m 191 528 l 193 532 l 328 532 q 464 531 463 532 q 469 491 468 524 q 468 439 471 458 q 464 418 465 420 l 465 418 q 471 417 467 418 q 479 417 474 417 q 489 416 484 416 q 501 416 495 416 q 541 415 540 416 q 547 375 545 408 q 545 323 548 342 q 541 302 542 304 q 481 301 539 301 l 424 302 l 422 307 q 418 361 418 324 q 422 411 418 397 l 424 416 l 328 416 q 297 416 312 416 q 271 416 283 416 q 250 416 259 416 q 237 415 241 416 l 232 415 q 238 359 238 404 q 232 302 238 313 q 212 301 231 301 q 194 299 194 301 q 199 244 199 290 q 194 186 199 196 q 212 185 193 185 q 232 184 231 185 q 237 144 236 177 q 236 92 239 111 q 232 71 233 73 q 244 70 231 71 q 280 70 256 70 q 328 69 303 69 l 424 69 l 422 76 q 418 132 418 95 q 422 181 418 168 l 425 185 l 482 185 q 541 184 540 185 q 547 144 545 177 q 545 92 548 111 q 544 85 544 88 q 543 81 543 83 q 542 78 543 79 q 542 75 542 76 q 542 73 542 74 q 541 72 542 73 l 541 71 q 501 69 539 69 q 482 69 491 69 q 469 68 473 68 l 464 68 q 469 9 469 58 q 463 -45 469 -39 q 327 -46 462 -46 l 192 -45 l 191 -40 q 186 14 186 -22 q 191 64 186 51 l 193 69 l 154 70 l 115 71 l 113 76 q 109 130 109 94 q 114 180 109 166 l 115 185 l 96 186 l 77 186 l 75 191 q 72 275 66 222 q 77 298 74 295 q 96 301 79 301 l 115 301 l 114 307 q 109 363 109 326 q 114 412 109 399 l 116 416 l 154 416 l 193 416 l 191 423 q 186 478 186 441 q 191 528 186 515 z "},"d":{"ha":577,"x_min":66,"x_max":552,"o":"m 191 528 l 193 532 l 290 532 q 387 531 385 532 q 392 491 391 524 q 391 439 393 458 q 387 418 387 420 q 309 416 385 416 q 291 416 300 416 q 275 416 282 416 q 260 416 267 416 q 249 416 254 416 q 239 416 243 416 q 233 415 235 416 l 232 415 q 238 359 238 404 q 232 302 238 313 q 212 301 231 301 q 194 299 194 301 q 199 244 199 290 q 194 186 199 196 q 212 185 193 185 q 232 184 231 185 q 237 144 235 178 q 237 94 239 111 q 235 87 236 92 q 235 80 235 81 q 233 71 233 72 l 236 71 q 247 70 239 71 q 262 70 254 70 q 283 69 271 69 q 309 69 296 69 l 386 69 l 387 65 q 392 6 393 52 q 386 -45 391 -39 q 288 -46 385 -46 l 192 -45 l 191 -40 q 186 14 186 -22 q 191 64 186 51 l 193 69 l 154 70 l 115 71 l 113 76 q 109 130 109 94 q 114 180 109 166 l 115 185 l 96 186 l 77 186 l 75 191 q 72 275 66 222 q 77 298 74 295 q 96 301 79 301 l 115 301 l 114 307 q 109 363 109 326 q 114 412 109 399 l 116 416 l 154 416 l 193 416 l 191 423 q 186 478 186 441 q 191 528 186 515 m 422 760 l 425 764 l 482 764 q 541 762 540 764 q 543 754 542 762 q 543 657 552 707 q 543 640 541 648 q 546 590 546 622 q 543 541 546 559 q 543 524 541 532 q 546 474 546 506 q 543 425 546 442 q 543 408 541 416 q 546 350 547 389 q 541 303 546 311 q 541 300 541 302 q 542 295 541 298 q 546 237 547 279 q 541 187 546 195 q 541 184 541 186 q 542 179 541 182 q 546 121 547 163 q 541 71 546 79 q 542 64 540 70 q 547 4 547 47 q 541 -45 546 -39 q 481 -46 539 -46 l 424 -45 l 422 -40 q 418 14 418 -23 q 422 64 418 50 l 424 69 l 405 70 l 385 71 l 384 76 q 380 159 375 107 q 385 182 382 179 q 405 185 388 185 l 424 185 l 422 191 q 418 245 418 210 q 422 296 418 281 l 424 300 l 405 301 l 385 302 l 384 307 q 380 391 375 338 q 385 414 382 411 q 405 416 388 416 l 424 416 l 422 423 q 418 477 418 441 q 422 527 418 513 q 422 538 424 532 q 418 593 418 557 q 422 643 418 629 q 422 654 424 648 q 418 710 418 673 q 422 760 418 747 z "},"e":{"ha":577,"x_min":66,"x_max":552,"o":"m 191 528 l 193 532 l 328 532 q 464 531 463 532 q 469 491 468 524 q 468 439 471 458 q 464 418 465 420 l 465 418 q 471 417 467 418 q 479 417 474 417 q 489 416 484 416 q 501 416 495 416 q 541 415 540 416 q 543 407 542 414 q 543 310 552 360 q 543 292 541 300 q 547 233 547 272 q 541 186 546 194 q 386 185 540 185 q 351 185 368 185 q 318 185 333 185 q 290 185 303 185 q 266 184 276 184 q 248 184 255 184 q 236 184 240 184 l 232 184 q 238 128 238 173 q 232 71 238 82 q 249 70 231 71 q 299 70 267 70 q 366 69 332 69 q 503 68 501 69 q 508 28 507 61 q 507 -24 509 -5 q 502 -45 503 -43 q 347 -46 500 -46 l 192 -45 l 191 -40 q 186 14 186 -22 q 191 64 186 51 l 193 69 l 154 70 l 115 71 l 113 76 q 109 130 109 94 q 114 180 109 166 l 115 185 l 96 186 l 77 186 l 75 191 q 72 275 66 222 q 77 298 74 295 q 96 301 79 301 l 115 301 l 114 307 q 109 363 109 326 q 114 412 109 399 l 116 416 l 154 416 l 193 416 l 191 423 q 186 478 186 441 q 191 528 186 515 m 422 411 l 424 416 l 328 416 q 297 416 312 416 q 271 416 283 416 q 250 416 259 416 q 237 415 241 416 l 232 415 q 238 359 238 404 q 232 302 238 313 l 244 302 q 279 301 257 302 q 328 301 302 301 l 424 301 l 422 307 q 418 361 418 326 q 422 411 418 397 z "},"f":{"ha":577,"x_min":109,"x_max":509,"o":"m 230 760 l 231 764 l 366 764 q 503 762 501 764 q 508 722 507 755 q 507 670 509 689 q 503 650 503 651 q 405 648 501 648 q 357 648 380 648 q 321 647 334 648 q 309 646 309 647 q 315 591 315 635 q 309 534 315 545 l 321 533 q 357 533 334 533 q 405 532 379 532 q 503 531 501 532 q 508 491 507 524 q 507 439 509 458 q 503 418 503 420 q 405 416 500 416 q 375 416 389 416 q 348 416 360 416 q 328 416 336 416 q 314 415 319 416 l 309 415 q 315 359 315 404 q 310 303 315 311 q 310 300 309 302 q 311 295 310 298 q 315 237 315 279 q 310 187 315 195 q 310 184 309 186 q 311 179 310 182 q 315 121 315 162 q 309 71 314 79 l 311 71 q 316 70 313 71 q 325 70 320 70 q 335 69 329 69 q 347 69 341 69 q 387 68 385 69 q 392 28 391 61 q 391 -24 393 -5 q 386 -45 387 -43 q 269 -46 385 -46 l 153 -45 l 152 -40 q 149 43 144 -11 q 154 66 151 64 q 174 69 157 69 l 193 69 l 191 76 q 186 130 186 94 q 191 180 186 165 q 191 191 193 185 q 186 245 186 210 q 191 296 186 281 q 191 307 193 301 q 186 361 186 326 q 191 412 186 397 l 193 416 l 154 417 l 115 418 l 113 423 q 109 478 109 441 q 114 528 109 516 l 116 532 l 154 532 l 193 532 l 191 538 q 188 622 182 568 q 193 645 190 642 q 212 648 195 648 l 231 648 l 229 654 q 225 710 224 673 q 230 760 225 747 z "},"g":{"ha":577,"x_min":66,"x_max":552,"o":"m 191 528 l 193 532 l 366 532 q 541 531 540 532 q 543 523 542 530 q 543 425 552 476 q 543 408 541 416 q 546 359 546 391 q 543 310 546 327 q 543 292 541 301 q 546 243 546 275 q 543 194 546 212 q 543 176 541 185 q 546 118 547 157 q 541 71 546 79 q 542 64 540 70 q 546 5 547 47 q 541 -45 546 -37 q 521 -46 540 -46 q 503 -48 503 -46 q 508 -103 508 -58 q 503 -161 508 -151 q 463 -162 501 -162 q 444 -162 452 -162 q 430 -163 435 -163 l 425 -163 q 430 -222 431 -173 q 425 -276 430 -271 q 308 -277 423 -277 l 192 -277 l 191 -271 q 186 -216 186 -254 q 191 -166 186 -178 l 193 -162 l 289 -162 l 385 -162 l 384 -156 q 380 -73 375 -124 q 385 -49 382 -52 q 405 -46 388 -46 l 424 -46 l 422 -40 q 418 14 418 -22 q 422 64 418 50 l 424 69 l 405 70 l 385 71 l 384 76 q 380 159 375 107 q 385 182 382 179 q 405 185 388 185 l 424 185 l 422 191 q 418 245 418 210 q 422 296 418 281 q 422 307 424 301 q 418 361 418 326 q 422 411 418 397 l 424 416 l 328 416 q 297 416 312 416 q 271 416 283 416 q 250 416 259 416 q 237 415 241 416 l 232 415 q 238 359 238 404 q 232 302 238 313 q 212 301 231 301 q 194 299 194 301 q 199 244 199 290 q 194 186 199 196 q 212 185 193 185 q 232 184 231 185 q 237 144 235 178 q 237 94 239 111 q 235 87 236 92 q 235 80 235 81 q 233 71 233 72 l 236 71 q 247 70 239 71 q 262 70 254 70 q 283 69 271 69 q 309 69 296 69 l 386 69 l 387 65 q 392 6 393 52 q 386 -45 391 -39 q 288 -46 385 -46 l 192 -45 l 191 -40 q 186 14 186 -22 q 191 64 186 51 l 193 69 l 154 70 l 115 71 l 113 76 q 109 130 109 94 q 114 180 109 166 l 115 185 l 96 186 l 77 186 l 75 191 q 72 275 66 222 q 77 298 74 295 q 96 301 79 301 l 115 301 l 114 307 q 109 363 109 326 q 114 412 109 399 l 116 416 l 154 416 l 193 416 l 191 423 q 186 478 186 441 q 191 528 186 515 z "},"h":{"ha":577,"x_min":71,"x_max":552,"o":"m 230 528 l 231 532 l 347 532 q 464 531 463 532 q 469 491 468 524 q 468 439 471 458 q 464 418 465 420 l 465 418 q 471 417 467 418 q 479 417 474 417 q 489 416 484 416 q 501 416 495 416 q 541 415 540 416 q 543 407 542 414 q 543 310 552 360 q 543 292 541 300 q 546 243 546 275 q 543 194 546 212 q 543 176 541 185 q 546 118 547 157 q 541 71 546 79 q 542 64 540 70 q 546 3 547 46 q 541 -45 546 -39 q 481 -46 539 -46 l 424 -45 l 422 -40 q 418 14 418 -23 q 422 64 418 50 q 422 76 424 69 q 418 130 418 94 q 422 180 418 165 q 422 191 424 185 q 418 245 418 210 q 422 296 418 281 q 422 307 424 301 q 418 361 418 326 q 422 412 418 397 l 424 416 l 328 417 l 231 418 l 229 423 q 225 478 224 441 q 230 528 225 516 m 75 760 l 77 764 l 135 764 q 194 762 193 764 q 196 754 195 762 q 195 657 205 707 q 195 640 194 648 q 199 590 199 622 q 195 541 199 559 q 195 524 194 532 q 199 465 200 503 q 194 418 199 426 l 210 416 l 212 416 q 218 416 214 416 q 230 416 228 416 q 233 412 232 416 q 238 373 237 404 q 236 323 239 342 q 232 302 233 304 q 212 301 231 301 l 193 301 l 195 295 q 199 237 199 279 q 194 187 199 195 q 194 184 193 186 q 195 179 194 182 q 199 121 199 163 q 194 71 199 79 q 195 64 193 70 q 199 3 199 46 q 193 -45 199 -39 q 134 -46 192 -46 l 77 -45 l 75 -40 q 71 14 71 -23 q 75 64 71 50 q 75 76 77 69 q 71 130 71 94 q 75 180 71 165 q 75 191 77 185 q 71 245 71 210 q 75 296 71 281 q 75 307 77 301 q 71 361 71 326 q 75 411 71 397 q 75 423 77 416 q 71 477 71 441 q 75 527 71 513 q 75 538 77 532 q 71 593 71 557 q 75 643 71 629 q 75 654 77 648 q 71 710 71 673 q 75 760 71 747 z "},"i":{"ha":577,"x_min":147,"x_max":509,"o":"m 191 528 l 193 532 l 290 532 q 387 531 385 532 q 389 523 387 530 q 389 425 397 474 q 389 408 387 416 q 392 359 392 391 q 389 310 392 327 q 389 292 387 301 q 392 243 392 275 q 389 194 392 212 q 389 176 387 185 q 393 117 393 156 q 387 71 392 79 l 389 71 q 397 70 392 71 q 410 70 403 70 q 426 69 416 69 q 444 69 435 69 q 503 68 501 69 q 508 28 507 61 q 507 -24 509 -5 q 502 -45 503 -43 q 327 -46 500 -46 l 153 -45 l 152 -40 q 148 15 147 -22 q 153 65 148 53 l 155 69 l 212 69 l 270 69 l 268 76 q 263 130 263 94 q 268 180 263 165 q 268 191 269 185 q 263 245 263 210 q 268 296 263 281 q 268 307 269 301 q 263 361 263 326 q 268 412 263 397 l 270 416 l 231 417 l 192 418 l 191 423 q 186 478 186 441 q 191 528 186 516 m 269 760 l 270 764 l 328 764 q 387 762 385 764 q 392 723 390 756 q 391 672 393 689 q 389 665 390 670 q 389 659 389 660 q 386 650 387 651 q 327 648 385 648 l 269 649 l 268 654 q 263 710 263 672 q 269 760 264 747 z "},"j":{"ha":577,"x_min":109,"x_max":436,"o":"m 191 528 l 193 532 l 309 532 q 425 531 424 532 q 427 523 426 530 q 427 425 436 476 q 427 408 425 418 q 431 359 431 391 q 427 310 431 327 q 427 292 426 301 q 431 243 431 275 q 427 194 431 212 q 427 176 426 185 q 431 118 431 157 q 425 71 430 79 q 427 64 424 70 q 431 5 431 47 q 425 -45 430 -37 q 405 -46 424 -46 l 386 -46 l 388 -52 q 392 -111 393 -69 q 387 -161 391 -153 q 366 -162 385 -162 q 348 -163 347 -162 q 353 -221 353 -172 q 348 -276 353 -271 q 231 -277 347 -277 l 115 -277 l 113 -271 q 109 -216 109 -254 q 114 -166 109 -178 l 116 -162 l 193 -162 l 270 -162 l 268 -156 q 264 -73 259 -124 q 269 -49 267 -52 q 289 -46 272 -46 l 309 -46 l 307 -40 q 302 14 302 -22 q 307 64 302 50 q 307 76 308 69 q 302 130 302 94 q 307 180 302 165 q 307 191 308 185 q 302 245 302 210 q 307 296 302 281 q 307 307 308 301 q 302 361 302 326 q 307 412 302 397 l 309 416 l 250 417 l 192 418 l 191 423 q 186 478 186 441 q 191 528 186 516 m 307 760 l 309 764 l 366 764 q 425 762 424 764 q 430 723 429 756 q 429 672 432 689 q 428 665 429 670 q 427 659 427 660 q 425 650 426 651 q 366 648 423 648 l 308 649 l 307 654 q 302 710 302 672 q 307 760 302 747 z "},"k":{"ha":577,"x_min":71,"x_max":548,"o":"m 75 760 l 77 764 l 135 764 q 194 762 193 764 q 196 754 195 762 q 195 657 205 707 q 195 640 194 648 q 199 590 199 622 q 195 541 199 559 q 195 524 194 532 q 199 474 199 506 q 195 425 199 442 q 195 408 194 416 q 199 349 200 388 q 194 302 199 310 l 199 302 q 212 301 203 302 q 231 301 221 301 l 270 301 l 268 307 q 263 362 263 326 q 269 412 264 399 l 270 416 l 309 416 l 347 416 l 345 423 q 340 479 340 442 q 345 528 340 515 l 347 532 l 425 532 q 503 531 501 532 q 508 491 507 524 q 507 439 509 458 q 503 418 503 420 q 444 416 500 416 q 415 416 428 416 q 394 415 401 416 l 387 415 q 393 359 393 404 q 387 302 393 313 q 366 301 385 301 q 348 299 348 301 q 354 244 354 288 q 348 186 354 197 l 353 186 q 367 185 357 186 q 386 185 376 185 q 425 184 424 185 q 431 144 429 177 q 429 92 432 111 q 425 71 426 73 l 428 71 q 436 70 431 71 q 448 70 441 70 q 464 69 455 69 q 482 69 473 69 q 541 68 540 69 q 546 28 545 62 q 545 -22 548 -5 q 544 -30 545 -24 q 543 -36 543 -35 q 541 -45 542 -43 q 443 -46 539 -46 l 347 -45 l 345 -40 q 340 14 340 -23 q 345 64 340 51 l 347 69 l 308 70 l 269 71 l 268 76 q 263 130 263 94 q 268 180 263 166 l 270 185 l 231 185 l 193 185 l 195 179 q 199 121 199 163 q 194 71 199 79 q 195 64 193 70 q 199 3 199 46 q 193 -45 199 -39 q 134 -46 192 -46 l 77 -45 l 75 -40 q 71 14 71 -23 q 75 64 71 50 q 75 76 77 69 q 71 130 71 94 q 75 180 71 165 q 75 191 77 185 q 71 245 71 210 q 75 296 71 281 q 75 307 77 301 q 71 361 71 326 q 75 411 71 397 q 75 423 77 416 q 71 477 71 441 q 75 527 71 513 q 75 538 77 532 q 71 593 71 557 q 75 643 71 629 q 75 654 77 648 q 71 710 71 673 q 75 760 71 747 z "},"l":{"ha":577,"x_min":147,"x_max":509,"o":"m 191 760 l 193 764 l 290 764 q 387 762 385 764 q 389 754 387 762 q 389 657 397 705 q 389 640 387 648 q 392 590 392 622 q 389 541 392 559 q 389 524 387 532 q 392 474 392 506 q 389 425 392 442 q 389 408 387 416 q 392 350 393 389 q 387 303 391 311 q 388 295 385 302 q 392 237 393 279 q 387 187 391 195 q 388 179 385 186 q 392 121 393 162 q 387 71 391 79 l 389 71 q 397 70 392 71 q 410 70 403 70 q 426 69 416 69 q 444 69 435 69 q 503 68 501 69 q 508 28 506 62 q 507 -22 509 -5 q 505 -30 506 -24 q 505 -36 505 -35 q 502 -45 503 -43 q 327 -46 500 -46 l 153 -45 l 152 -40 q 148 15 147 -22 q 153 65 148 53 l 155 69 l 212 69 l 270 69 l 268 76 q 263 130 263 94 q 268 180 263 165 q 268 191 269 185 q 263 245 263 210 q 268 296 263 281 q 268 307 269 301 q 263 361 263 326 q 268 411 263 397 q 268 423 269 416 q 263 477 263 441 q 268 527 263 513 q 268 538 269 532 q 263 593 263 557 q 268 643 263 629 l 270 648 l 231 648 l 192 649 l 191 654 q 186 710 186 672 q 191 760 186 747 z "},"m":{"ha":577,"x_min":71,"x_max":552,"o":"m 345 528 l 347 532 l 425 532 q 503 531 501 532 q 508 491 507 524 q 507 439 509 458 q 503 418 503 420 l 519 416 l 521 416 q 541 415 540 416 q 543 407 542 414 q 543 310 552 360 q 543 292 541 300 q 546 243 546 275 q 543 194 546 212 q 543 176 541 185 q 546 118 547 157 q 541 71 546 79 q 542 64 540 70 q 546 3 547 46 q 541 -45 546 -39 q 481 -46 539 -46 l 424 -45 l 422 -40 q 418 14 418 -23 q 422 64 418 50 q 422 76 424 69 q 418 130 418 94 q 422 180 418 165 q 422 191 424 185 q 418 245 418 210 q 422 296 418 281 q 422 307 424 301 q 418 361 418 326 q 422 412 418 397 l 424 416 l 385 417 l 347 418 l 345 423 q 340 478 340 441 q 345 528 340 516 m 191 528 l 193 532 l 251 532 q 309 531 308 532 q 315 491 313 524 q 313 439 316 458 q 309 418 310 420 l 326 416 l 328 416 q 348 414 345 416 q 353 389 351 411 q 350 310 357 350 q 350 292 349 300 q 353 243 353 275 q 350 194 353 212 q 350 176 349 185 q 353 127 353 159 q 350 78 353 95 q 350 61 349 69 q 354 0 355 40 q 348 -45 353 -40 q 308 -46 347 -46 l 269 -45 l 268 -40 q 263 14 263 -23 q 268 64 263 50 q 268 76 269 69 q 263 130 263 94 q 268 180 263 165 q 268 191 269 185 q 263 245 263 210 q 268 296 263 281 q 268 307 269 301 q 263 361 263 326 q 268 412 263 397 l 270 416 l 231 417 l 192 418 l 191 423 q 186 478 186 441 q 191 528 186 516 m 75 528 l 77 532 l 116 532 q 155 531 154 532 q 161 491 159 524 q 159 439 162 458 q 155 418 156 420 l 172 416 l 174 416 q 180 416 176 416 q 191 416 189 416 q 195 412 193 416 q 199 372 198 404 q 198 325 201 340 q 197 321 198 324 q 196 316 197 318 q 195 311 195 313 q 195 292 194 300 q 199 243 199 274 q 195 194 199 212 q 195 176 194 185 q 199 118 199 157 q 194 71 199 79 q 195 64 193 70 q 199 3 199 46 q 193 -45 199 -39 q 134 -46 192 -46 l 77 -45 l 75 -40 q 71 14 71 -23 q 75 64 71 50 q 75 76 77 69 q 71 130 71 94 q 75 180 71 165 q 75 191 77 185 q 71 245 71 210 q 75 296 71 281 q 75 307 77 301 q 71 361 71 326 q 75 411 71 397 q 75 423 77 416 q 71 479 71 442 q 75 528 71 515 z "},"n":{"ha":577,"x_min":71,"x_max":552,"o":"m 230 528 l 231 532 l 347 532 q 464 531 463 532 q 469 491 468 524 q 468 439 471 458 q 464 418 465 420 l 465 418 q 471 417 467 418 q 479 417 474 417 q 489 416 484 416 q 501 416 495 416 q 541 415 540 416 q 543 407 542 414 q 543 310 552 360 q 543 292 541 300 q 546 243 546 275 q 543 194 546 212 q 543 176 541 185 q 546 118 547 157 q 541 71 546 79 q 542 64 540 70 q 546 3 547 46 q 541 -45 546 -39 q 481 -46 539 -46 l 424 -45 l 422 -40 q 418 14 418 -23 q 422 64 418 50 q 422 76 424 69 q 418 130 418 94 q 422 180 418 165 q 422 191 424 185 q 418 245 418 210 q 422 296 418 281 q 422 307 424 301 q 418 361 418 326 q 422 412 418 397 l 424 416 l 328 417 l 231 418 l 229 423 q 225 478 224 441 q 230 528 225 516 m 75 528 l 77 532 l 135 532 q 194 531 193 532 q 199 491 198 524 q 197 439 201 458 q 196 433 197 435 q 196 428 196 430 q 195 425 195 427 q 195 422 195 423 q 195 420 195 421 q 194 419 195 420 l 194 418 l 210 416 l 212 416 q 218 416 214 416 q 230 416 228 416 q 233 412 232 416 q 238 372 237 404 q 237 325 239 340 q 235 318 236 323 q 235 312 235 313 q 233 302 233 303 q 212 301 231 301 q 194 299 194 301 q 199 253 199 292 q 195 194 199 214 q 195 176 194 185 q 199 118 199 157 q 194 71 199 79 q 195 64 193 70 q 199 3 199 46 q 193 -45 199 -39 q 134 -46 192 -46 l 77 -45 l 75 -40 q 71 14 71 -23 q 75 64 71 50 q 75 76 77 69 q 71 130 71 94 q 75 180 71 165 q 75 191 77 185 q 71 245 71 210 q 75 296 71 281 q 75 307 77 301 q 71 361 71 326 q 75 411 71 397 q 75 423 77 416 q 71 479 71 442 q 75 528 71 515 z "},"o":{"ha":577,"x_min":66,"x_max":548,"o":"m 191 528 l 193 532 l 309 532 q 425 531 424 532 q 431 491 429 524 q 429 439 432 458 q 425 418 426 420 l 427 418 q 432 417 429 418 q 440 417 435 417 q 451 416 445 416 q 463 416 456 416 q 503 415 501 416 q 508 375 507 408 q 507 323 509 342 q 503 302 503 304 q 521 301 501 301 q 541 299 539 301 q 547 259 545 292 q 545 208 548 227 q 543 196 543 201 q 542 189 542 191 q 541 186 541 187 q 521 185 540 185 q 503 184 501 185 q 508 128 508 174 q 503 71 508 81 q 463 69 500 69 q 444 69 452 69 q 430 68 435 68 l 425 68 q 430 9 431 58 q 425 -45 430 -39 q 308 -46 423 -46 l 192 -45 l 191 -40 q 186 14 186 -22 q 191 64 186 51 l 193 69 l 154 70 l 115 71 l 113 76 q 109 130 109 94 q 114 180 109 166 l 115 185 l 96 186 l 77 186 l 75 191 q 72 275 66 222 q 77 298 74 295 q 96 301 79 301 l 115 301 l 114 307 q 109 363 109 326 q 114 412 109 399 l 116 416 l 154 416 l 193 416 l 191 423 q 186 478 186 441 q 191 528 186 515 m 384 412 l 386 416 l 309 416 q 291 416 300 416 q 275 416 282 416 q 260 416 267 416 q 249 416 254 416 q 239 416 243 416 q 233 415 235 416 l 232 415 q 238 359 238 404 q 232 302 238 313 q 212 301 231 301 q 194 299 194 301 q 199 244 199 290 q 194 186 199 196 q 212 185 193 185 q 232 184 231 185 q 237 144 236 177 q 236 92 239 111 q 232 71 233 73 q 241 70 231 71 q 270 70 252 70 q 309 69 289 69 l 385 69 l 384 76 q 380 159 375 108 q 385 182 382 179 q 405 185 388 185 l 424 185 l 422 191 q 418 245 418 210 q 422 296 418 281 l 424 300 l 405 301 l 385 302 l 384 307 q 379 361 379 324 q 384 412 379 397 z "},"p":{"ha":577,"x_min":71,"x_max":548,"o":"m 75 528 l 77 532 l 135 532 q 194 531 193 532 q 199 491 198 524 q 197 439 201 458 q 196 433 197 435 q 196 428 196 430 q 195 425 195 427 q 195 422 195 423 q 195 420 195 421 q 194 419 195 420 l 194 418 l 210 416 l 212 416 q 218 416 214 416 q 230 416 228 416 q 233 412 232 416 q 238 372 237 404 q 236 323 239 340 q 232 302 234 307 q 212 301 231 301 q 194 299 194 301 q 199 253 199 292 q 195 194 199 214 q 195 176 194 185 q 199 117 200 156 q 194 71 199 79 q 206 70 193 71 q 241 70 218 70 q 289 69 264 69 l 385 69 l 384 76 q 380 159 375 108 q 385 182 382 179 q 405 185 388 185 l 424 185 l 422 191 q 418 245 418 210 q 422 296 418 281 l 424 300 l 405 301 l 385 302 l 384 307 q 379 361 379 324 q 384 412 379 397 l 386 416 l 308 417 l 231 418 l 229 423 q 225 478 224 441 q 230 528 225 516 l 231 532 l 328 532 q 425 531 424 532 q 431 491 429 524 q 429 439 432 458 q 425 418 426 420 l 427 418 q 432 417 429 418 q 440 417 435 417 q 451 416 445 416 q 463 416 456 416 q 503 415 501 416 q 508 375 507 408 q 507 323 509 342 q 503 302 503 304 q 521 301 501 301 q 541 299 539 301 q 547 259 545 292 q 545 208 548 227 q 543 196 543 201 q 542 189 542 191 q 541 186 541 187 q 521 185 540 185 q 503 184 501 185 q 508 128 508 174 q 503 71 508 81 q 463 69 500 69 q 444 69 452 69 q 430 68 435 68 l 425 68 q 431 12 431 58 q 425 -45 431 -35 q 309 -46 424 -46 l 193 -46 l 195 -52 q 199 -110 199 -68 q 194 -160 199 -152 q 194 -163 193 -161 q 195 -168 194 -165 q 199 -228 199 -186 q 193 -276 199 -271 q 134 -277 192 -277 l 77 -277 l 75 -271 q 71 -217 71 -254 q 75 -168 71 -181 q 75 -156 77 -162 q 71 -102 71 -138 q 75 -52 71 -66 q 75 -40 77 -46 q 71 14 71 -22 q 75 64 71 50 q 75 76 77 69 q 71 130 71 94 q 75 180 71 165 q 75 191 77 185 q 71 245 71 210 q 75 296 71 281 q 75 307 77 301 q 71 361 71 326 q 75 411 71 397 q 75 423 77 416 q 71 479 71 442 q 75 528 71 515 z "},"q":{"ha":577,"x_min":66,"x_max":552,"o":"m 191 528 l 193 532 l 366 532 q 541 531 540 532 q 543 523 542 530 q 543 425 552 476 q 543 408 541 416 q 546 359 546 391 q 543 310 546 327 q 543 292 541 301 q 546 243 546 275 q 543 194 546 212 q 543 176 541 185 q 546 118 547 157 q 541 71 546 79 q 542 64 540 70 q 546 6 547 47 q 541 -44 546 -36 q 541 -47 541 -45 q 542 -52 541 -50 q 546 -110 547 -68 q 541 -160 546 -152 q 541 -163 541 -161 q 542 -168 541 -165 q 546 -228 547 -186 q 541 -276 546 -271 q 481 -277 539 -277 l 424 -277 l 422 -271 q 418 -217 418 -254 q 422 -168 418 -181 q 422 -156 424 -162 q 418 -102 418 -138 q 422 -52 418 -66 q 422 -40 424 -46 q 418 14 418 -22 q 422 64 418 50 l 424 69 l 405 70 l 385 71 l 384 76 q 380 159 375 107 q 385 182 382 179 q 405 185 388 185 l 424 185 l 422 191 q 418 245 418 210 q 422 296 418 281 q 422 307 424 301 q 418 361 418 326 q 422 411 418 397 l 424 416 l 328 416 q 297 416 312 416 q 271 416 283 416 q 250 416 259 416 q 237 415 241 416 l 232 415 q 238 359 238 404 q 232 302 238 313 q 212 301 231 301 q 194 299 194 301 q 199 244 199 290 q 194 186 199 196 q 212 185 193 185 q 232 184 231 185 q 237 144 235 178 q 237 94 239 111 q 235 87 236 92 q 235 80 235 81 q 233 71 233 72 l 236 71 q 247 70 239 71 q 262 70 254 70 q 283 69 271 69 q 309 69 296 69 l 386 69 l 387 65 q 392 6 393 52 q 386 -45 391 -39 q 288 -46 385 -46 l 192 -45 l 191 -40 q 186 14 186 -22 q 191 64 186 51 l 193 69 l 154 70 l 115 71 l 113 76 q 109 130 109 94 q 114 180 109 166 l 115 185 l 96 186 l 77 186 l 75 191 q 72 275 66 222 q 77 298 74 295 q 96 301 79 301 l 115 301 l 114 307 q 109 363 109 326 q 114 412 109 399 l 116 416 l 154 416 l 193 416 l 191 423 q 186 478 186 441 q 191 528 186 515 z "},"r":{"ha":577,"x_min":71,"x_max":548,"o":"m 75 528 l 77 532 l 154 532 q 232 531 231 532 q 237 491 236 524 q 236 439 239 458 q 232 418 233 420 l 248 416 l 250 416 l 270 416 l 268 423 q 263 478 263 441 q 269 528 264 515 l 270 532 l 386 532 q 503 531 501 532 q 508 491 507 524 q 507 439 509 458 q 503 418 503 420 l 519 416 l 521 416 q 541 415 540 416 q 547 375 545 408 q 545 323 548 342 q 541 302 542 304 q 481 301 539 301 l 424 302 l 422 307 q 418 361 418 324 q 422 411 418 397 l 424 416 l 366 416 q 337 416 351 416 q 317 415 324 416 l 309 415 q 315 359 315 404 q 309 302 315 313 q 289 301 308 301 q 271 299 271 301 q 276 253 275 292 q 273 194 277 214 q 273 176 271 185 q 277 117 277 156 q 271 71 276 79 l 273 71 q 278 70 274 71 q 286 70 281 70 q 296 69 290 69 q 309 69 302 69 q 348 68 347 69 q 353 28 351 62 q 352 -22 355 -5 q 351 -30 351 -24 q 350 -36 350 -35 q 347 -45 349 -43 q 211 -46 346 -46 l 77 -45 l 75 -40 q 71 15 71 -23 q 75 65 71 53 l 77 69 l 115 69 l 154 69 l 153 76 q 148 130 148 94 q 153 180 148 165 q 153 191 154 185 q 148 245 148 210 q 153 296 148 281 q 153 307 154 301 q 148 361 148 326 q 153 412 148 397 l 154 416 l 115 417 l 77 418 l 75 423 q 71 478 71 441 q 75 528 71 516 z "},"s":{"ha":577,"x_min":109,"x_max":548,"o":"m 191 528 l 193 532 l 347 532 q 503 531 501 532 q 508 491 507 524 q 507 439 509 458 q 503 418 503 420 q 366 416 500 416 q 324 416 345 416 q 287 416 303 416 q 257 416 270 416 q 239 415 245 416 l 232 415 q 238 359 238 404 q 232 302 238 313 l 247 302 q 289 301 262 302 q 347 301 316 301 q 464 299 462 301 q 469 259 468 292 q 468 208 471 227 q 464 186 465 188 l 469 186 q 482 185 473 186 q 501 185 491 185 q 541 184 540 185 q 547 144 545 177 q 545 92 548 111 q 544 85 544 88 q 543 81 543 83 q 542 78 543 79 q 542 75 542 76 q 542 73 542 74 q 541 72 542 73 l 541 71 q 501 69 539 69 q 482 69 491 69 q 469 68 473 68 l 464 68 q 469 9 469 58 q 463 -45 469 -39 q 308 -46 462 -46 l 153 -45 l 152 -40 q 148 15 147 -22 q 153 65 148 53 l 155 69 l 289 69 l 424 69 l 422 76 q 418 130 418 94 q 422 180 418 165 l 424 185 l 308 186 l 192 186 l 191 191 q 186 245 186 209 q 191 296 186 282 l 193 301 l 154 301 l 115 302 l 113 307 q 109 362 109 325 q 114 412 109 400 l 116 416 l 154 416 l 193 416 l 191 423 q 186 478 186 441 q 191 528 186 515 z "},"t":{"ha":577,"x_min":109,"x_max":509,"o":"m 230 760 l 231 764 l 290 764 q 348 762 347 764 q 350 754 349 762 q 350 657 359 705 q 350 640 349 648 q 354 580 355 619 q 348 534 353 541 l 358 533 q 385 533 368 533 q 424 532 403 532 q 503 531 501 532 q 508 491 507 524 q 507 439 509 458 q 503 418 503 420 q 425 416 500 416 l 347 416 l 349 410 q 354 353 354 394 q 349 303 353 311 q 348 300 348 302 q 349 295 349 298 q 354 237 354 279 q 349 187 353 195 q 348 184 348 186 q 349 179 349 182 q 353 121 354 162 q 348 71 353 79 q 357 70 347 71 q 386 70 367 70 q 424 69 404 69 q 503 68 501 69 q 508 28 507 61 q 507 -24 509 -5 q 502 -45 503 -43 q 385 -46 500 -46 l 269 -45 l 268 -40 q 263 14 263 -23 q 268 64 263 50 l 270 69 l 250 70 l 231 71 l 229 76 q 224 130 224 94 q 229 180 224 166 q 230 191 231 186 q 225 245 225 210 q 229 296 224 281 q 230 307 231 302 q 225 361 225 326 q 229 412 224 397 l 231 416 l 173 417 l 115 418 l 113 423 q 109 478 109 441 q 114 528 109 516 l 116 532 l 174 532 l 231 532 l 229 538 q 224 593 224 557 q 229 643 224 629 q 230 654 231 650 q 225 710 225 673 q 230 760 225 747 z "},"u":{"ha":577,"x_min":71,"x_max":552,"o":"m 422 528 l 425 532 l 482 532 q 541 531 540 532 q 543 523 542 530 q 543 425 552 476 q 543 408 541 416 q 546 359 546 391 q 543 310 546 327 q 543 292 541 301 q 546 243 546 275 q 543 194 546 212 q 543 176 541 185 q 546 118 547 157 q 541 71 546 79 q 542 64 540 70 q 547 4 547 47 q 541 -45 546 -39 q 481 -46 539 -46 l 424 -45 l 422 -40 q 418 14 418 -23 q 422 64 418 50 l 424 69 l 405 70 l 385 71 l 384 76 q 380 159 375 107 q 385 182 382 179 q 405 185 388 185 l 424 185 l 422 191 q 418 245 418 210 q 422 296 418 281 q 422 307 424 301 q 418 361 418 326 q 422 411 418 397 q 422 423 424 416 q 418 479 418 442 q 422 528 418 515 m 75 528 l 77 532 l 135 532 q 194 531 193 532 q 196 523 195 530 q 195 425 205 476 q 195 408 194 416 q 199 359 199 391 q 195 310 199 327 q 195 292 194 301 q 199 233 200 272 q 194 186 199 194 q 212 185 193 185 q 232 184 231 185 q 237 144 236 177 q 236 92 239 111 q 232 71 233 73 q 241 70 231 71 q 270 70 252 70 q 309 69 289 69 l 386 69 l 387 65 q 392 6 393 52 q 386 -45 391 -39 q 269 -46 385 -46 l 153 -45 l 152 -40 q 148 14 147 -22 q 153 64 148 51 l 154 69 l 115 70 l 77 71 l 75 76 q 71 130 71 94 q 75 180 71 166 q 75 191 77 185 q 71 245 71 210 q 75 296 71 281 q 75 307 77 301 q 71 361 71 326 q 75 411 71 397 q 75 423 77 416 q 71 479 71 442 q 75 528 71 515 z "},"v":{"ha":577,"x_min":109,"x_max":548,"o":"m 114 528 l 116 532 l 174 532 q 232 531 231 532 q 237 491 236 524 q 236 439 239 458 q 232 418 233 420 l 248 416 l 250 416 q 271 415 269 416 q 276 375 275 408 q 275 323 277 342 q 271 302 271 304 q 289 301 269 301 q 309 299 307 301 q 315 259 313 292 q 313 208 316 227 q 309 186 310 188 q 328 185 308 185 l 347 185 l 345 191 q 342 275 336 223 q 347 298 344 295 q 366 301 349 301 l 385 301 l 384 307 q 380 391 375 339 q 385 414 382 411 q 405 416 388 416 l 424 416 l 422 423 q 418 479 418 442 q 422 528 418 515 l 425 532 l 482 532 q 541 531 540 532 q 547 491 545 524 q 545 439 548 458 q 544 433 544 435 q 543 428 543 430 q 542 425 543 427 q 542 422 542 423 q 542 420 542 421 q 541 419 542 420 l 541 418 q 521 416 539 416 q 503 415 501 416 q 508 359 508 406 q 503 302 508 312 q 482 301 501 301 q 464 299 464 301 q 469 244 469 290 q 464 186 469 196 q 444 185 463 185 q 425 184 424 185 q 431 128 431 174 q 425 71 431 81 q 405 69 423 69 q 387 68 385 69 q 392 9 392 58 q 386 -45 391 -39 q 327 -46 385 -46 l 269 -45 l 268 -40 q 263 14 263 -23 q 268 64 263 50 l 270 69 l 250 70 l 231 71 l 229 76 q 224 130 224 94 q 229 180 224 166 l 231 185 l 212 186 l 192 186 l 191 191 q 186 245 186 209 q 191 296 186 282 l 193 300 l 173 301 l 153 302 l 152 307 q 148 361 147 325 q 153 411 148 397 l 154 416 l 134 417 l 115 418 l 113 423 q 109 478 109 441 q 114 528 109 516 z "},"w":{"ha":577,"x_min":71,"x_max":552,"o":"m 75 528 l 77 532 l 135 532 q 194 531 193 532 q 196 523 195 530 q 195 425 205 476 q 195 408 194 416 q 199 359 199 391 q 195 310 199 327 q 195 292 194 301 q 199 233 200 272 q 194 186 199 194 q 212 185 193 185 l 231 185 l 229 191 q 226 275 220 223 q 231 298 228 295 q 250 301 233 301 l 270 301 l 268 307 q 263 361 263 326 q 268 411 263 397 q 268 423 269 416 q 263 478 263 441 q 269 528 264 515 l 270 532 l 309 532 q 348 531 347 532 q 350 523 349 530 q 350 425 359 474 q 350 408 349 416 q 354 349 355 388 q 348 302 353 310 q 366 301 347 301 q 387 299 385 301 q 392 258 391 293 q 391 208 394 224 q 390 205 391 207 q 389 200 390 203 q 389 196 389 197 q 387 187 387 188 l 403 185 l 405 185 l 424 185 l 422 191 q 418 245 418 210 q 422 296 418 281 q 422 307 424 301 q 418 361 418 326 q 422 411 418 397 q 422 423 424 416 q 418 479 418 442 q 422 528 418 515 l 425 532 l 482 532 q 541 531 540 532 q 543 523 542 530 q 543 425 552 476 q 543 408 541 416 q 547 349 547 388 q 541 302 546 310 q 521 301 540 301 q 503 299 503 301 q 508 253 507 292 q 504 194 508 214 q 504 176 503 185 q 508 117 509 156 q 503 71 507 79 q 482 69 500 69 q 464 68 463 69 q 469 9 469 58 q 463 -45 469 -39 q 423 -46 462 -46 l 385 -45 l 384 -40 q 379 14 379 -23 q 384 64 379 50 l 386 69 l 366 70 l 347 71 l 345 76 q 340 130 340 94 q 345 180 340 165 l 347 185 l 309 185 q 297 185 302 185 q 286 185 291 185 q 278 184 281 184 q 273 184 274 184 l 271 184 q 276 127 276 175 q 271 71 276 80 q 250 69 269 69 q 232 68 231 69 q 237 9 237 58 q 232 -45 237 -39 q 192 -46 231 -46 l 153 -45 l 152 -40 q 148 14 147 -22 q 153 64 148 50 l 154 69 l 134 70 l 115 71 l 113 76 q 109 130 109 94 q 114 180 109 166 q 114 191 115 185 q 109 245 109 210 q 114 296 109 281 l 115 300 l 96 301 l 77 302 l 75 307 q 71 361 71 324 q 75 411 71 397 q 75 423 77 416 q 71 479 71 442 q 75 528 71 515 z "},"x":{"ha":577,"x_min":105,"x_max":509,"o":"m 114 528 l 116 532 l 174 532 q 232 531 231 532 q 237 491 236 524 q 236 439 239 458 q 232 418 233 420 l 248 416 l 250 416 q 271 415 269 416 q 276 375 275 408 q 275 323 277 342 q 271 302 271 304 l 275 302 q 289 301 280 302 q 309 301 298 301 l 347 301 l 345 307 q 342 391 336 339 q 347 414 344 411 q 366 416 349 416 l 385 416 l 384 423 q 379 479 379 442 q 384 528 379 515 l 386 532 l 444 532 q 503 531 501 532 q 508 491 507 524 q 507 439 509 458 q 503 418 503 420 q 482 416 500 416 q 464 415 463 416 q 469 359 469 406 q 464 302 469 312 q 424 301 463 301 q 415 301 420 301 q 407 301 411 301 q 400 300 404 300 q 394 300 397 300 q 390 300 392 300 q 387 300 388 300 l 387 299 q 393 244 393 288 q 387 186 393 197 l 391 186 q 405 185 396 186 q 424 185 414 185 q 464 184 463 185 q 469 144 468 177 q 468 92 471 111 q 464 71 465 73 l 480 69 l 482 69 q 503 68 501 69 q 508 28 507 61 q 507 -24 509 -5 q 502 -45 503 -43 q 443 -46 500 -46 l 385 -45 l 384 -40 q 379 14 379 -23 q 384 64 379 50 l 386 69 l 366 70 l 347 71 l 345 76 q 340 130 340 94 q 345 180 340 165 l 347 185 l 309 185 q 297 185 302 185 q 286 185 291 185 q 278 184 281 184 q 273 184 274 184 l 271 184 q 277 128 277 173 q 271 71 277 82 q 250 69 269 69 q 232 68 231 69 q 237 9 237 58 q 232 -45 237 -39 q 173 -46 231 -46 l 115 -45 l 113 -40 q 111 43 105 -11 q 115 66 113 64 q 135 69 118 69 l 154 69 l 153 76 q 148 132 148 95 q 153 181 148 168 l 155 185 l 193 185 l 231 185 l 229 191 q 224 245 224 210 q 229 296 224 281 l 231 301 l 193 301 l 153 302 l 152 307 q 148 361 147 325 q 153 411 148 397 l 154 416 l 134 417 l 115 418 l 113 423 q 109 478 109 441 q 114 528 109 516 z "},"y":{"ha":577,"x_min":71,"x_max":548,"o":"m 75 528 l 77 532 l 135 532 q 194 531 193 532 q 199 491 198 524 q 197 439 201 458 q 196 433 197 435 q 196 428 196 430 q 195 425 195 427 q 195 422 195 423 q 195 420 195 421 q 194 419 195 420 l 194 418 l 210 416 l 212 416 q 232 415 231 416 q 237 375 236 408 q 236 323 239 342 q 232 302 233 304 q 250 301 231 301 q 271 299 269 301 q 276 259 275 292 q 275 208 277 227 q 271 186 271 188 q 289 185 269 185 q 309 184 308 185 q 315 144 313 177 q 313 92 316 111 q 309 71 310 73 l 326 69 l 328 69 l 347 69 l 345 76 q 340 130 340 94 q 345 180 340 165 q 345 191 347 185 q 342 275 336 223 q 347 298 344 295 q 366 301 349 301 l 385 301 l 384 307 q 380 391 375 339 q 385 414 382 411 q 405 416 388 416 l 424 416 l 422 423 q 418 479 418 442 q 422 528 418 515 l 425 532 l 482 532 q 541 531 540 532 q 547 491 545 524 q 545 439 548 458 q 544 433 544 435 q 543 428 543 430 q 542 425 543 427 q 542 422 542 423 q 542 420 542 421 q 541 419 542 420 l 541 418 q 521 416 539 416 q 503 415 501 416 q 508 359 508 406 q 503 302 508 312 q 482 301 501 301 q 464 299 464 301 q 469 244 469 290 q 464 186 469 196 q 444 185 463 185 q 425 184 424 185 q 431 128 431 174 q 425 71 431 81 q 405 69 423 69 q 387 68 385 69 q 392 12 392 58 q 387 -45 392 -35 q 366 -46 385 -46 q 348 -48 348 -46 q 354 -103 354 -59 q 348 -161 354 -150 q 309 -162 347 -162 q 297 -162 302 -162 q 286 -162 291 -162 q 278 -163 281 -163 q 273 -163 274 -163 l 271 -163 q 276 -221 276 -172 q 271 -276 276 -271 q 192 -277 269 -277 l 115 -277 l 113 -271 q 109 -216 109 -254 q 114 -166 109 -178 l 116 -162 l 174 -162 l 231 -162 l 229 -156 q 224 -102 224 -138 q 229 -52 224 -66 q 230 -40 231 -45 q 225 14 225 -22 q 229 64 224 50 l 231 69 l 212 70 l 192 71 l 191 76 q 186 130 186 94 q 191 180 186 166 l 193 185 l 173 186 l 153 186 l 152 191 q 148 245 147 209 q 153 296 148 282 l 154 300 l 134 301 l 115 302 l 113 307 q 109 361 109 325 q 114 411 109 397 l 115 416 l 96 417 l 77 418 l 75 423 q 71 478 71 441 q 75 528 71 516 z "},"z":{"ha":577,"x_min":109,"x_max":509,"o":"m 114 181 l 116 185 l 174 185 l 231 185 l 233 181 q 238 123 238 168 q 232 71 237 79 q 249 70 231 71 q 299 70 267 70 q 366 69 332 69 q 503 68 501 69 q 508 28 506 62 q 507 -22 509 -5 q 505 -30 506 -24 q 505 -36 505 -35 q 502 -45 503 -43 q 308 -46 500 -46 l 115 -45 l 113 -40 q 109 14 109 -22 q 114 64 109 50 q 114 76 115 69 q 109 132 109 95 q 114 181 109 168 m 230 296 l 231 301 l 290 301 l 347 301 l 349 296 q 354 237 354 283 q 348 186 353 192 q 288 186 347 186 l 231 186 l 229 191 q 225 247 224 209 q 230 296 225 284 m 114 528 l 116 532 l 309 532 q 503 531 501 532 q 508 491 506 525 q 507 441 509 458 q 505 434 506 439 q 505 427 505 429 q 503 418 503 419 q 482 416 500 416 q 464 415 463 416 q 469 357 469 406 q 463 302 469 308 q 404 301 462 301 l 347 302 l 345 307 q 340 361 340 324 q 345 412 340 398 l 347 416 l 231 417 l 115 418 l 113 423 q 109 478 109 441 q 114 528 109 516 z "},"{":{"ha":577,"x_min":147,"x_max":509,"o":"m 269 296 l 270 301 l 309 301 q 348 299 346 301 q 353 259 351 293 q 352 209 355 226 q 351 202 351 207 q 350 196 350 197 q 350 176 349 185 q 354 117 355 156 q 348 71 353 79 l 350 71 q 355 70 351 71 q 363 70 359 70 q 374 69 368 69 q 386 69 380 69 q 425 68 424 69 q 430 28 429 62 q 429 -22 432 -5 q 428 -29 429 -24 q 427 -35 427 -35 q 425 -45 426 -44 l 430 -45 q 443 -46 434 -45 q 463 -46 452 -46 q 503 -48 500 -46 q 508 -88 506 -54 q 507 -138 509 -121 q 505 -145 506 -140 q 505 -151 505 -150 q 502 -161 503 -159 q 443 -161 501 -161 l 385 -161 l 384 -156 q 379 -102 379 -138 q 384 -52 379 -65 l 386 -46 l 347 -46 l 308 -45 l 307 -40 q 302 14 302 -23 q 307 64 302 50 l 309 69 l 289 70 l 269 71 l 268 76 q 263 130 263 94 q 268 180 263 166 q 268 191 269 185 q 263 247 263 210 q 269 296 264 283 m 153 412 l 155 416 l 212 416 l 270 416 l 272 412 q 277 353 277 399 q 271 302 276 308 q 211 301 269 301 l 153 302 l 152 307 q 148 362 147 325 q 153 412 148 400 m 384 876 l 386 880 l 444 880 q 503 878 501 880 q 508 839 506 872 q 507 788 509 805 q 505 781 506 787 q 505 774 505 776 q 503 766 503 766 q 463 764 500 764 q 444 763 452 764 q 430 762 435 763 l 425 762 q 431 707 431 753 q 425 650 431 659 q 386 648 424 648 q 374 648 380 648 q 363 648 368 648 q 355 647 359 648 q 350 647 351 647 l 348 646 q 353 600 353 639 q 350 541 354 561 q 350 524 349 532 q 354 463 355 503 q 348 418 353 423 q 308 417 347 417 l 269 418 l 268 423 q 263 477 263 441 q 268 527 263 513 q 268 538 269 532 q 264 622 259 570 q 269 645 267 642 q 289 648 272 648 l 309 648 l 307 654 q 302 710 302 673 q 307 760 302 747 l 309 764 l 347 764 l 385 764 l 384 770 q 379 826 379 789 q 384 876 379 863 z "},"|":{"ha":577,"x_min":263,"x_max":397,"o":"m 269 876 l 270 880 l 328 880 q 387 878 385 880 q 389 870 387 878 q 389 772 397 821 q 389 755 387 764 q 392 706 392 738 q 389 657 392 674 q 389 640 387 648 q 392 590 392 622 q 389 541 392 559 q 389 524 387 532 q 392 465 393 504 q 387 418 391 426 q 388 411 385 417 q 392 353 393 395 q 387 303 391 311 q 388 295 385 302 q 392 237 393 279 q 387 187 391 195 q 388 179 385 186 q 392 121 393 163 q 387 71 391 79 q 388 64 385 70 q 392 6 393 47 q 387 -44 391 -36 q 388 -52 385 -45 q 392 -113 393 -70 q 386 -161 391 -155 q 327 -161 385 -161 l 269 -161 l 268 -156 q 263 -102 263 -138 q 268 -52 263 -65 q 268 -40 269 -46 q 263 14 263 -22 q 268 64 263 50 q 268 76 269 69 q 263 130 263 94 q 268 180 263 165 q 268 191 269 185 q 263 245 263 210 q 268 296 263 281 q 268 307 269 301 q 263 361 263 326 q 268 411 263 397 q 268 423 269 416 q 263 477 263 441 q 268 527 263 513 q 268 538 269 532 q 263 593 263 557 q 268 643 263 629 q 268 654 269 648 q 263 708 263 673 q 268 758 263 744 q 268 770 269 764 q 263 826 263 789 q 269 876 264 863 z "},"}":{"ha":577,"x_min":109,"x_max":471,"o":"m 269 296 l 270 301 l 309 301 l 347 301 l 349 296 q 354 249 353 286 q 350 194 354 213 q 349 185 349 187 q 350 176 349 183 q 354 117 355 156 q 348 71 353 79 q 328 69 346 69 q 309 68 308 69 q 315 12 315 57 q 309 -45 315 -34 q 270 -46 308 -46 q 258 -46 264 -46 q 247 -46 252 -46 q 239 -47 243 -47 q 233 -47 235 -47 l 232 -48 q 237 -106 237 -57 q 232 -161 237 -155 q 173 -161 231 -161 l 115 -161 l 113 -156 q 109 -101 109 -138 q 114 -51 109 -63 l 116 -46 l 154 -46 l 193 -46 l 191 -40 q 186 15 186 -22 q 191 65 186 52 l 193 69 l 231 69 l 270 69 l 268 76 q 263 130 263 94 q 268 180 263 165 q 268 191 269 185 q 263 247 263 210 q 269 296 264 283 m 345 412 l 347 416 l 405 416 q 464 415 463 416 q 469 375 467 409 q 468 325 471 342 q 467 318 467 323 q 466 311 466 313 q 463 302 465 304 q 404 301 462 301 l 347 302 l 345 307 q 340 362 340 324 q 345 412 340 400 m 114 876 l 116 880 l 174 880 q 232 878 231 880 q 237 839 235 872 q 237 788 239 805 q 235 781 236 787 q 235 774 235 776 q 233 766 233 766 l 235 765 q 239 765 236 765 q 247 764 243 764 q 258 764 252 764 q 270 764 264 764 q 309 762 308 764 q 314 723 313 756 q 313 672 316 689 q 312 666 313 671 q 312 659 312 661 q 309 650 311 651 q 328 648 308 648 q 348 646 346 648 q 353 607 351 640 q 352 556 355 573 q 351 549 351 554 q 350 543 350 545 q 350 524 349 532 q 354 463 355 503 q 348 418 353 423 q 308 417 347 417 l 269 418 l 268 423 q 263 477 263 441 q 268 527 263 513 q 268 538 269 532 q 263 593 263 557 q 268 643 263 629 l 270 648 l 231 648 l 192 649 l 191 654 q 186 709 186 672 q 191 759 186 745 l 193 764 l 154 764 l 115 765 l 113 770 q 109 826 109 788 q 114 876 109 863 z "},"~":{"ha":577,"x_min":66,"x_max":552,"o":"m 153 760 l 155 764 l 231 764 q 309 762 308 764 q 315 722 313 755 q 313 670 316 689 q 309 650 310 651 q 328 648 308 648 q 348 646 346 648 q 353 607 352 640 q 352 555 355 574 q 348 534 349 535 l 353 533 q 366 533 357 533 q 385 532 375 532 l 424 532 l 422 538 q 418 593 418 557 q 422 643 418 629 q 422 654 424 648 q 418 710 418 673 q 422 760 418 747 l 425 764 l 482 764 q 541 762 540 764 q 543 754 542 762 q 543 657 552 707 q 543 640 541 648 q 547 580 547 619 q 541 534 546 541 q 521 532 540 532 q 503 531 501 532 q 508 475 508 522 q 503 418 508 428 q 482 416 500 416 q 464 415 463 416 q 469 357 469 406 q 463 302 469 308 q 385 301 462 301 l 308 302 l 307 307 q 302 361 302 324 q 307 411 302 397 l 309 416 l 289 417 l 269 418 l 268 423 q 263 477 263 441 q 268 527 263 513 l 270 532 l 231 532 q 212 532 221 532 q 199 532 203 532 l 194 531 q 199 484 199 524 q 195 425 199 445 q 195 408 194 416 q 199 347 200 387 q 193 302 198 307 q 134 301 192 301 l 77 302 l 75 307 q 71 361 71 324 q 75 411 71 397 q 75 423 77 416 q 72 506 66 455 q 77 529 74 526 q 96 532 79 532 l 115 532 l 114 538 q 111 622 105 570 q 115 645 113 642 q 135 648 118 648 l 154 648 l 153 654 q 148 710 148 673 q 153 760 148 747 z "},"":{"ha":577,"x_min":263,"x_max":397,"o":"m 269 412 l 270 416 l 328 416 q 387 415 385 416 q 389 407 387 414 q 389 310 397 358 q 389 292 387 300 q 392 243 392 275 q 389 194 392 212 q 389 176 387 185 q 392 127 392 159 q 389 78 392 95 q 389 61 387 69 q 392 2 393 41 q 387 -44 391 -37 q 388 -52 385 -45 q 392 -113 393 -70 q 386 -161 391 -155 q 327 -161 385 -161 l 269 -161 l 268 -156 q 263 -102 263 -138 q 268 -52 263 -65 q 268 -40 269 -46 q 263 14 263 -22 q 268 64 263 50 q 268 76 269 69 q 263 130 263 94 q 268 180 263 165 q 268 191 269 185 q 263 245 263 210 q 268 296 263 281 q 268 307 269 301 q 263 362 263 326 q 269 412 264 399 m 269 644 l 270 648 l 328 648 q 387 646 385 648 q 392 607 390 640 q 391 556 393 573 q 389 549 390 554 q 389 543 389 545 q 386 534 387 535 q 327 533 385 533 l 269 533 l 268 538 q 263 594 263 556 q 269 644 264 631 z "},"":{"ha":577,"x_min":66,"x_max":548,"o":"m 269 876 l 270 880 l 309 880 q 348 878 347 880 q 350 870 349 878 q 350 772 359 821 q 350 755 349 764 q 354 696 355 735 q 348 650 353 657 l 355 650 q 376 649 363 649 q 405 648 389 648 q 464 646 462 648 q 469 607 468 640 q 468 555 471 574 q 464 534 465 535 l 469 533 q 482 533 473 533 q 501 532 491 532 q 541 531 540 532 q 547 491 545 524 q 545 439 548 458 q 541 418 542 420 q 481 417 539 417 l 424 418 l 422 423 q 418 477 418 441 q 422 527 418 513 l 424 532 l 328 532 q 297 532 312 532 q 271 532 283 532 q 250 532 259 532 q 237 532 241 532 l 232 531 q 238 475 238 520 q 232 418 238 429 q 212 416 230 416 q 194 415 193 416 q 199 359 199 406 q 194 302 199 312 q 212 301 193 301 q 232 299 230 301 q 237 259 236 292 q 236 208 239 227 q 232 186 233 188 l 244 186 q 279 185 257 186 q 328 185 302 185 l 424 185 l 422 191 q 418 247 418 210 q 422 296 418 283 l 425 301 l 482 301 q 541 299 539 301 q 547 259 545 292 q 545 208 548 227 q 543 196 543 201 q 542 189 542 191 q 541 186 541 187 q 501 185 540 185 q 482 185 491 185 q 469 184 473 184 l 464 184 q 469 128 469 174 q 464 71 469 81 q 405 69 462 69 q 376 69 389 69 q 355 68 363 68 l 348 68 q 353 21 353 60 q 350 -37 354 -18 q 350 -55 349 -46 q 354 -116 355 -76 q 348 -161 353 -156 q 308 -161 347 -161 l 269 -161 l 268 -156 q 263 -102 263 -138 q 268 -52 263 -65 q 268 -40 269 -46 q 263 14 263 -22 q 268 64 263 50 l 270 69 l 231 70 l 192 71 l 191 76 q 186 130 186 94 q 191 180 186 166 l 193 185 l 154 186 l 115 186 l 113 191 q 109 245 109 209 q 114 296 109 282 l 115 300 l 96 301 l 77 302 l 75 307 q 72 391 66 338 q 77 414 74 411 q 96 416 79 416 l 115 416 l 114 423 q 109 479 109 442 q 114 528 109 515 l 116 532 l 154 532 l 193 532 l 191 538 q 186 594 186 557 q 191 644 186 631 l 193 648 l 231 648 l 270 648 l 268 654 q 263 708 263 673 q 268 758 263 744 q 268 770 269 764 q 263 826 263 789 q 269 876 264 863 z "},"":{"ha":577,"x_min":71,"x_max":548,"o":"m 461 181 l 463 185 l 501 185 q 541 184 540 185 q 546 144 545 178 q 545 94 548 111 q 544 87 545 92 q 543 80 543 81 q 541 71 542 72 q 521 69 539 69 q 503 68 501 69 q 508 9 508 58 q 502 -45 507 -39 q 385 -46 500 -46 l 269 -45 l 268 -40 q 263 15 263 -22 q 269 65 264 53 l 270 69 l 366 69 l 463 69 l 461 76 q 456 132 456 95 q 461 181 456 168 m 230 760 l 231 764 l 347 764 q 464 762 463 764 q 469 722 468 755 q 468 670 471 689 q 464 650 465 651 q 482 648 463 648 q 503 646 500 648 q 508 607 507 640 q 507 555 509 574 q 502 534 503 535 q 462 533 501 533 l 424 533 l 422 538 q 418 593 418 556 q 422 643 418 629 l 424 648 l 347 648 q 309 648 328 648 q 280 647 290 648 q 271 646 270 647 q 276 600 275 639 q 273 541 277 561 q 273 524 271 532 q 277 465 277 503 q 271 418 276 426 l 273 418 q 278 417 274 418 q 286 417 281 417 q 296 416 290 416 q 309 416 302 416 q 348 415 347 416 q 353 375 352 408 q 352 323 355 342 q 348 302 349 304 q 309 301 347 301 l 271 301 l 272 295 q 276 237 277 279 q 271 187 276 195 q 271 184 271 186 q 272 179 271 182 q 276 121 277 162 q 271 71 275 79 q 231 69 269 69 q 212 69 221 69 q 199 68 203 68 l 194 68 q 199 9 199 58 q 193 -45 199 -39 q 134 -46 192 -46 l 77 -45 l 75 -40 q 71 15 71 -23 q 75 65 71 53 l 77 69 l 115 69 l 154 69 l 153 76 q 148 130 148 94 q 153 180 148 165 q 153 191 154 185 q 148 245 148 210 q 153 296 148 281 l 154 301 l 115 301 l 77 302 l 75 307 q 71 362 71 324 q 75 412 71 400 l 77 416 l 115 416 l 154 416 l 153 423 q 148 477 148 441 q 153 527 148 513 q 153 538 154 532 q 148 594 148 557 q 153 644 148 631 l 155 648 l 193 648 l 231 648 l 229 654 q 225 710 224 673 q 230 760 225 747 z "},"":{"ha":577,"x_min":105,"x_max":509,"o":"m 114 644 l 116 648 l 154 648 q 194 646 192 648 q 199 607 198 640 q 197 555 201 574 q 195 543 196 548 q 194 536 195 538 q 194 534 194 534 l 209 533 q 251 533 224 533 q 309 532 277 532 l 424 532 l 422 538 q 418 594 418 557 q 422 644 418 631 l 425 648 l 463 648 q 503 646 500 648 q 508 607 507 640 q 507 555 509 574 q 503 534 503 535 q 482 532 501 532 q 464 531 463 532 q 469 475 469 522 q 464 418 469 428 l 480 416 l 482 416 q 499 416 496 416 q 503 412 503 415 q 508 365 508 401 q 504 310 508 329 q 504 292 503 301 q 508 233 509 272 q 503 186 507 194 q 482 185 501 185 q 464 184 463 185 q 469 128 469 174 q 464 71 469 81 l 480 69 l 482 69 q 502 66 499 69 q 507 45 505 64 q 508 -10 509 21 q 502 -45 506 -41 q 462 -46 500 -46 l 424 -45 l 422 -40 q 418 14 418 -23 q 422 64 418 50 l 424 69 l 309 69 q 282 69 295 69 q 258 69 269 69 q 237 69 247 69 q 219 68 227 68 q 205 68 211 68 q 197 68 199 68 l 194 68 q 199 9 199 58 q 193 -45 199 -39 q 153 -46 192 -46 l 115 -45 l 113 -40 q 111 43 105 -11 q 115 66 113 64 q 135 69 118 69 l 154 69 l 153 76 q 148 130 148 94 q 153 180 148 165 l 154 185 l 134 186 l 115 186 l 113 191 q 109 245 109 209 q 114 296 109 282 q 114 307 115 301 q 111 391 105 339 q 115 414 113 411 q 135 416 118 416 l 154 416 l 153 423 q 148 477 148 441 q 153 527 148 513 l 154 532 l 134 533 l 115 533 l 113 538 q 109 594 109 556 q 114 644 109 631 m 422 411 l 424 416 l 309 416 q 282 416 295 416 q 258 416 269 416 q 237 416 247 416 q 219 416 227 416 q 205 416 211 416 q 197 415 199 416 l 194 415 q 199 369 199 408 q 195 310 199 330 q 195 292 194 301 q 199 233 200 272 q 194 186 199 194 l 209 186 q 251 185 224 186 q 309 185 277 185 l 424 185 l 422 191 q 418 245 418 210 q 422 296 418 281 q 422 307 424 301 q 418 361 418 326 q 422 411 418 397 z "},"":{"ha":577,"x_min":109,"x_max":548,"o":"m 114 760 l 116 764 l 193 764 q 271 762 269 764 q 273 754 272 761 q 273 657 282 707 q 273 640 271 648 q 277 580 277 619 q 271 534 276 541 q 289 532 269 532 q 309 531 308 532 q 315 490 313 525 q 313 440 317 456 q 312 434 313 439 q 312 427 312 429 q 309 418 311 420 l 326 416 l 328 416 l 347 416 l 345 423 q 342 506 336 455 q 347 529 344 526 q 366 532 349 532 l 385 532 l 384 538 q 379 593 379 557 q 384 643 379 629 q 384 654 385 648 q 379 710 379 673 q 384 760 379 747 l 386 764 l 463 764 q 541 762 540 764 q 547 722 545 755 q 545 670 548 689 q 544 664 544 667 q 543 660 543 661 q 542 656 543 658 q 542 653 542 654 q 542 652 542 652 q 541 650 542 651 l 541 650 q 521 648 540 648 q 503 646 503 648 q 508 591 508 637 q 503 534 508 543 q 482 532 501 532 q 464 531 463 532 q 469 475 469 522 q 464 418 469 428 l 480 416 l 482 416 q 503 415 501 416 q 508 375 507 408 q 507 323 509 342 q 503 302 503 304 q 444 301 501 301 q 426 301 435 301 q 410 301 416 301 q 397 300 403 300 q 389 300 392 300 l 387 299 q 393 244 393 288 q 387 186 393 197 l 394 186 q 415 185 401 186 q 444 185 428 185 q 503 184 501 185 q 508 144 506 178 q 507 94 509 111 q 505 87 506 92 q 505 80 505 81 q 503 71 503 72 q 444 69 500 69 l 386 69 l 388 63 q 392 3 393 45 q 386 -45 391 -39 q 327 -46 385 -46 l 269 -45 l 268 -40 q 263 14 263 -23 q 268 64 263 51 l 270 69 l 212 70 l 153 71 l 152 76 q 148 131 147 94 q 153 181 148 169 l 155 185 l 212 185 l 270 185 l 268 191 q 263 245 263 210 q 268 296 263 281 l 270 301 l 212 301 l 153 302 l 152 307 q 149 391 144 336 q 154 414 151 411 q 174 416 157 416 l 193 416 l 191 423 q 186 477 186 441 q 191 527 186 513 l 193 532 l 173 533 l 153 533 l 152 538 q 148 593 147 556 q 153 643 148 629 l 154 648 l 134 648 l 115 649 l 113 654 q 109 710 109 672 q 114 760 109 747 z "},"":{"ha":577,"x_min":263,"x_max":393,"o":"m 269 296 l 270 301 l 328 301 q 387 299 385 301 q 392 259 390 293 q 391 209 393 226 q 389 202 390 207 q 389 196 389 197 q 389 176 387 185 q 392 127 393 158 q 389 78 392 96 q 389 61 387 69 q 392 12 392 43 q 389 -37 392 -20 q 389 -55 387 -46 q 392 -116 393 -76 q 386 -161 391 -155 q 327 -161 385 -161 l 269 -161 l 268 -156 q 263 -102 263 -138 q 268 -52 263 -65 q 268 -40 269 -46 q 263 14 263 -22 q 268 64 263 50 q 268 76 269 69 q 263 130 263 94 q 268 180 263 165 q 268 191 269 185 q 263 247 263 210 q 269 296 264 283 m 269 876 l 270 880 l 328 880 q 387 878 385 880 q 392 839 390 872 q 391 788 393 805 q 389 781 390 786 q 389 774 389 776 q 389 755 387 764 q 392 706 393 737 q 389 657 392 675 q 389 640 387 648 q 392 590 392 622 q 389 541 392 559 q 389 524 387 532 q 392 463 393 503 q 386 418 391 424 q 327 417 385 417 l 269 418 l 268 423 q 263 477 263 441 q 268 527 263 513 q 268 538 269 532 q 263 593 263 557 q 268 643 263 629 q 268 654 269 648 q 263 708 263 673 q 268 758 263 744 q 268 770 269 764 q 263 826 263 789 q 269 876 264 863 z "},"":{"ha":577,"x_min":109,"x_max":548,"o":"m 191 760 l 193 764 l 347 764 q 503 762 501 764 q 508 722 507 755 q 507 670 509 689 q 503 650 503 651 q 366 648 501 648 q 299 648 332 648 q 249 647 267 648 q 232 646 231 647 q 238 591 238 635 q 232 534 238 545 l 244 533 q 279 533 257 533 q 328 532 302 532 q 425 531 424 532 q 431 491 429 524 q 429 439 432 458 q 425 418 426 420 l 427 418 q 432 417 429 418 q 440 417 435 417 q 451 416 445 416 q 463 416 456 416 q 503 415 501 416 q 505 407 503 414 q 504 310 513 360 q 504 292 503 300 q 508 233 509 272 q 503 186 507 194 q 482 185 501 185 q 464 184 463 185 q 469 128 469 174 q 464 71 469 81 l 465 71 q 471 70 467 71 q 479 70 474 70 q 489 69 484 69 q 501 69 495 69 q 541 68 540 69 q 546 28 545 62 q 545 -22 548 -5 q 544 -29 545 -24 q 543 -35 543 -35 q 541 -45 542 -44 q 501 -46 540 -46 q 493 -46 497 -46 q 485 -46 488 -46 q 477 -47 481 -47 q 472 -47 474 -47 q 467 -47 469 -47 q 465 -47 465 -47 l 464 -48 q 469 -106 469 -58 q 463 -161 469 -155 q 308 -161 463 -161 l 153 -161 l 152 -156 q 148 -101 147 -138 q 153 -51 148 -63 l 155 -46 l 289 -46 l 424 -46 l 422 -40 q 418 14 418 -22 q 422 64 418 50 l 424 69 l 328 70 l 231 71 l 229 76 q 224 130 224 94 q 229 180 224 166 l 231 185 l 193 186 l 153 186 l 152 191 q 148 245 147 209 q 153 296 148 282 q 153 307 154 301 q 149 391 144 339 q 154 414 151 411 q 174 416 157 416 l 193 416 l 191 423 q 186 477 186 441 q 191 527 186 513 l 193 532 l 154 533 l 115 533 l 113 538 q 109 594 109 556 q 114 644 109 631 l 116 648 l 154 648 l 193 648 l 191 654 q 186 710 186 673 q 191 760 186 747 m 384 412 l 386 416 l 309 416 q 291 416 300 416 q 275 416 282 416 q 260 416 267 416 q 249 416 254 416 q 239 416 243 416 q 233 415 235 416 l 232 415 q 238 359 238 404 q 232 302 238 313 q 251 301 231 301 q 271 298 268 301 q 275 277 273 296 q 276 223 278 254 q 271 186 274 193 l 281 186 q 308 185 290 186 q 347 185 326 185 l 424 185 l 422 191 q 418 245 418 210 q 422 296 418 281 l 424 300 l 405 301 l 385 302 l 384 307 q 379 361 379 324 q 384 412 379 397 z "},"":{"ha":577,"x_min":109,"x_max":509,"o":"m 384 991 l 386 996 l 444 996 q 503 994 500 996 q 508 954 506 987 q 507 903 509 920 q 505 897 506 901 q 505 890 505 892 q 502 881 503 882 q 443 880 501 880 l 385 880 l 384 886 q 379 941 379 903 q 384 991 379 979 m 114 991 l 116 996 l 174 996 q 232 994 230 996 q 237 954 235 987 q 237 903 239 920 q 235 897 236 901 q 235 890 235 892 q 232 881 233 882 q 173 880 231 880 l 115 880 l 113 886 q 109 941 109 903 q 114 991 109 979 z "},"":{"ha":577,"x_min":105,"x_max":513,"o":"m 191 -51 l 193 -46 l 309 -46 l 425 -46 l 426 -51 q 431 -110 431 -64 q 425 -161 430 -155 q 308 -161 424 -161 l 192 -161 l 191 -156 q 186 -101 186 -138 q 191 -51 186 -63 m 269 644 l 270 648 l 328 648 q 387 646 385 648 q 392 607 391 640 q 391 555 393 574 q 387 534 387 535 q 347 532 385 532 q 335 532 341 532 q 325 532 330 532 q 316 532 320 532 q 311 532 313 532 l 309 531 q 315 484 314 524 q 311 425 315 445 q 311 408 310 416 q 315 359 315 391 q 311 310 315 327 q 311 292 310 301 q 315 233 316 272 q 309 186 315 194 l 314 186 q 328 185 319 186 q 347 185 337 185 q 387 184 385 185 q 392 144 390 178 q 391 94 393 111 q 389 86 390 92 q 389 80 389 81 q 386 71 387 73 q 327 70 385 70 l 269 71 l 268 76 q 263 130 263 94 q 268 180 263 166 l 270 185 l 250 186 l 231 186 l 229 191 q 224 245 224 209 q 229 296 224 282 q 230 307 231 302 q 225 361 225 326 q 229 411 224 397 q 230 423 231 418 q 226 506 221 456 q 231 529 228 526 q 250 532 233 532 l 270 532 l 268 538 q 263 594 263 557 q 269 644 264 631 m 422 760 q 426 763 423 762 q 444 764 429 764 q 464 762 463 764 q 469 722 468 755 q 468 670 471 689 q 464 650 465 651 q 482 648 463 648 q 503 646 500 648 q 505 638 503 646 q 504 541 513 591 q 504 524 503 532 q 507 474 507 506 q 504 425 507 442 q 504 408 503 416 q 507 359 507 391 q 504 310 507 327 q 504 292 503 301 q 507 243 507 275 q 504 194 507 212 q 504 176 503 185 q 508 117 509 156 q 503 71 507 79 q 482 69 500 69 q 464 68 463 69 q 469 10 469 58 q 463 -45 469 -39 q 443 -46 462 -46 q 426 -45 429 -45 q 422 -40 423 -44 q 418 14 418 -23 q 422 64 418 50 q 422 76 424 69 q 418 130 418 94 q 422 180 418 165 q 422 191 424 185 q 418 245 418 210 q 422 296 418 281 q 422 307 424 301 q 418 361 418 326 q 422 411 418 397 q 422 423 424 416 q 418 477 418 441 q 422 527 418 513 q 422 538 424 532 q 418 593 418 557 q 422 643 418 629 q 422 654 424 648 q 418 710 418 673 q 422 760 418 747 m 153 760 q 156 763 153 762 q 174 764 159 764 q 191 763 188 764 q 195 760 194 762 q 199 712 199 749 q 195 657 199 676 q 194 648 194 650 q 195 640 194 646 q 199 590 199 622 q 195 541 199 559 q 195 524 194 532 q 199 474 199 506 q 195 425 199 442 q 195 408 194 416 q 199 359 199 391 q 195 310 199 327 q 195 292 194 301 q 199 243 199 275 q 195 194 199 212 q 195 176 194 185 q 199 127 199 159 q 195 78 199 95 q 195 61 194 69 q 199 0 200 40 q 193 -45 198 -40 q 172 -46 192 -46 q 156 -45 158 -45 q 152 -40 153 -44 q 148 14 147 -22 q 153 64 148 50 l 154 69 l 134 70 l 115 71 l 113 76 q 109 130 109 94 q 114 180 109 166 q 114 191 115 185 q 109 245 109 210 q 114 296 109 281 q 114 307 115 301 q 109 361 109 326 q 114 411 109 397 q 114 423 115 416 q 109 477 109 441 q 114 527 109 513 q 114 538 115 532 q 111 622 105 570 q 115 645 113 642 q 135 648 118 648 l 154 648 l 153 654 q 148 710 148 673 q 153 760 148 747 m 191 876 l 193 880 l 309 880 q 425 878 424 880 q 430 839 429 872 q 429 788 432 805 q 428 781 429 786 q 427 774 427 776 q 425 766 426 767 q 308 764 423 764 l 192 765 l 191 770 q 186 826 186 788 q 191 876 186 863 z "},"":{"ha":577,"x_min":144,"x_max":475,"o":"m 153 181 l 155 185 l 309 185 q 464 184 463 185 q 469 144 467 178 q 468 94 471 111 q 467 86 467 92 q 466 80 466 81 q 463 71 465 73 q 308 70 462 70 l 153 71 l 152 76 q 148 131 147 94 q 153 181 148 169 m 191 876 l 193 880 l 309 880 q 425 878 424 880 q 431 838 429 871 q 429 786 432 805 q 425 766 426 767 l 441 764 l 444 764 q 464 762 463 764 q 466 754 465 762 q 465 657 475 707 q 466 640 464 650 q 469 590 469 622 q 466 541 469 559 q 466 524 465 532 q 469 474 469 506 q 466 425 469 442 q 466 408 465 416 q 470 348 471 387 q 463 302 469 308 q 327 301 462 301 l 192 302 l 191 307 q 186 361 186 325 q 191 411 186 397 l 193 416 l 173 417 l 153 418 l 152 423 q 149 506 144 452 q 154 529 151 526 q 174 532 157 532 l 193 532 l 191 538 q 186 594 186 557 q 191 644 186 631 l 193 648 l 289 648 l 385 648 l 384 654 q 379 709 379 673 q 384 759 379 745 l 386 764 l 289 764 l 192 765 l 191 770 q 186 826 186 788 q 191 876 186 863 m 384 527 l 386 532 l 309 532 q 291 532 300 532 q 275 532 282 532 q 260 532 267 532 q 249 532 254 532 q 239 532 243 532 q 233 532 235 532 l 232 531 q 238 475 238 520 q 232 418 238 429 q 241 417 231 418 q 270 417 252 417 q 309 416 289 416 l 385 416 l 384 423 q 379 477 379 441 q 384 527 379 513 z "},"":{"ha":577,"x_min":66,"x_max":509,"o":"m 384 528 l 386 532 l 444 532 q 503 531 501 532 q 508 491 507 524 q 507 439 509 458 q 503 418 503 420 q 463 416 500 416 q 444 416 452 416 q 430 415 435 416 l 425 415 q 431 359 431 406 q 425 302 431 312 q 386 301 424 301 q 374 301 380 301 q 363 301 368 301 q 355 300 359 300 q 350 300 351 300 l 348 299 q 354 244 354 288 q 348 186 354 197 l 353 186 q 367 185 357 186 q 386 185 376 185 q 425 184 424 185 q 430 144 429 178 q 429 94 432 111 q 428 87 429 92 q 427 80 427 81 q 425 71 426 72 l 427 71 q 432 70 429 71 q 440 70 435 70 q 450 69 444 69 q 463 69 456 69 q 503 68 501 69 q 508 28 506 62 q 507 -22 509 -5 q 505 -30 506 -24 q 505 -36 505 -35 q 502 -45 503 -43 q 443 -46 500 -46 l 385 -45 l 384 -40 q 379 14 379 -23 q 384 64 379 51 l 386 69 l 347 70 l 308 71 l 307 76 q 302 130 302 94 q 307 180 302 166 l 309 185 l 289 186 l 269 186 l 268 191 q 264 275 259 222 q 269 298 267 295 q 289 301 272 301 l 309 301 l 307 307 q 302 362 302 326 q 307 412 302 399 l 309 416 l 347 416 l 385 416 l 384 423 q 379 479 379 442 q 384 528 379 515 m 191 528 l 193 532 l 251 532 q 309 531 308 532 q 315 491 313 524 q 313 439 316 458 q 309 418 310 420 q 270 416 307 416 q 258 416 264 416 q 248 416 252 416 q 239 416 243 416 q 233 415 235 416 l 232 415 q 238 359 238 404 q 232 302 238 313 q 193 301 231 301 q 184 301 189 301 q 176 301 180 301 q 169 300 172 300 q 163 300 165 300 q 159 300 161 300 q 156 300 157 300 l 155 299 q 161 244 161 290 q 155 186 161 196 l 160 186 q 174 185 165 186 q 193 185 182 185 q 232 184 231 185 q 237 144 235 178 q 237 94 239 111 q 235 87 236 92 q 235 80 235 81 q 233 71 233 72 l 235 71 q 239 70 236 71 q 247 70 243 70 q 258 69 252 69 q 270 69 264 69 l 309 69 l 311 65 q 315 6 316 52 q 309 -45 315 -39 q 250 -46 308 -46 l 192 -45 l 191 -40 q 186 14 186 -22 q 191 64 186 51 l 193 69 l 154 70 l 115 71 l 113 76 q 109 130 109 94 q 114 180 109 166 l 115 185 l 96 186 l 77 186 l 75 191 q 72 275 66 222 q 77 298 74 295 q 96 301 79 301 l 115 301 l 114 307 q 109 363 109 326 q 114 412 109 399 l 116 416 l 154 416 l 193 416 l 191 423 q 186 478 186 441 q 191 528 186 515 z "},"":{"ha":577,"x_min":71,"x_max":552,"o":"m 75 528 l 77 532 l 309 532 q 541 531 540 532 q 543 523 542 530 q 543 425 552 476 q 543 408 541 416 q 546 359 546 391 q 543 310 546 327 q 543 292 541 301 q 546 231 547 271 q 541 186 545 191 q 481 186 540 186 l 424 186 l 422 191 q 418 245 418 209 q 422 296 418 282 q 422 307 424 301 q 418 361 418 326 q 422 412 418 397 l 424 416 l 250 417 l 77 418 l 75 423 q 71 478 71 441 q 75 528 71 516 z "},"":{"ha":577,"x_min":147,"x_max":471,"o":"m 153 412 l 155 416 l 309 416 q 464 415 463 416 q 469 375 467 409 q 468 325 471 342 q 467 318 467 323 q 466 311 466 313 q 463 302 465 304 q 308 301 462 301 l 153 302 l 152 307 q 148 362 147 325 q 153 412 148 400 z "},"":{"ha":577,"x_min":66,"x_max":552,"o":"m 153 -51 l 155 -46 l 309 -46 l 463 -46 l 465 -51 q 469 -110 470 -64 q 463 -161 469 -155 q 308 -161 463 -161 l 153 -161 l 152 -156 q 148 -101 147 -138 q 153 -51 148 -63 m 191 644 l 193 648 l 290 648 q 387 646 385 648 q 392 607 391 640 q 391 555 393 574 q 387 534 387 535 q 405 532 385 532 q 425 531 424 532 q 431 491 429 524 q 429 439 432 458 q 425 418 426 420 q 405 416 423 416 q 387 415 385 416 q 393 359 393 404 q 387 302 393 313 q 405 301 385 301 q 426 296 425 301 q 431 249 431 286 q 427 194 431 213 q 427 176 426 185 q 431 116 432 155 q 425 71 430 77 q 385 70 423 70 l 347 71 l 345 76 q 340 130 340 94 q 345 180 340 166 q 345 191 347 185 q 340 245 340 210 q 345 296 340 281 l 347 301 l 309 301 l 271 301 l 272 295 q 276 246 276 280 q 273 194 277 212 q 273 176 271 185 q 276 116 277 155 q 271 71 275 76 q 231 70 269 70 l 192 71 l 191 76 q 186 130 186 94 q 191 180 186 166 q 191 191 193 185 q 186 245 186 210 q 191 296 186 281 q 191 307 193 301 q 186 361 186 326 q 191 411 186 397 q 191 423 193 416 q 186 477 186 441 q 191 527 186 513 q 191 538 193 532 q 186 594 186 557 q 191 644 186 631 m 345 527 l 347 532 l 309 532 q 297 532 302 532 q 286 532 291 532 q 278 532 281 532 q 273 532 274 532 l 271 531 q 277 475 277 520 q 271 418 277 429 l 273 418 q 278 417 274 418 q 286 417 281 417 q 296 416 290 416 q 309 416 302 416 l 347 416 l 345 423 q 340 477 340 441 q 345 527 340 513 m 461 760 q 465 763 462 762 q 482 764 468 764 q 503 762 501 764 q 508 722 507 755 q 507 670 509 689 q 503 650 503 651 q 521 648 501 648 q 541 646 539 648 q 543 638 542 646 q 543 541 552 591 q 543 524 541 532 q 546 474 546 506 q 543 425 546 442 q 543 408 541 416 q 546 359 546 391 q 543 310 546 327 q 543 292 541 301 q 546 243 546 275 q 543 194 546 212 q 543 176 541 185 q 547 117 547 156 q 541 71 546 79 q 521 69 539 69 q 503 68 501 69 q 508 10 508 58 q 502 -45 507 -39 q 481 -46 500 -46 q 464 -45 467 -45 q 460 -40 461 -44 q 456 14 456 -22 q 461 64 456 50 q 461 76 463 69 q 456 130 456 94 q 461 180 456 165 q 461 191 463 185 q 456 245 456 210 q 461 296 456 281 q 461 307 463 301 q 456 361 456 326 q 461 411 456 397 q 461 423 463 416 q 456 477 456 441 q 461 527 456 513 q 461 538 463 532 q 456 593 456 557 q 461 643 456 629 q 461 654 463 648 q 456 710 456 673 q 461 760 456 747 m 114 760 q 118 763 115 762 q 135 764 121 764 q 152 763 149 764 q 156 760 155 762 q 161 712 161 749 q 157 657 161 676 q 156 648 156 654 q 157 640 156 643 q 160 590 160 622 q 157 541 160 559 q 157 524 155 532 q 160 474 160 506 q 157 425 160 442 q 157 408 155 416 q 160 359 160 391 q 157 310 160 327 q 157 292 155 301 q 160 243 160 275 q 157 194 160 212 q 157 176 155 185 q 160 127 160 159 q 157 78 160 95 q 157 61 155 69 q 160 0 161 40 q 155 -45 159 -40 q 134 -46 153 -46 q 117 -45 120 -45 q 113 -40 114 -44 q 109 14 109 -22 q 114 64 109 50 l 115 69 l 96 70 l 77 71 l 75 76 q 71 130 71 94 q 75 180 71 166 q 75 191 77 185 q 71 245 71 210 q 75 296 71 281 q 75 307 77 301 q 71 361 71 326 q 75 411 71 397 q 75 423 77 416 q 71 477 71 441 q 75 527 71 513 q 75 538 77 532 q 72 622 66 570 q 77 645 74 642 q 96 648 79 648 l 115 648 l 114 654 q 109 710 109 673 q 114 760 109 747 m 153 876 l 155 880 l 309 880 q 464 878 463 880 q 469 839 467 872 q 468 788 471 805 q 467 781 467 786 q 466 774 466 776 q 463 766 465 767 q 308 764 462 764 l 153 765 l 152 770 q 148 826 147 788 q 153 876 148 863 z "},"":{"ha":577,"x_min":186,"x_max":432,"o":"m 191 991 l 193 996 l 309 996 q 425 994 423 996 q 430 954 429 987 q 429 903 432 920 q 428 897 429 901 q 427 890 427 892 q 425 881 426 882 q 308 880 424 880 l 192 880 l 191 886 q 186 941 186 903 q 191 991 186 979 z "},"":{"ha":577,"x_min":144,"x_max":471,"o":"m 191 760 l 193 764 l 309 764 q 425 762 424 764 q 430 723 429 756 q 429 672 432 689 q 428 666 429 671 q 427 659 427 661 q 425 650 426 650 q 444 648 424 648 q 464 646 462 648 q 469 607 467 640 q 468 556 471 573 q 467 549 467 555 q 466 543 466 544 q 464 534 465 535 q 444 532 462 532 q 425 531 424 532 q 430 473 431 522 q 425 418 430 424 q 308 417 423 417 l 192 418 l 191 423 q 186 477 186 441 q 191 527 186 513 l 193 532 l 173 533 l 153 533 l 152 538 q 149 622 144 568 q 154 645 151 642 q 174 648 157 648 l 193 648 l 191 654 q 186 710 186 673 q 191 760 186 747 m 384 643 l 386 648 l 309 648 q 270 648 289 648 q 241 647 252 648 q 232 646 231 647 q 238 591 238 635 q 232 534 238 545 l 241 533 q 270 533 252 533 q 309 532 288 532 l 385 532 l 384 538 q 379 593 379 557 q 384 643 379 629 z "},"":{"ha":577,"x_min":109,"x_max":548,"o":"m 114 181 l 116 185 l 328 185 q 541 184 540 185 q 546 144 545 178 q 545 94 548 111 q 544 86 545 92 q 543 80 543 81 q 541 71 542 73 q 327 70 539 70 l 115 71 l 113 76 q 109 131 109 94 q 114 181 109 169 m 269 876 l 270 880 l 328 880 q 387 878 385 880 q 389 870 387 878 q 389 772 397 821 q 389 755 387 764 q 393 696 393 735 q 387 650 392 657 l 396 650 q 424 649 406 649 q 463 648 441 648 q 541 646 539 648 q 547 607 545 640 q 545 555 548 574 q 543 543 543 548 q 542 536 542 538 q 541 534 541 534 q 463 532 540 532 l 386 532 l 388 526 q 392 468 393 510 q 387 418 391 427 q 388 411 385 417 q 392 351 393 393 q 386 302 391 308 q 327 301 385 301 l 269 302 l 268 307 q 263 361 263 324 q 268 411 263 397 q 268 423 269 416 q 263 477 263 441 q 268 527 263 513 l 270 532 l 193 533 l 115 533 l 113 538 q 109 594 109 556 q 114 644 109 631 l 116 648 l 193 648 l 270 648 l 268 654 q 263 708 263 673 q 268 758 263 744 q 268 770 269 764 q 263 826 263 789 q 269 876 264 863 z "},"":{"ha":577,"x_min":186,"x_max":432,"o":"m 191 528 l 193 532 l 231 532 l 270 532 l 272 528 q 276 471 277 515 q 271 418 276 427 q 280 417 270 418 q 309 417 290 417 q 347 416 328 416 q 425 415 424 416 q 430 375 429 409 q 429 325 432 342 q 428 318 429 323 q 427 311 427 313 q 425 302 426 304 q 308 301 423 301 l 192 302 l 191 307 q 186 361 186 325 q 191 411 186 397 q 191 423 193 416 q 186 479 186 442 q 191 528 186 515 m 269 644 l 270 648 l 309 648 l 347 648 l 349 644 q 354 585 354 630 q 348 534 353 539 q 308 533 347 533 l 269 533 l 268 538 q 263 594 263 556 q 269 644 264 631 m 191 876 l 193 880 l 290 880 q 387 878 385 880 q 392 839 390 872 q 391 788 393 805 q 389 781 390 787 q 389 774 389 776 q 387 766 387 766 l 403 764 l 405 764 q 425 762 424 764 q 430 723 429 756 q 429 672 432 689 q 428 665 429 670 q 427 659 427 660 q 425 650 426 651 q 385 648 423 648 l 347 649 l 345 654 q 340 708 340 671 q 345 759 340 745 l 347 764 l 270 764 l 192 765 l 191 770 q 186 826 186 788 q 191 876 186 863 z "},"":{"ha":577,"x_min":186,"x_max":432,"o":"m 191 876 l 193 880 l 290 880 q 387 878 385 880 q 392 838 391 871 q 391 786 393 805 q 387 766 387 767 l 403 764 l 405 764 q 425 762 424 764 q 431 722 429 755 q 429 670 432 689 q 425 650 426 651 q 405 648 424 648 q 387 646 387 648 q 393 591 393 635 q 387 534 393 545 q 405 532 385 532 q 425 530 422 532 q 429 508 427 527 q 430 455 432 485 q 425 418 429 425 q 405 416 423 416 q 387 415 385 416 q 392 357 392 406 q 386 302 391 308 q 288 301 385 301 l 192 302 l 191 307 q 186 362 186 325 q 191 412 186 400 l 193 416 l 270 416 l 347 416 l 345 423 q 340 477 340 441 q 345 527 340 513 l 347 532 l 289 533 l 231 533 l 229 538 q 225 594 224 556 q 230 644 225 631 l 231 648 l 289 648 l 347 648 l 345 654 q 340 709 340 673 q 345 759 340 745 l 347 764 l 270 764 l 192 765 l 191 770 q 186 826 186 788 q 191 876 186 863 z "},"":{"ha":577,"x_min":186,"x_max":432,"o":"m 191 991 l 193 996 l 251 996 l 309 996 l 311 991 q 315 932 316 977 q 309 881 315 886 q 250 880 309 880 l 192 880 l 191 886 q 186 941 186 903 q 191 991 186 979 m 307 1107 l 309 1111 l 366 1111 q 425 1109 424 1111 q 430 1070 429 1103 q 429 1019 432 1036 q 428 1012 429 1017 q 427 1006 427 1007 q 425 997 426 998 q 366 996 423 996 l 308 996 l 307 1002 q 302 1057 302 1019 q 307 1107 302 1095 z "},"":{"ha":577,"x_min":66,"x_max":548,"o":"m 384 528 l 386 532 l 444 532 q 503 531 501 532 q 505 523 503 530 q 504 425 513 476 q 504 408 503 416 q 508 349 509 388 q 503 302 507 310 q 482 301 501 301 q 464 299 464 301 q 469 253 469 292 q 466 194 470 214 q 466 176 465 185 q 470 117 471 156 q 464 71 469 79 l 465 71 q 471 70 467 71 q 479 70 474 70 q 489 69 484 69 q 501 69 495 69 q 541 68 540 69 q 546 28 545 62 q 545 -22 548 -5 q 544 -30 545 -24 q 543 -36 543 -35 q 541 -45 542 -43 q 462 -46 539 -46 l 385 -45 l 384 -40 q 379 14 379 -23 q 384 64 379 50 l 386 69 l 366 70 l 347 71 l 345 76 q 340 130 340 94 q 345 180 340 166 q 345 191 347 185 q 342 275 336 223 q 347 298 344 295 q 366 301 349 301 l 385 301 l 384 307 q 379 361 379 326 q 384 411 379 397 q 384 423 385 416 q 379 479 379 442 q 384 528 379 515 m 153 528 l 155 532 l 212 532 q 271 531 269 532 q 273 523 272 530 q 273 425 282 476 q 273 408 271 416 q 277 349 277 388 q 271 302 276 310 q 250 301 269 301 q 232 299 232 301 q 237 253 237 292 q 234 194 238 214 q 234 176 233 185 q 238 117 239 156 q 232 71 237 79 l 235 71 q 243 70 237 71 q 255 70 248 70 q 272 69 262 69 q 290 69 281 69 l 347 69 l 349 65 q 354 6 354 52 q 348 -45 353 -39 q 269 -46 347 -46 l 192 -45 l 191 -40 q 186 14 186 -23 q 191 64 186 50 l 193 69 l 174 69 q 155 68 154 69 q 160 21 160 60 q 157 -37 161 -18 q 157 -55 155 -46 q 160 -116 161 -76 q 155 -161 159 -156 q 115 -161 154 -161 l 77 -161 l 75 -156 q 71 -102 71 -138 q 75 -52 71 -65 q 75 -40 77 -46 q 72 43 66 -8 q 77 66 74 64 q 96 69 79 69 l 115 69 l 114 76 q 109 130 109 94 q 114 180 109 165 q 114 191 115 185 q 111 275 105 223 q 115 298 113 295 q 135 301 118 301 l 154 301 l 153 307 q 148 361 148 326 q 153 411 148 397 q 153 423 154 416 q 148 479 148 442 q 153 528 148 515 z "},"":{"ha":577,"x_min":105,"x_max":548,"o":"m 230 876 l 231 880 l 386 880 q 541 878 540 880 q 547 838 545 871 q 545 786 548 805 q 544 780 544 783 q 543 775 543 777 q 542 772 543 774 q 542 769 542 770 q 542 768 542 768 q 541 766 542 767 l 541 766 q 521 764 539 764 q 503 762 501 764 q 508 716 507 755 q 504 657 508 677 q 504 640 503 648 q 507 590 507 622 q 504 541 507 559 q 504 524 503 532 q 507 474 507 506 q 504 425 507 442 q 504 408 503 416 q 507 359 507 391 q 504 310 507 327 q 504 292 503 301 q 507 243 507 275 q 504 194 507 212 q 504 176 503 185 q 507 127 507 159 q 504 78 507 95 q 504 61 503 69 q 507 12 507 43 q 504 -37 507 -20 q 504 -55 503 -46 q 508 -116 509 -76 q 502 -161 507 -156 q 462 -161 501 -161 l 424 -161 l 422 -156 q 418 -102 418 -138 q 422 -52 418 -65 q 422 -40 424 -46 q 418 14 418 -22 q 422 64 418 50 q 422 76 424 69 q 418 130 418 94 q 422 180 418 165 q 422 191 424 185 q 418 245 418 210 q 422 296 418 281 q 422 307 424 301 q 418 361 418 326 q 422 411 418 397 q 422 423 424 416 q 418 477 418 441 q 422 527 418 513 q 422 538 424 532 q 418 593 418 557 q 422 643 418 629 q 422 654 424 648 q 418 708 418 673 q 422 758 418 744 l 424 764 l 386 764 q 374 764 380 764 q 363 763 368 764 q 355 763 359 763 q 350 762 351 763 l 348 762 q 353 716 353 755 q 350 657 354 677 q 350 640 349 648 q 354 581 354 620 q 349 534 353 542 q 348 531 348 534 q 349 526 349 529 q 354 468 354 510 q 349 418 353 427 q 349 411 347 417 q 354 353 354 395 q 349 303 353 311 q 348 300 348 302 q 349 295 349 298 q 354 237 354 279 q 349 187 353 195 q 348 184 348 186 q 349 179 349 182 q 354 121 354 163 q 349 71 353 79 q 349 64 347 70 q 354 15 353 49 q 350 -37 354 -19 q 350 -55 349 -46 q 354 -116 355 -76 q 348 -161 353 -156 q 308 -161 347 -161 l 269 -161 l 268 -156 q 263 -102 263 -138 q 268 -52 263 -65 q 268 -40 269 -46 q 263 14 263 -22 q 268 64 263 50 q 268 76 269 69 q 263 130 263 94 q 268 180 263 165 l 270 185 l 250 186 l 231 186 l 229 191 q 224 245 224 209 q 229 296 224 281 l 231 301 l 193 301 l 153 302 l 152 307 q 148 361 147 325 q 153 411 148 397 l 154 416 l 134 417 l 115 418 l 113 423 q 109 477 109 441 q 114 527 109 513 q 114 538 115 532 q 111 622 105 570 q 115 645 113 642 q 135 648 118 648 l 154 648 l 153 654 q 148 710 148 673 q 153 760 148 747 l 155 764 l 193 764 l 231 764 l 229 770 q 225 826 224 789 q 230 876 225 863 z "},"":{"ha":577,"x_min":263,"x_max":355,"o":"m 269 412 l 270 416 l 309 416 q 348 415 347 416 q 353 375 352 408 q 352 323 355 342 q 348 302 349 303 q 308 301 347 301 l 269 302 l 268 307 q 263 362 263 325 q 269 412 264 400 z "},"":{"ha":577,"x_min":147,"x_max":355,"o":"m 230 -51 l 231 -46 l 290 -46 q 348 -48 346 -46 q 353 -88 351 -54 q 352 -138 355 -121 q 351 -145 351 -140 q 350 -151 350 -151 q 348 -160 349 -159 q 309 -162 346 -162 q 297 -162 302 -162 q 286 -162 291 -162 q 278 -163 281 -163 q 273 -163 274 -163 l 271 -163 q 276 -221 276 -172 q 271 -276 276 -271 q 211 -277 269 -277 l 153 -277 l 152 -271 q 148 -216 147 -254 q 153 -166 148 -178 l 155 -162 l 193 -162 l 231 -162 l 229 -156 q 225 -101 224 -138 q 230 -51 225 -64 z "},"":{"ha":577,"x_min":220,"x_max":359,"o":"m 269 876 l 270 880 l 309 880 q 348 878 347 880 q 350 870 349 878 q 350 772 359 821 q 350 755 349 764 q 353 706 353 738 q 350 657 353 674 q 350 640 349 648 q 353 590 353 622 q 350 541 353 559 q 350 524 349 532 q 353 474 353 506 q 350 425 353 442 q 350 408 349 416 q 354 347 355 387 q 348 302 353 307 q 308 301 347 301 l 269 302 l 268 307 q 263 361 263 324 q 268 411 263 397 q 268 423 269 416 q 263 477 263 441 q 268 527 263 513 q 268 538 269 532 q 263 593 263 557 q 268 643 263 629 l 270 648 l 250 648 l 231 649 l 229 654 q 226 738 220 686 q 231 761 228 758 q 250 764 233 764 l 270 764 l 268 770 q 263 826 263 789 q 269 876 264 863 z "},"":{"ha":577,"x_min":144,"x_max":471,"o":"m 191 876 l 193 880 l 309 880 q 425 878 424 880 q 430 839 429 872 q 429 788 432 805 q 428 781 429 787 q 427 774 427 776 q 425 766 426 766 l 441 764 l 444 764 q 464 762 463 764 q 469 723 467 756 q 468 672 471 689 q 467 666 467 671 q 466 659 466 661 q 464 650 465 650 q 444 648 463 648 q 425 646 425 648 q 430 588 431 637 q 425 534 430 539 q 308 533 424 533 l 192 533 l 191 538 q 186 593 186 556 q 191 643 186 629 l 193 648 l 173 648 l 153 649 l 152 654 q 149 738 144 684 q 154 761 151 758 q 174 764 157 764 l 193 764 l 191 770 q 186 826 186 789 q 191 876 186 863 m 384 758 l 386 764 l 309 764 q 291 764 300 764 q 275 764 282 764 q 260 763 267 764 q 249 763 254 763 q 239 763 243 763 q 233 762 235 763 l 232 762 q 238 707 238 751 q 232 650 238 661 l 241 650 q 270 649 252 649 q 309 648 288 648 l 385 648 l 384 654 q 379 708 379 673 q 384 758 379 744 z "},"":{"ha":577,"x_min":109,"x_max":548,"o":"m 307 528 l 309 532 l 366 532 q 425 531 424 532 q 431 491 429 524 q 429 439 432 458 q 425 418 426 420 l 427 418 q 432 417 429 418 q 440 417 435 417 q 451 416 445 416 q 463 416 456 416 q 503 415 501 416 q 508 375 507 408 q 507 323 509 342 q 503 302 503 304 q 521 301 501 301 q 541 299 539 301 q 547 259 545 292 q 545 208 548 227 q 543 196 543 201 q 542 189 542 191 q 541 186 541 187 q 521 185 540 185 q 503 184 501 185 q 508 128 508 174 q 503 71 508 81 q 463 69 500 69 q 444 69 452 69 q 430 68 435 68 l 425 68 q 430 9 431 58 q 425 -45 430 -39 q 366 -46 423 -46 l 308 -45 l 307 -40 q 302 15 302 -22 q 307 65 302 53 l 309 69 l 347 69 l 385 69 l 384 76 q 379 132 379 95 q 384 181 379 168 l 386 185 l 424 185 l 463 185 l 461 191 q 456 245 456 210 q 461 296 456 281 l 463 301 l 424 301 l 385 302 l 384 307 q 379 361 379 324 q 384 412 379 398 l 386 416 l 347 417 l 308 418 l 307 423 q 302 478 302 441 q 307 528 302 516 m 114 528 l 116 532 l 174 532 q 232 531 231 532 q 237 491 236 524 q 236 439 239 458 q 232 418 233 420 l 233 418 q 239 417 235 418 q 247 417 243 417 q 258 416 252 416 q 270 416 264 416 l 309 416 l 311 412 q 315 355 315 399 q 309 302 315 311 q 328 301 308 301 q 348 299 346 301 q 353 259 352 292 q 352 208 355 227 q 348 186 349 188 q 328 185 347 185 q 309 184 308 185 q 315 128 315 173 q 309 71 315 82 q 270 69 307 69 q 258 69 264 69 q 248 69 252 69 q 239 68 243 68 q 233 68 235 68 l 232 68 q 237 9 237 58 q 232 -45 237 -39 q 173 -46 231 -46 l 115 -45 l 113 -40 q 109 15 109 -22 q 114 65 109 53 l 116 69 l 154 69 l 193 69 l 191 76 q 186 131 186 94 q 191 181 186 168 l 193 185 l 231 185 l 270 185 l 268 191 q 263 245 263 210 q 268 296 263 281 l 270 301 l 231 301 l 192 302 l 191 307 q 186 361 186 325 q 191 412 186 398 l 193 416 l 154 417 l 115 418 l 113 423 q 109 478 109 441 q 114 528 109 516 z "},"":{"ha":577,"x_min":66,"x_max":548,"o":"m 345 296 q 366 301 347 301 q 386 298 383 301 q 391 277 389 296 q 392 221 393 252 q 386 186 390 191 q 366 186 385 186 q 346 189 347 186 q 345 191 346 189 q 340 247 340 209 q 345 296 340 284 m 384 412 l 386 416 l 444 416 q 503 415 501 416 q 505 407 503 414 q 504 310 513 360 q 504 292 503 300 q 507 243 507 275 q 504 194 507 212 q 504 176 503 185 q 508 117 509 156 q 503 71 507 79 l 519 69 l 521 69 q 541 68 540 69 q 547 28 545 61 q 545 -24 548 -4 q 541 -45 541 -44 q 521 -46 540 -46 q 503 -48 503 -46 q 508 -106 508 -58 q 502 -161 507 -155 q 462 -161 501 -161 l 424 -161 l 422 -156 q 418 -102 418 -138 q 422 -52 418 -65 l 424 -46 l 347 -46 l 269 -45 l 268 -40 q 264 43 259 -9 q 269 66 267 64 q 289 69 272 69 l 309 69 l 307 76 q 303 159 298 108 q 308 182 305 179 q 328 185 311 185 q 348 182 345 185 q 353 161 351 180 q 353 107 355 138 q 348 71 351 77 l 350 71 q 355 70 351 71 q 363 70 358 70 q 373 69 368 69 q 385 69 379 69 l 424 69 l 422 76 q 418 130 418 94 q 422 180 418 165 q 422 191 424 185 q 418 245 418 210 q 422 296 418 281 l 424 300 l 405 301 l 385 302 l 384 307 q 379 362 379 324 q 384 412 379 400 m 345 760 l 347 764 l 386 764 q 425 762 424 764 q 431 722 429 755 q 429 670 432 689 q 425 650 426 651 q 405 648 424 648 q 387 646 387 648 q 393 591 393 635 q 387 534 393 545 q 366 532 385 532 q 348 531 347 532 q 354 475 354 520 q 348 418 354 429 q 328 416 346 416 q 309 415 308 416 q 315 359 315 404 q 309 302 315 313 q 289 301 308 301 q 271 299 271 301 q 276 243 276 290 q 271 186 276 195 q 250 185 269 185 q 232 184 231 185 q 238 128 238 173 q 232 71 238 82 q 212 69 230 69 q 194 68 193 69 q 199 9 199 58 q 193 -45 199 -39 q 153 -46 192 -46 l 115 -45 l 113 -40 q 111 43 105 -11 q 115 66 113 64 q 135 69 118 69 l 154 69 l 153 76 q 149 159 144 108 q 154 182 151 179 q 174 185 157 185 l 193 185 l 191 191 q 188 275 182 221 q 193 298 190 295 q 212 301 195 301 l 231 301 l 229 307 q 226 391 220 339 q 231 414 228 411 q 250 416 233 416 l 270 416 l 268 423 q 264 506 259 455 q 269 529 267 526 q 289 532 272 532 l 309 532 l 307 538 q 303 622 298 570 q 308 645 305 642 q 328 648 311 648 l 347 648 l 345 654 q 340 710 340 673 q 345 760 340 747 m 114 876 l 116 880 l 154 880 q 194 878 193 880 q 196 870 195 878 q 195 772 205 823 q 195 755 194 764 q 199 706 199 738 q 195 657 199 674 q 195 640 194 648 q 199 590 199 622 q 195 541 199 559 q 195 524 194 532 q 199 474 199 506 q 195 425 199 442 q 195 408 194 416 q 199 347 200 387 q 193 302 198 307 q 153 301 192 301 l 115 302 l 113 307 q 109 361 109 325 q 114 411 109 397 q 114 423 115 416 q 109 477 109 441 q 114 527 109 513 q 114 538 115 532 q 109 593 109 557 q 114 643 109 629 l 115 648 l 96 648 l 77 649 l 75 654 q 72 738 66 686 q 77 761 74 758 q 96 764 79 764 l 115 764 l 114 770 q 109 826 109 789 q 114 876 109 863 z "},"":{"ha":577,"x_min":66,"x_max":509,"o":"m 345 412 l 347 416 l 405 416 q 464 415 463 416 q 469 375 468 408 q 468 323 471 342 q 464 302 465 304 q 482 301 463 301 q 503 299 500 301 q 508 259 507 292 q 507 208 509 227 q 503 186 503 188 q 482 185 501 185 q 464 184 463 185 q 469 128 469 174 q 464 71 469 81 q 444 69 462 69 q 425 68 424 69 q 431 12 431 58 q 425 -45 431 -35 l 430 -45 q 444 -46 435 -45 q 463 -46 452 -46 q 503 -48 500 -46 q 508 -88 506 -54 q 507 -138 509 -121 q 505 -145 506 -140 q 505 -151 505 -150 q 502 -161 503 -159 q 404 -161 501 -161 l 308 -161 l 307 -156 q 303 -73 298 -125 q 308 -49 305 -52 q 328 -46 311 -46 l 347 -46 l 345 -40 q 342 43 336 -8 q 347 66 344 64 q 366 69 349 69 l 385 69 l 384 76 q 380 159 375 108 q 385 182 382 179 q 405 185 388 185 l 424 185 l 422 191 q 418 245 418 210 q 422 296 418 281 l 424 301 l 385 301 l 347 302 l 345 307 q 340 362 340 324 q 345 412 340 400 m 345 760 l 347 764 l 386 764 q 425 762 424 764 q 431 722 429 755 q 429 670 432 689 q 425 650 426 651 q 405 648 424 648 q 387 646 387 648 q 393 591 393 635 q 387 534 393 545 q 366 532 385 532 q 348 531 347 532 q 354 475 354 520 q 348 418 354 429 q 328 416 346 416 q 309 415 308 416 q 315 359 315 404 q 309 302 315 313 q 289 301 308 301 q 271 299 271 301 q 276 243 276 290 q 271 186 276 195 q 250 185 269 185 q 232 184 231 185 q 238 128 238 173 q 232 71 238 82 q 212 69 230 69 q 194 68 193 69 q 199 9 199 58 q 193 -45 199 -39 q 153 -46 192 -46 l 115 -45 l 113 -40 q 111 43 105 -11 q 115 66 113 64 q 135 69 118 69 l 154 69 l 153 76 q 149 159 144 108 q 154 182 151 179 q 174 185 157 185 l 193 185 l 191 191 q 188 275 182 221 q 193 298 190 295 q 212 301 195 301 l 231 301 l 229 307 q 226 391 220 339 q 231 414 228 411 q 250 416 233 416 l 270 416 l 268 423 q 264 506 259 455 q 269 529 267 526 q 289 532 272 532 l 309 532 l 307 538 q 303 622 298 570 q 308 645 305 642 q 328 648 311 648 l 347 648 l 345 654 q 340 710 340 673 q 345 760 340 747 m 114 876 l 116 880 l 154 880 q 194 878 193 880 q 196 870 195 878 q 195 772 205 823 q 195 755 194 764 q 199 706 199 738 q 195 657 199 674 q 195 640 194 648 q 199 590 199 622 q 195 541 199 559 q 195 524 194 532 q 199 474 199 506 q 195 425 199 442 q 195 408 194 416 q 199 347 200 387 q 193 302 198 307 q 153 301 192 301 l 115 302 l 113 307 q 109 361 109 325 q 114 411 109 397 q 114 423 115 416 q 109 477 109 441 q 114 527 109 513 q 114 538 115 532 q 109 593 109 557 q 114 643 109 629 l 115 648 l 96 648 l 77 649 l 75 654 q 72 738 66 686 q 77 761 74 758 q 96 764 79 764 l 115 764 l 114 770 q 109 826 109 789 q 114 876 109 863 z "},"":{"ha":577,"x_min":71,"x_max":548,"o":"m 345 296 q 366 301 347 301 q 386 298 383 301 q 391 277 389 296 q 392 221 393 252 q 386 186 390 191 q 366 186 385 186 q 346 189 347 186 q 345 191 346 189 q 340 247 340 209 q 345 296 340 284 m 384 412 l 386 416 l 444 416 q 503 415 501 416 q 505 407 503 414 q 504 310 513 360 q 504 292 503 300 q 507 243 507 275 q 504 194 507 212 q 504 176 503 185 q 508 117 509 156 q 503 71 507 79 l 519 69 l 521 69 q 541 68 540 69 q 547 28 545 61 q 545 -24 548 -4 q 541 -45 541 -44 q 521 -46 540 -46 q 503 -48 503 -46 q 508 -106 508 -58 q 502 -161 507 -155 q 481 -161 501 -161 q 461 -159 463 -161 q 460 -156 461 -158 q 456 -102 456 -138 q 461 -52 456 -66 l 463 -46 l 366 -46 l 269 -45 l 268 -40 q 264 43 259 -9 q 269 66 267 64 q 289 69 272 69 l 309 69 l 307 76 q 303 159 298 108 q 308 182 305 179 q 328 185 311 185 q 348 182 345 185 q 353 161 351 180 q 353 107 355 138 q 348 71 351 77 l 350 71 q 355 70 351 71 q 363 70 358 70 q 373 69 368 69 q 385 69 379 69 l 424 69 l 422 76 q 418 130 418 94 q 422 180 418 165 q 422 191 424 185 q 418 245 418 210 q 422 296 418 281 l 424 300 l 405 301 l 385 302 l 384 307 q 379 362 379 324 q 384 412 379 400 m 75 876 l 77 880 l 154 880 q 232 878 231 880 q 237 838 236 871 q 236 786 239 805 q 232 766 233 767 l 248 764 l 250 764 q 271 762 269 764 q 276 722 275 755 q 275 670 277 689 q 271 650 271 651 q 250 648 269 648 q 232 646 232 648 q 238 591 238 635 q 232 534 238 545 l 237 533 q 251 533 241 533 q 270 532 260 532 l 309 532 l 307 538 q 303 622 298 570 q 308 645 305 642 q 328 648 311 648 l 347 648 l 345 654 q 340 710 340 673 q 345 760 340 747 l 347 764 l 386 764 q 425 762 424 764 q 430 723 429 756 q 429 672 432 689 q 428 666 429 671 q 427 659 427 661 q 425 650 426 650 q 405 648 424 648 q 387 646 387 648 q 393 591 393 635 q 387 534 393 545 q 366 532 385 532 q 348 531 347 532 q 354 475 354 520 q 348 418 354 429 q 328 416 346 416 q 309 415 308 416 q 315 359 315 404 q 309 302 315 313 q 289 301 308 301 q 271 299 271 301 q 277 244 277 288 q 271 186 277 197 q 250 185 269 185 q 232 184 231 185 q 238 128 238 173 q 232 71 238 82 q 212 69 230 69 q 194 68 193 69 q 199 9 199 58 q 193 -45 199 -39 q 153 -46 192 -46 l 115 -45 l 113 -40 q 111 43 105 -11 q 115 66 113 64 q 135 69 118 69 l 154 69 l 153 76 q 149 159 144 108 q 154 182 151 179 q 174 185 157 185 l 193 185 l 191 191 q 186 245 186 210 q 191 296 186 281 l 193 301 l 134 301 l 77 302 l 75 307 q 71 362 71 324 q 75 412 71 400 l 77 416 l 135 416 l 193 416 l 191 423 q 186 477 186 441 q 191 527 186 513 l 193 532 l 134 533 l 77 533 l 75 538 q 71 594 71 556 q 75 644 71 631 l 77 648 l 135 648 l 193 648 l 191 654 q 186 709 186 673 q 191 759 186 745 l 193 764 l 134 764 l 77 765 l 75 770 q 71 826 71 788 q 75 876 71 863 z "},"":{"ha":577,"x_min":109,"x_max":509,"o":"m 269 412 l 270 416 l 328 416 q 387 415 385 416 q 392 375 391 408 q 391 323 393 342 q 387 302 387 304 q 347 301 385 301 q 335 301 341 301 q 325 301 329 301 q 316 300 320 300 q 311 300 313 300 l 309 299 q 315 244 315 288 q 309 186 315 197 q 270 185 308 185 q 258 185 264 185 q 248 185 252 185 q 239 184 243 184 q 233 184 235 184 l 232 184 q 237 137 237 176 q 234 78 238 98 q 234 61 233 69 q 238 2 239 41 q 232 -45 237 -37 l 241 -45 q 270 -46 252 -45 q 309 -46 288 -46 l 385 -46 l 384 -40 q 379 16 379 -21 q 384 65 379 52 l 386 69 l 444 69 q 503 68 501 69 q 508 28 506 62 q 507 -22 509 -5 q 505 -29 506 -24 q 505 -35 505 -35 q 503 -45 503 -44 q 463 -46 501 -46 q 454 -46 458 -46 q 446 -46 450 -46 q 439 -47 442 -47 q 433 -47 435 -47 q 429 -47 431 -47 q 426 -47 427 -47 l 425 -48 q 430 -106 431 -58 q 425 -161 430 -155 q 288 -161 424 -161 l 153 -161 l 152 -156 q 148 -102 147 -138 q 153 -52 148 -65 l 154 -47 l 134 -46 l 115 -45 l 113 -40 q 109 14 109 -22 q 114 64 109 50 q 114 76 115 69 q 109 132 109 95 q 114 181 109 168 l 116 185 l 154 185 l 193 185 l 191 191 q 186 247 186 210 q 191 296 186 283 l 193 301 l 231 301 l 270 301 l 268 307 q 263 362 263 326 q 269 412 264 399 m 269 644 l 270 648 l 328 648 q 387 646 385 648 q 392 607 390 640 q 391 556 393 573 q 389 549 390 554 q 389 543 389 545 q 386 534 387 535 q 327 533 385 533 l 269 533 l 268 538 q 263 594 263 556 q 269 644 264 631 z "},"":{"ha":577,"x_min":66,"x_max":552,"o":"m 230 760 l 231 764 l 309 764 q 387 762 385 764 q 392 722 391 755 q 391 670 393 689 q 387 650 387 651 q 405 648 385 648 q 425 646 423 648 q 431 607 429 640 q 429 555 432 574 q 425 534 426 535 q 444 532 424 532 q 464 531 463 532 q 469 491 468 524 q 468 439 471 458 q 464 418 465 420 l 480 416 l 482 416 q 503 415 501 416 q 505 407 503 414 q 504 310 513 360 q 504 292 503 300 q 508 233 509 272 q 503 186 507 194 q 521 185 501 185 q 541 184 540 185 q 543 176 542 183 q 543 78 552 128 q 543 61 541 69 q 546 0 547 40 q 541 -45 545 -40 q 481 -46 539 -46 l 424 -45 l 422 -40 q 418 14 418 -23 q 422 64 418 50 q 422 76 424 69 q 418 130 418 94 q 422 180 418 165 l 424 185 l 309 185 q 282 185 295 185 q 258 185 269 185 q 237 185 247 185 q 219 184 227 184 q 205 184 211 184 q 197 184 199 184 l 194 184 q 199 137 199 176 q 195 78 199 98 q 195 61 194 69 q 199 0 200 40 q 193 -45 198 -40 q 134 -46 192 -46 l 77 -45 l 75 -40 q 71 14 71 -23 q 75 64 71 50 q 75 76 77 69 q 72 159 66 108 q 77 182 74 179 q 96 185 79 185 l 115 185 l 114 191 q 109 245 109 210 q 114 296 109 281 q 114 307 115 301 q 111 391 105 339 q 115 414 113 411 q 135 416 118 416 l 154 416 l 153 423 q 149 506 144 455 q 154 529 151 526 q 174 532 157 532 l 193 532 l 191 538 q 188 622 182 568 q 193 645 190 642 q 212 648 195 648 l 231 648 l 229 654 q 225 710 224 673 q 230 760 225 747 m 345 527 l 347 532 l 309 532 q 297 532 302 532 q 286 532 291 532 q 278 532 281 532 q 273 532 274 532 l 271 531 q 277 475 277 520 q 271 418 277 429 q 250 416 269 416 q 232 415 231 416 q 238 359 238 404 q 232 302 238 313 l 241 302 q 270 301 252 302 q 309 301 288 301 l 385 301 l 384 307 q 379 361 379 326 q 384 411 379 397 l 386 416 l 366 417 l 347 418 l 345 423 q 340 477 340 441 q 345 527 340 513 m 191 1107 l 193 1111 l 251 1111 q 309 1109 308 1111 q 314 1070 313 1103 q 313 1019 316 1036 q 312 1013 313 1018 q 312 1006 312 1008 q 309 997 311 998 l 314 997 q 328 996 319 996 q 347 996 336 996 q 387 994 385 996 q 392 954 390 987 q 391 903 393 920 q 389 897 390 901 q 389 890 389 892 q 386 881 387 882 q 327 880 385 880 l 269 880 l 268 886 q 263 940 263 903 q 268 990 263 977 l 270 996 l 231 996 l 192 996 l 191 1002 q 186 1057 186 1019 q 191 1107 186 1095 z "},"":{"ha":577,"x_min":66,"x_max":552,"o":"m 230 760 l 231 764 l 309 764 q 387 762 385 764 q 392 722 391 755 q 391 670 393 689 q 387 650 387 651 q 405 648 385 648 q 425 646 423 648 q 431 607 429 640 q 429 555 432 574 q 425 534 426 535 q 444 532 424 532 q 464 531 463 532 q 469 491 468 524 q 468 439 471 458 q 464 418 465 420 l 480 416 l 482 416 q 503 415 501 416 q 505 407 503 414 q 504 310 513 360 q 504 292 503 300 q 508 233 509 272 q 503 186 507 194 q 521 185 501 185 q 541 184 540 185 q 543 176 542 183 q 543 78 552 128 q 543 61 541 69 q 546 0 547 40 q 541 -45 545 -40 q 481 -46 539 -46 l 424 -45 l 422 -40 q 418 14 418 -23 q 422 64 418 50 q 422 76 424 69 q 418 130 418 94 q 422 180 418 165 l 424 185 l 309 185 q 282 185 295 185 q 258 185 269 185 q 237 185 247 185 q 219 184 227 184 q 205 184 211 184 q 197 184 199 184 l 194 184 q 199 137 199 176 q 195 78 199 98 q 195 61 194 69 q 199 0 200 40 q 193 -45 198 -40 q 134 -46 192 -46 l 77 -45 l 75 -40 q 71 14 71 -23 q 75 64 71 50 q 75 76 77 69 q 72 159 66 108 q 77 182 74 179 q 96 185 79 185 l 115 185 l 114 191 q 109 245 109 210 q 114 296 109 281 q 114 307 115 301 q 111 391 105 339 q 115 414 113 411 q 135 416 118 416 l 154 416 l 153 423 q 149 506 144 455 q 154 529 151 526 q 174 532 157 532 l 193 532 l 191 538 q 188 622 182 568 q 193 645 190 642 q 212 648 195 648 l 231 648 l 229 654 q 225 710 224 673 q 230 760 225 747 m 345 527 l 347 532 l 309 532 q 297 532 302 532 q 286 532 291 532 q 278 532 281 532 q 273 532 274 532 l 271 531 q 277 475 277 520 q 271 418 277 429 q 250 416 269 416 q 232 415 231 416 q 238 359 238 404 q 232 302 238 313 l 241 302 q 270 301 252 302 q 309 301 288 301 l 385 301 l 384 307 q 379 361 379 326 q 384 411 379 397 l 386 416 l 366 417 l 347 418 l 345 423 q 340 477 340 441 q 345 527 340 513 m 307 1107 l 309 1111 l 366 1111 q 425 1109 424 1111 q 430 1070 429 1103 q 429 1019 432 1036 q 428 1013 429 1018 q 427 1006 427 1008 q 425 997 426 998 q 386 996 424 996 q 374 996 380 996 q 363 995 368 996 q 355 995 359 995 q 350 994 351 994 l 348 994 q 353 936 353 985 q 348 881 353 886 q 288 880 347 880 l 231 880 l 229 886 q 225 941 224 903 q 230 991 225 979 l 231 996 l 270 996 l 309 996 l 307 1002 q 302 1057 302 1020 q 307 1107 302 1094 z "},"":{"ha":577,"x_min":66,"x_max":552,"o":"m 230 760 l 231 764 l 309 764 q 387 762 385 764 q 392 722 391 755 q 391 670 393 689 q 387 650 387 651 q 405 648 385 648 q 425 646 423 648 q 431 607 429 640 q 429 555 432 574 q 425 534 426 535 q 444 532 424 532 q 464 531 463 532 q 469 491 468 524 q 468 439 471 458 q 464 418 465 420 l 480 416 l 482 416 q 503 415 501 416 q 505 407 503 414 q 504 310 513 360 q 504 292 503 300 q 508 233 509 272 q 503 186 507 194 q 521 185 501 185 q 541 184 540 185 q 543 176 542 183 q 543 78 552 128 q 543 61 541 69 q 546 0 547 40 q 541 -45 545 -40 q 481 -46 539 -46 l 424 -45 l 422 -40 q 418 14 418 -23 q 422 64 418 50 q 422 76 424 69 q 418 130 418 94 q 422 180 418 165 l 424 185 l 309 185 q 282 185 295 185 q 258 185 269 185 q 237 185 247 185 q 219 184 227 184 q 205 184 211 184 q 197 184 199 184 l 194 184 q 199 137 199 176 q 195 78 199 98 q 195 61 194 69 q 199 0 200 40 q 193 -45 198 -40 q 134 -46 192 -46 l 77 -45 l 75 -40 q 71 14 71 -23 q 75 64 71 50 q 75 76 77 69 q 72 159 66 108 q 77 182 74 179 q 96 185 79 185 l 115 185 l 114 191 q 109 245 109 210 q 114 296 109 281 q 114 307 115 301 q 111 391 105 339 q 115 414 113 411 q 135 416 118 416 l 154 416 l 153 423 q 149 506 144 455 q 154 529 151 526 q 174 532 157 532 l 193 532 l 191 538 q 188 622 182 568 q 193 645 190 642 q 212 648 195 648 l 231 648 l 229 654 q 225 710 224 673 q 230 760 225 747 m 345 527 l 347 532 l 309 532 q 297 532 302 532 q 286 532 291 532 q 278 532 281 532 q 273 532 274 532 l 271 531 q 277 475 277 520 q 271 418 277 429 q 250 416 269 416 q 232 415 231 416 q 238 359 238 404 q 232 302 238 313 l 241 302 q 270 301 252 302 q 309 301 288 301 l 385 301 l 384 307 q 379 361 379 326 q 384 411 379 397 l 386 416 l 366 417 l 347 418 l 345 423 q 340 477 340 441 q 345 527 340 513 m 191 1107 l 193 1111 l 309 1111 q 425 1109 424 1111 q 430 1070 429 1103 q 429 1019 432 1036 q 428 1013 429 1018 q 427 1006 427 1008 q 425 997 426 998 q 444 996 424 996 q 464 994 462 996 q 469 954 467 987 q 468 903 471 920 q 467 897 467 901 q 466 890 466 892 q 463 881 465 882 q 423 880 463 880 l 385 880 l 384 886 q 379 940 379 903 q 384 990 379 977 l 386 996 l 309 996 q 270 995 289 996 q 241 995 252 995 q 232 994 231 994 q 237 936 237 985 q 232 881 237 886 q 192 880 231 880 l 153 880 l 152 886 q 149 969 144 915 q 154 992 151 989 q 174 996 157 996 l 193 996 l 191 1002 q 186 1057 186 1020 q 191 1107 186 1094 z "},"":{"ha":577,"x_min":66,"x_max":552,"o":"m 230 760 l 231 764 l 309 764 q 387 762 385 764 q 392 722 391 755 q 391 670 393 689 q 387 650 387 651 q 405 648 385 648 q 425 646 423 648 q 431 607 429 640 q 429 555 432 574 q 425 534 426 535 q 444 532 424 532 q 464 531 463 532 q 469 491 468 524 q 468 439 471 458 q 464 418 465 420 l 480 416 l 482 416 q 503 415 501 416 q 505 407 503 414 q 504 310 513 360 q 504 292 503 300 q 508 233 509 272 q 503 186 507 194 q 521 185 501 185 q 541 184 540 185 q 543 176 542 183 q 543 78 552 128 q 543 61 541 69 q 546 0 547 40 q 541 -45 545 -40 q 481 -46 539 -46 l 424 -45 l 422 -40 q 418 14 418 -23 q 422 64 418 50 q 422 76 424 69 q 418 130 418 94 q 422 180 418 165 l 424 185 l 309 185 q 282 185 295 185 q 258 185 269 185 q 237 185 247 185 q 219 184 227 184 q 205 184 211 184 q 197 184 199 184 l 194 184 q 199 137 199 176 q 195 78 199 98 q 195 61 194 69 q 199 0 200 40 q 193 -45 198 -40 q 134 -46 192 -46 l 77 -45 l 75 -40 q 71 14 71 -23 q 75 64 71 50 q 75 76 77 69 q 72 159 66 108 q 77 182 74 179 q 96 185 79 185 l 115 185 l 114 191 q 109 245 109 210 q 114 296 109 281 q 114 307 115 301 q 111 391 105 339 q 115 414 113 411 q 135 416 118 416 l 154 416 l 153 423 q 149 506 144 455 q 154 529 151 526 q 174 532 157 532 l 193 532 l 191 538 q 188 622 182 568 q 193 645 190 642 q 212 648 195 648 l 231 648 l 229 654 q 225 710 224 673 q 230 760 225 747 m 345 527 l 347 532 l 309 532 q 297 532 302 532 q 286 532 291 532 q 278 532 281 532 q 273 532 274 532 l 271 531 q 277 475 277 520 q 271 418 277 429 q 250 416 269 416 q 232 415 231 416 q 238 359 238 404 q 232 302 238 313 l 241 302 q 270 301 252 302 q 309 301 288 301 l 385 301 l 384 307 q 379 361 379 326 q 384 411 379 397 l 386 416 l 366 417 l 347 418 l 345 423 q 340 477 340 441 q 345 527 340 513 m 114 991 l 116 996 l 155 996 l 193 996 l 195 991 q 199 932 200 977 q 193 881 199 886 q 153 880 193 880 l 115 880 l 113 886 q 109 941 109 903 q 114 991 109 979 m 461 1107 l 463 1111 l 501 1111 q 541 1109 540 1111 q 547 1069 545 1103 q 545 1017 548 1036 q 541 997 542 998 q 500 996 539 996 l 463 996 l 460 1002 q 456 1057 456 1019 q 461 1107 456 1095 m 191 1107 l 193 1111 l 270 1111 q 348 1109 347 1111 q 353 1070 351 1103 q 352 1019 355 1036 q 351 1013 351 1018 q 350 1006 350 1008 q 348 997 349 998 l 355 997 q 375 996 362 996 q 405 996 389 996 l 463 996 l 465 991 q 469 932 470 977 q 463 881 469 886 q 385 880 463 880 l 308 880 l 307 886 q 302 940 302 903 q 307 990 302 977 l 309 996 l 250 996 l 192 996 l 191 1002 q 186 1057 186 1019 q 191 1107 186 1095 z "},"":{"ha":577,"x_min":66,"x_max":552,"o":"m 230 760 l 231 764 l 309 764 q 387 762 385 764 q 392 722 391 755 q 391 670 393 689 q 387 650 387 651 q 405 648 385 648 q 425 646 423 648 q 431 607 429 640 q 429 555 432 574 q 425 534 426 535 q 444 532 424 532 q 464 531 463 532 q 469 491 468 524 q 468 439 471 458 q 464 418 465 420 l 480 416 l 482 416 q 503 415 501 416 q 505 407 503 414 q 504 310 513 360 q 504 292 503 300 q 508 233 509 272 q 503 186 507 194 q 521 185 501 185 q 541 184 540 185 q 543 176 542 183 q 543 78 552 128 q 543 61 541 69 q 546 0 547 40 q 541 -45 545 -40 q 481 -46 539 -46 l 424 -45 l 422 -40 q 418 14 418 -23 q 422 64 418 50 q 422 76 424 69 q 418 130 418 94 q 422 180 418 165 l 424 185 l 309 185 q 282 185 295 185 q 258 185 269 185 q 237 185 247 185 q 219 184 227 184 q 205 184 211 184 q 197 184 199 184 l 194 184 q 199 137 199 176 q 195 78 199 98 q 195 61 194 69 q 199 0 200 40 q 193 -45 198 -40 q 134 -46 192 -46 l 77 -45 l 75 -40 q 71 14 71 -23 q 75 64 71 50 q 75 76 77 69 q 72 159 66 108 q 77 182 74 179 q 96 185 79 185 l 115 185 l 114 191 q 109 245 109 210 q 114 296 109 281 q 114 307 115 301 q 111 391 105 339 q 115 414 113 411 q 135 416 118 416 l 154 416 l 153 423 q 149 506 144 455 q 154 529 151 526 q 174 532 157 532 l 193 532 l 191 538 q 188 622 182 568 q 193 645 190 642 q 212 648 195 648 l 231 648 l 229 654 q 225 710 224 673 q 230 760 225 747 m 345 527 l 347 532 l 309 532 q 297 532 302 532 q 286 532 291 532 q 278 532 281 532 q 273 532 274 532 l 271 531 q 277 475 277 520 q 271 418 277 429 q 250 416 269 416 q 232 415 231 416 q 238 359 238 404 q 232 302 238 313 l 241 302 q 270 301 252 302 q 309 301 288 301 l 385 301 l 384 307 q 379 361 379 326 q 384 411 379 397 l 386 416 l 366 417 l 347 418 l 345 423 q 340 477 340 441 q 345 527 340 513 m 384 991 l 386 996 l 444 996 q 503 994 500 996 q 508 954 506 987 q 507 903 509 920 q 505 897 506 901 q 505 890 505 892 q 502 881 503 882 q 443 880 501 880 l 385 880 l 384 886 q 379 941 379 903 q 384 991 379 979 m 114 991 l 116 996 l 174 996 q 232 994 230 996 q 237 954 235 987 q 237 903 239 920 q 235 897 236 901 q 235 890 235 892 q 232 881 233 882 q 173 880 231 880 l 115 880 l 113 886 q 109 941 109 903 q 114 991 109 979 z "},"":{"ha":577,"x_min":66,"x_max":552,"o":"m 230 1107 l 231 1111 l 309 1111 q 387 1109 385 1111 q 392 1069 391 1103 q 391 1017 393 1036 q 387 997 387 998 q 405 996 385 996 q 425 994 423 996 q 431 954 429 987 q 429 902 432 921 q 425 881 426 882 q 405 880 424 880 q 387 878 385 880 q 392 831 391 871 q 389 772 393 792 q 389 755 387 764 q 393 696 393 735 q 387 650 392 657 q 405 648 385 648 q 425 646 423 648 q 431 607 429 640 q 429 555 432 574 q 425 534 427 536 q 444 532 424 532 q 464 531 463 532 q 470 490 468 525 q 468 440 471 456 q 467 434 467 439 q 466 427 466 429 q 464 418 465 419 l 480 416 l 482 416 q 503 415 501 416 q 505 407 503 414 q 504 310 513 360 q 504 292 503 300 q 508 233 509 272 q 503 186 507 194 q 521 185 501 185 q 541 184 540 185 q 543 176 542 183 q 543 78 552 128 q 543 61 541 69 q 546 0 547 40 q 541 -45 545 -40 q 481 -46 539 -46 l 424 -45 l 422 -40 q 418 14 418 -23 q 422 64 418 50 q 422 76 424 69 q 418 130 418 94 q 422 180 418 165 l 424 185 l 309 185 q 282 185 295 185 q 258 185 269 185 q 237 185 247 185 q 219 184 227 184 q 205 184 211 184 q 197 184 199 184 l 194 184 q 199 137 199 176 q 195 78 199 98 q 195 61 194 69 q 199 0 200 40 q 193 -45 198 -40 q 134 -46 192 -46 l 77 -45 l 75 -40 q 71 14 71 -23 q 75 64 71 50 q 75 76 77 69 q 72 159 66 108 q 77 182 74 179 q 96 185 79 185 l 115 185 l 114 191 q 109 245 109 210 q 114 296 109 281 q 114 307 115 301 q 111 391 105 339 q 115 414 113 411 q 135 416 118 416 l 154 416 l 153 423 q 149 506 144 455 q 154 529 151 526 q 174 532 157 532 l 193 532 l 191 538 q 188 622 182 568 q 193 645 190 642 q 212 648 195 648 l 231 648 l 229 654 q 224 708 224 673 q 229 758 224 744 q 230 770 231 765 q 225 824 225 789 q 229 874 224 860 l 231 880 l 212 880 l 192 880 l 191 886 q 188 969 182 915 q 193 992 190 989 q 212 996 195 996 l 231 996 l 229 1002 q 225 1057 224 1020 q 230 1107 225 1094 m 345 990 l 347 996 l 309 996 q 296 996 302 996 q 286 995 290 996 q 278 995 281 995 q 273 994 274 994 l 271 994 q 277 939 277 983 q 271 881 277 892 l 275 880 q 289 880 280 880 q 309 880 298 880 l 347 880 l 345 886 q 340 940 340 904 q 345 990 340 976 m 345 527 l 347 532 l 309 532 q 297 532 302 532 q 286 532 291 532 q 278 532 281 532 q 273 532 274 532 l 271 531 q 277 475 277 520 q 271 418 277 429 q 250 416 269 416 q 232 415 231 416 q 238 359 238 404 q 232 302 238 313 l 241 302 q 270 301 252 302 q 309 301 288 301 l 385 301 l 384 307 q 379 361 379 326 q 384 411 379 397 l 386 416 l 366 417 l 347 418 l 345 423 q 340 477 340 441 q 345 527 340 513 z "},"":{"ha":577,"x_min":66,"x_max":548,"o":"m 191 760 l 193 764 l 366 764 q 541 762 540 764 q 547 722 545 755 q 545 670 548 689 q 544 664 544 667 q 543 660 543 661 q 542 656 543 658 q 542 653 542 654 q 542 652 542 652 q 541 650 542 651 l 541 650 q 482 648 540 648 q 464 648 473 648 q 448 648 455 648 q 436 647 441 648 q 428 647 431 647 l 425 646 q 431 600 430 639 q 427 541 431 561 q 427 524 426 532 q 431 465 432 503 q 425 418 431 426 l 428 418 q 436 417 431 418 q 448 417 441 417 q 464 416 455 416 q 482 416 473 416 q 541 415 540 416 q 547 375 545 408 q 545 323 548 342 q 544 317 544 319 q 543 312 543 314 q 542 309 543 311 q 542 306 542 307 q 542 304 542 305 q 541 303 542 304 l 541 302 q 482 301 540 301 l 425 301 l 427 295 q 431 237 431 279 q 425 187 430 195 q 427 179 424 186 q 431 121 431 162 q 425 71 430 79 l 428 71 q 436 70 431 71 q 448 70 441 70 q 464 69 455 69 q 482 69 473 69 q 541 68 540 69 q 546 28 545 62 q 545 -22 548 -5 q 544 -30 545 -24 q 543 -36 543 -35 q 541 -45 542 -43 q 423 -46 539 -46 l 308 -45 l 307 -40 q 302 14 302 -23 q 307 64 302 50 q 307 76 308 69 q 302 130 302 94 q 307 180 302 165 l 309 185 l 250 185 q 232 185 241 185 q 216 185 223 185 q 204 184 210 184 q 197 184 199 184 l 194 184 q 199 137 199 176 q 195 78 199 98 q 195 61 194 69 q 199 0 200 40 q 193 -45 198 -40 q 134 -46 192 -46 l 77 -45 l 75 -40 q 71 14 71 -23 q 75 64 71 50 q 75 76 77 69 q 71 130 71 94 q 75 180 71 165 q 75 191 77 185 q 72 275 66 223 q 77 298 74 295 q 96 301 79 301 l 115 301 l 114 307 q 109 361 109 326 q 114 411 109 397 q 114 423 115 416 q 111 506 105 455 q 115 529 113 526 q 135 532 118 532 l 154 532 l 153 538 q 149 622 144 570 q 154 645 151 642 q 174 648 157 648 l 193 648 l 191 654 q 186 710 186 673 q 191 760 186 747 m 307 643 l 309 648 l 270 648 q 258 648 264 648 q 247 648 252 648 q 239 647 243 648 q 233 647 235 647 l 232 646 q 237 600 237 639 q 234 541 238 561 q 234 524 233 532 q 237 474 237 506 q 234 425 237 442 q 234 408 233 416 q 238 349 239 388 q 232 302 237 310 l 237 302 q 251 301 241 302 q 270 301 260 301 l 309 301 l 307 307 q 302 361 302 326 q 307 411 302 397 q 307 423 308 416 q 302 477 302 441 q 307 527 302 513 q 307 538 308 532 q 302 593 302 557 q 307 643 302 629 z "},"":{"ha":577,"x_min":66,"x_max":548,"o":"m 191 -166 l 193 -162 l 251 -162 l 309 -162 l 311 -166 q 315 -225 316 -180 q 309 -276 315 -271 q 250 -277 308 -277 l 192 -277 l 191 -271 q 186 -216 186 -254 q 191 -166 186 -178 m 191 760 l 193 764 l 328 764 q 464 762 463 764 q 469 722 468 755 q 468 670 471 689 q 464 650 465 651 l 469 650 q 482 649 473 649 q 501 648 491 648 q 541 646 539 648 q 547 607 545 640 q 545 555 548 574 q 541 534 542 535 q 481 533 540 533 l 424 533 l 422 538 q 418 593 418 556 q 422 643 418 629 l 424 648 l 328 648 q 280 648 303 648 q 244 647 256 648 q 232 646 231 647 q 238 591 238 635 q 232 534 238 545 q 212 532 231 532 q 194 531 193 532 q 199 484 199 524 q 195 425 199 445 q 195 408 194 416 q 199 359 199 391 q 195 310 199 327 q 195 292 194 301 q 199 233 200 272 q 194 186 199 194 q 212 185 193 185 q 232 184 231 185 q 237 144 236 177 q 236 92 239 111 q 232 71 233 73 q 244 70 231 71 q 280 70 256 70 q 328 69 303 69 l 424 69 l 422 76 q 418 132 418 95 q 422 181 418 168 l 425 185 l 482 185 q 541 184 540 185 q 547 144 545 177 q 545 92 548 111 q 544 85 544 88 q 543 81 543 83 q 542 78 543 79 q 542 75 542 76 q 542 73 542 74 q 541 72 542 73 l 541 71 q 501 69 539 69 q 482 69 491 69 q 469 68 473 68 l 464 68 q 469 12 469 58 q 464 -45 469 -35 q 424 -46 463 -46 q 415 -46 420 -46 q 407 -46 411 -46 q 400 -47 404 -47 q 394 -47 397 -47 q 390 -47 392 -47 q 387 -47 388 -47 l 387 -48 q 392 -106 392 -58 q 386 -161 391 -155 q 347 -161 385 -161 l 308 -161 l 307 -156 q 302 -102 302 -138 q 307 -52 302 -65 l 309 -46 l 250 -46 l 192 -45 l 191 -40 q 186 14 186 -22 q 191 64 186 51 l 193 69 l 154 70 l 115 71 l 113 76 q 109 130 109 94 q 114 180 109 166 l 115 185 l 96 186 l 77 186 l 75 191 q 71 245 71 209 q 75 296 71 282 q 75 307 77 301 q 71 361 71 326 q 75 411 71 397 q 75 423 77 416 q 72 506 66 455 q 77 529 74 526 q 96 532 79 532 l 115 532 l 114 538 q 109 594 109 557 q 114 644 109 631 l 116 648 l 154 648 l 193 648 l 191 654 q 186 710 186 673 q 191 760 186 747 z "},"":{"ha":577,"x_min":147,"x_max":509,"o":"m 153 760 l 155 764 l 328 764 q 503 762 501 764 q 508 722 507 755 q 507 670 509 689 q 503 650 503 651 q 386 648 501 648 q 328 648 356 648 q 285 647 300 648 q 271 646 270 647 q 276 600 275 639 q 273 541 277 561 q 273 524 271 532 q 277 465 277 503 q 271 418 276 426 q 285 417 270 418 q 328 417 300 417 q 386 416 356 416 q 503 415 501 416 q 508 375 507 408 q 507 323 509 342 q 503 302 503 304 q 386 301 501 301 l 271 301 l 272 295 q 276 237 277 279 q 271 187 276 195 q 271 184 271 186 q 272 179 271 182 q 276 121 277 162 q 271 71 275 79 q 285 70 270 71 q 328 70 300 70 q 386 69 356 69 q 503 68 501 69 q 508 28 506 62 q 507 -22 509 -5 q 505 -30 506 -24 q 505 -36 505 -35 q 502 -45 503 -43 q 327 -46 500 -46 l 153 -45 l 152 -40 q 148 14 147 -22 q 153 64 148 50 q 153 76 154 69 q 148 130 148 94 q 153 180 148 165 q 153 191 154 185 q 148 245 148 210 q 153 296 148 281 q 153 307 154 301 q 148 361 148 326 q 153 411 148 397 q 153 423 154 416 q 148 477 148 441 q 153 527 148 513 q 153 538 154 532 q 148 593 148 557 q 153 643 148 629 q 153 654 154 648 q 148 710 148 673 q 153 760 148 747 m 230 1107 l 231 1111 l 290 1111 q 348 1109 347 1111 q 353 1070 351 1103 q 352 1019 355 1036 q 351 1013 351 1018 q 350 1006 350 1008 q 348 997 349 998 l 353 997 q 366 996 357 996 q 386 996 375 996 q 425 994 423 996 q 430 954 429 987 q 429 903 432 920 q 428 897 429 901 q 427 890 427 892 q 425 881 426 882 q 366 880 424 880 l 308 880 l 307 886 q 302 940 302 903 q 307 990 302 977 l 309 996 l 270 996 l 231 996 l 229 1002 q 225 1057 224 1019 q 230 1107 225 1095 z "}}}
